<?xml version="1.0" encoding="UTF-8" standalone="no"?>
<svg
   xmlns:dc="http://purl.org/dc/elements/1.1/"
   xmlns:cc="http://creativecommons.org/ns#"
   xmlns:rdf="http://www.w3.org/1999/02/22-rdf-syntax-ns#"
   xmlns:svg="http://www.w3.org/2000/svg"
   xmlns="http://www.w3.org/2000/svg"
   xmlns:sodipodi="http://sodipodi.sourceforge.net/DTD/sodipodi-0.dtd"
   xmlns:inkscape="http://www.inkscape.org/namespaces/inkscape"
   style="fill-opacity:1; color-rendering:auto; color-interpolation:auto; stroke:black; text-rendering:auto; stroke-linecap:square; stroke-miterlimit:10; stroke-opacity:1; shape-rendering:auto; fill:black; stroke-dasharray:none; font-weight:normal; stroke-width:1; font-family:'Dialog'; font-style:normal; stroke-linejoin:miter; font-size:12; stroke-dashoffset:0; image-rendering:auto;"
   width="799"
   height="534"
   version="1.1"
   id="svg346"
   sodipodi:docname="01_A-0.svg"
   inkscape:version="1.0.1 (3bc2e813f5, 2020-09-07)">
  <metadata
     id="metadata350">
    <rdf:RDF>
      <cc:Work
         rdf:about="">
        <dc:format>image/svg+xml</dc:format>
        <dc:type
           rdf:resource="http://purl.org/dc/dcmitype/StillImage" />
      </cc:Work>
    </rdf:RDF>
  </metadata>
  <sodipodi:namedview
     pagecolor="#ffffff"
     bordercolor="#666666"
     borderopacity="1"
     objecttolerance="10"
     gridtolerance="10"
     guidetolerance="10"
     inkscape:pageopacity="0"
     inkscape:pageshadow="2"
     inkscape:window-width="1920"
     inkscape:window-height="1001"
     id="namedview348"
     showgrid="false"
     inkscape:zoom="1.4850127"
     inkscape:cx="332.00561"
     inkscape:cy="175.40185"
     inkscape:window-x="-9"
     inkscape:window-y="-9"
     inkscape:window-maximized="1"
     inkscape:current-layer="svg346" />
  <!--Generated by the Batik Graphics2D SVG Generator-->
  <defs
     id="genericDefs" />
  <g
     id="g1046"
     transform="translate(-270.02689,-141.13996)">
    <g
       id="g344">
      <line
         x1="270.14633"
         x2="347.69501"
         y1="239.34"
         style="fill:none;stroke-width:0.238889"
         y2="239.34"
         id="line264" />
      <path
         d="m 347.695,239.34 -7.97,-2.9888 v 5.9776"
         style="fill-rule:evenodd;stroke:none;stroke-width:0.5"
         id="path266" />
      <line
         x1="387.54501"
         x2="387.54501"
         y1="352.36151"
         style="fill:none;stroke-width:0.295076"
         y2="283.17499"
         id="line268" />
      <path
         d="m 387.545,283.175 -2.9887,7.97 h 5.9775"
         style="fill-rule:evenodd;stroke:none;stroke-width:0.5"
         id="path270" />
      <line
         x1="427.39499"
         x2="427.39499"
         y1="351.99823"
         style="fill:none;stroke-width:0.2943"
         y2="283.17499"
         id="line272" />
      <path
         d="m 427.395,283.175 -2.9888,7.97 h 5.9775"
         style="fill-rule:evenodd;stroke:none;stroke-width:0.5"
         id="path274" />
      <line
         x1="467.03571"
         x2="568.82343"
         y1="239.34"
         style="fill:none;stroke-width:0.280344"
         y2="239.34"
         id="line276" />
      <path
         d="m 568.82343,239.34 -7.9699,-2.9888 v 5.9776"
         style="fill-rule:evenodd;stroke:none;stroke-width:0.5"
         id="path278" />
      <line
         x1="407.47"
         x2="407.47"
         y1="141.30489"
         style="fill:none;stroke-width:0.329861"
         y2="195.505"
         id="line280" />
      <path
         d="m 407.47,195.505 -2.9887,-7.97 h 5.9774"
         style="fill-rule:evenodd;stroke:none;stroke-width:0.5"
         id="path282" />
      <rect
         x="347.69501"
         width="119.55"
         height="87.669998"
         y="195.505"
         style="font-size:8px;font-family:sans-serif;fill:#ffffff;stroke:none;stroke-width:0.5"
         id="rect286" />
      <path
         d="m 352.8415,232.95293 v -7.12911 h 1.4165 l 1.68109,5.04327 q 0.23341,0.71606 0.34239,1.05846 0.12453,-0.38912 0.37358,-1.13627 l 1.71226,-4.96546 h 1.27634 v 7.12911 h -0.9184 v -5.96166 l -2.0702,5.96166 h -0.85614 l -2.05466,-6.07064 v 6.07064 z m 7.87815,-2.58394 q 0,-1.43204 0.80941,-2.13247 0.65371,-0.56036 1.61883,-0.56036 1.05846,0 1.73558,0.69266 0.67712,0.69265 0.67712,1.92236 0,0.9962 -0.29578,1.57211 -0.29577,0.5759 -0.87167,0.89498 -0.5759,0.31918 -1.24525,0.31918 -1.08964,0 -1.75889,-0.70052 -0.66935,-0.70043 -0.66935,-2.00794 z m 0.90276,0 q 0,0.9962 0.43584,1.48653 0.43583,0.49033 1.08964,0.49033 0.65371,0 1.08177,-0.4981 0.42807,-0.4981 0.42807,-1.50985 0,-0.94957 -0.43584,-1.44767 -0.43584,-0.4981 -1.074,-0.4981 -0.65381,0 -1.08964,0.49033 -0.43584,0.49033 -0.43584,1.48653 z m 4.9801,-2.58385 h 0.87168 v 2.14801 h 2.42823 v -2.14801 h 0.87168 v 5.16779 h -0.87168 v -2.28817 h -2.42823 v 2.28817 h -0.87168 z m 5.48588,0 h 0.87167 v 3.93808 l 2.42824,-3.93808 h 0.94948 v 5.16779 h -0.87168 v -3.92254 l -2.42824,3.92254 h -0.94947 z m 5.09775,0 h 4.20267 v 0.73151 h -1.66545 v 4.43628 h -0.87167 v -4.43628 h -1.66555 z m 4.70276,2.58385 q 0,-1.43204 0.80941,-2.13247 0.65371,-0.56036 1.61883,-0.56036 1.05846,0 1.73558,0.69266 0.67712,0.69265 0.67712,1.92236 0,0.9962 -0.29578,1.57211 -0.29577,0.5759 -0.87167,0.89498 -0.5759,0.31918 -1.24525,0.31918 -1.08964,0 -1.75889,-0.70052 -0.66935,-0.70043 -0.66935,-2.00794 z m 0.90276,0 q 0,0.9962 0.43584,1.48653 0.43583,0.49033 1.08964,0.49033 0.65371,0 1.08177,-0.4981 0.42807,-0.4981 0.42807,-1.50985 0,-0.94957 -0.43584,-1.44767 -0.43584,-0.4981 -1.074,-0.4981 -0.65381,0 -1.08964,0.49033 -0.43584,0.49033 -0.43584,1.48653 z m 4.96446,4.5607 v -7.14455 h 0.79387 v 0.66925 q 0.29577,-0.38912 0.64604,-0.58367 0.35016,-0.19456 0.8638,-0.19456 0.65381,0 1.15968,0.33462 0.50587,0.33472 0.76269,0.95735 0.25682,0.62262 0.25682,1.36977 0,0.77824 -0.28013,1.4164 -0.28023,0.63827 -0.82495,0.98066 -0.54483,0.34249 -1.13637,0.34249 -0.43584,0 -0.786,-0.18678 -0.35027,-0.18679 -0.58377,-0.46702 v 2.50604 z m 0.79387,-4.52952 q 0,0.9962 0.40476,1.47089 0.40465,0.47479 0.98056,0.47479 0.576,0 0.9962,-0.49033 0.42029,-0.49033 0.42029,-1.53326 0,-0.98056 -0.40465,-1.47088 -0.40476,-0.49033 -0.98066,-0.49033 -0.56036,0 -0.98843,0.52141 -0.42807,0.52151 -0.42807,1.51771 z m 4.7466,-2.61503 h 0.87167 v 3.93808 l 2.42824,-3.93808 h 0.94948 v 5.16779 h -0.87168 v -3.92254 l -2.42824,3.92254 h -0.94947 z m 5.58021,0 h 0.87168 v 2.14801 h 2.42823 v -2.14801 h 0.87168 v 5.16779 h -0.87168 v -2.28817 h -2.42823 v 2.28817 h -0.87168 z m 5.50152,0 h 2.95741 v 0.73151 h -2.08574 v 4.43628 h -0.87167 z m 9.76355,3.26873 0.85604,0.12453 q -0.14007,0.88721 -0.72374,1.39308 -0.58378,0.50597 -1.42427,0.50597 -1.05846,0 -1.7044,-0.70052 -0.64603,-0.70043 -0.64603,-1.9924 0,-0.82496 0.28023,-1.45535 0.28013,-0.6304 0.84049,-0.94171 0.56036,-0.31131 1.22971,-0.31131 0.84049,0 1.37755,0.42029 0.53705,0.4202 0.69265,1.21407 l -0.85613,0.12453 q -0.12453,-0.51364 -0.42797,-0.77823 -0.30354,-0.26469 -0.75502,-0.26469 -0.6537,0 -1.06623,0.47479 -0.41243,0.47478 -0.41243,1.50207 0,1.04292 0.39689,1.50984 0.39688,0.46702 1.03515,0.46702 0.51364,0 0.8639,-0.31132 0.35017,-0.31131 0.44361,-0.98066 z m 1.60319,-3.26873 h 0.87167 v 3.93808 l 2.42824,-3.93808 h 0.94958 v 5.16779 h -0.87168 v -3.92254 l -2.42824,3.92254 h -0.94957 z m 8.94249,3.26873 0.85613,0.12453 q -0.14007,0.88721 -0.72384,1.39308 -0.58367,0.50597 -1.42427,0.50597 -1.05846,0 -1.70439,-0.70052 -0.64594,-0.70043 -0.64594,-1.9924 0,-0.82496 0.28013,-1.45535 0.28023,-0.6304 0.84059,-0.94171 0.56037,-0.31131 1.22961,-0.31131 0.8406,0 1.37755,0.42029 0.53705,0.4202 0.69276,1.21407 l -0.85614,0.12453 q -0.12452,-0.51364 -0.42806,-0.77823 -0.30355,-0.26469 -0.75492,-0.26469 -0.65381,0 -1.06624,0.47479 -0.41252,0.47478 -0.41252,1.50207 0,1.04292 0.39688,1.50984 0.39699,0.46702 1.03515,0.46702 0.51364,0 0.86391,-0.31132 0.35026,-0.31131 0.44361,-0.98066 z m 1.13626,-3.26873 h 4.20277 v 0.73151 h -1.66555 v 4.43628 h -0.87167 v -4.43628 h -1.66555 z m 8.56304,3.50224 0.91839,0.10899 q -0.21786,0.79377 -0.80164,1.23738 -0.58367,0.4437 -1.47089,0.4437 -1.13636,0 -1.80561,-0.70052 -0.66935,-0.70043 -0.66935,-1.96122 0,-1.30751 0.67712,-2.02358 0.67712,-0.71597 1.73558,-0.71597 1.04282,0 1.69663,0.70043 0.65371,0.70042 0.65371,1.97686 0,0.0778 0,0.2335 h -3.84464 q 0.0466,0.85604 0.47469,1.30752 0.42807,0.45138 1.08187,0.45138 0.48246,0 0.82496,-0.24905 0.34239,-0.24905 0.52918,-0.80942 z m -2.86408,-1.41649 h 2.87972 q -0.0623,-0.65371 -0.32695,-0.98066 -0.4202,-0.4981 -1.08955,-0.4981 -0.60708,0 -1.01174,0.40475 -0.40476,0.40466 -0.45148,1.07401 z m 4.9022,-2.08575 h 1.35424 l 1.35423,4.14041 1.50984,-4.14041 h 1.26079 v 5.16779 h -0.87167 v -4.15605 l -1.52538,4.15605 h -0.77833 l -1.44758,-4.35838 v 4.35838 h -0.85614 z m 6.83334,0 h 0.87167 v 2.14801 h 2.42824 v -2.14801 h 0.87168 v 5.16779 h -0.87168 v -2.28817 h -2.42824 v 2.28817 h -0.87167 z m 5.15902,2.58385 q 0,-1.43204 0.80941,-2.13247 0.65381,-0.56036 1.61883,-0.56036 1.05846,0 1.73558,0.69266 0.67711,0.69265 0.67711,1.92236 0,0.9962 -0.29577,1.57211 -0.29577,0.5759 -0.87167,0.89498 -0.57591,0.31918 -1.24525,0.31918 -1.08955,0 -1.75889,-0.70052 -0.66935,-0.70043 -0.66935,-2.00794 z m 0.90285,0 q 0,0.9962 0.43584,1.48653 0.43584,0.49033 1.08955,0.49033 0.6538,0 1.08187,-0.4981 0.42797,-0.4981 0.42797,-1.50985 0,-0.94957 -0.43584,-1.44767 -0.43584,-0.4981 -1.074,-0.4981 -0.65371,0 -1.08955,0.49033 -0.43584,0.49033 -0.43584,1.48653 z m 4.98001,-2.58385 h 2.95742 v 0.73151 h -2.08575 v 4.43628 h -0.87167 z m 3.29114,2.58385 q 0,-1.43204 0.80942,-2.13247 0.6538,-0.56036 1.61882,-0.56036 1.05846,0 1.73558,0.69266 0.67712,0.69265 0.67712,1.92236 0,0.9962 -0.29577,1.57211 -0.29577,0.5759 -0.87168,0.89498 -0.5759,0.31918 -1.24525,0.31918 -1.08954,0 -1.75889,-0.70052 -0.66935,-0.70043 -0.66935,-2.00794 z m 0.90286,0 q 0,0.9962 0.43584,1.48653 0.43584,0.49033 1.08954,0.49033 0.65381,0 1.08178,-0.4981 0.42806,-0.4981 0.42806,-1.50985 0,-0.94957 -0.43583,-1.44767 -0.43584,-0.4981 -1.07401,-0.4981 -0.6537,0 -1.08954,0.49033 -0.43584,0.49033 -0.43584,1.48653 z"
         style="font-size:8px;font-family:sans-serif;fill:#000000;stroke:none;stroke-width:0.4981"
         id="path288" />
      <path
         d="m 391.42234,240.31545 h 2.00794 q 0.74715,0 1.11295,0.12452 0.36581,0.12453 0.62263,0.45915 0.25682,0.33472 0.25682,0.7861 0,0.37358 -0.15561,0.64594 -0.15571,0.27246 -0.45138,0.45924 0.35794,0.12453 0.59922,0.45915 0.24128,0.33463 0.24128,0.7861 -0.0467,0.73151 -0.52142,1.08955 -0.47478,0.35803 -1.39318,0.35803 h -2.31925 z m 0.87167,2.17918 h 0.93394 q 0.56036,0 0.77056,-0.0623 0.2101,-0.0623 0.37357,-0.24128 0.16338,-0.17902 0.16338,-0.41253 0,-0.42019 -0.2879,-0.5759 -0.288,-0.15561 -0.98843,-0.15561 h -0.96512 z m 0,2.27253 h 1.15191 q 0.74715,0 1.01951,-0.17114 0.27236,-0.17125 0.288,-0.60709 0,-0.24905 -0.15571,-0.45925 -0.1556,-0.21009 -0.42029,-0.26459 -0.26459,-0.0545 -0.82496,-0.0545 h -1.05846 z m 9.32384,-4.45171 h 0.87167 v 5.16778 h -0.87167 z m -4.9032,0 h 0.88721 v 2.02348 h 1.10519 q 1.08964,0 1.67332,0.42029 0.58367,0.4203 0.58367,1.15191 0,0.65371 -0.49023,1.11285 -0.49033,0.45925 -1.56443,0.45925 h -2.19473 z m 0.88721,4.45171 h 0.9184 q 0.82495,0 1.18299,-0.21009 0.35803,-0.2101 0.35803,-0.6304 0,-0.34249 -0.26459,-0.60708 -0.26469,-0.26459 -1.16744,-0.26459 h -1.02739 z m 7.40924,-1.61882 v -0.68489 q 0.54482,0 0.74715,-0.0388 0.20243,-0.0389 0.38145,-0.23351 0.17891,-0.19456 0.17891,-0.49033 0,-0.35803 -0.23341,-0.56813 -0.2335,-0.2101 -0.60708,-0.2101 -0.74715,0 -1.04292,0.87167 l -0.82495,-0.14016 q 0.38911,-1.44758 1.88341,-1.44758 0.82495,0 1.29197,0.45138 0.46692,0.45148 0.46692,1.0741 0,0.63817 -0.60698,1.01174 0.38911,0.20233 0.58367,0.52918 0.19456,0.32696 0.19456,0.76279 0,0.70043 -0.50587,1.13627 -0.50587,0.43584 -1.42427,0.43584 -1.75889,0 -2.03912,-1.57211 l 0.80941,-0.18678 q 0.12453,0.4981 0.46702,0.77046 0.34239,0.27236 0.77823,0.27236 0.45148,0 0.73938,-0.24905 0.288,-0.24905 0.288,-0.63817 0,-0.29577 -0.17901,-0.52141 -0.17902,-0.22574 -0.38912,-0.28023 -0.2102,-0.0545 -0.77056,-0.0545 -0.0311,0 -0.18679,0 z m 3.08882,-0.24905 q 0,-1.43204 0.80941,-2.13247 0.65381,-0.56036 1.61883,-0.56036 1.05846,0 1.73558,0.69266 0.67711,0.69266 0.67711,1.92237 0,0.9962 -0.29577,1.5721 -0.29567,0.576 -0.87167,0.89509 -0.57591,0.31908 -1.24525,0.31908 -1.08955,0 -1.75889,-0.70043 -0.66935,-0.70053 -0.66935,-2.00804 z m 0.90286,0 q 0,0.9962 0.43583,1.48653 0.43584,0.49033 1.08955,0.49033 0.6538,0 1.08187,-0.4981 0.42807,-0.4981 0.42807,-1.50984 0,-0.94948 -0.43584,-1.44758 -0.43584,-0.4981 -1.0741,-0.4981 -0.65371,0 -1.08955,0.49023 -0.43583,0.49033 -0.43583,1.48653 z m 4.98,-2.58384 h 2.00794 q 0.74715,0 1.11295,0.12452 0.36581,0.12453 0.62263,0.45915 0.25682,0.33472 0.25682,0.7861 0,0.37358 -0.15561,0.64594 -0.1557,0.27246 -0.45137,0.45924 0.35793,0.12453 0.59921,0.45915 0.24128,0.33463 0.24128,0.7861 -0.0467,0.73151 -0.52141,1.08955 -0.47479,0.35803 -1.39319,0.35803 h -2.31925 z m 0.87167,2.17918 h 0.93394 q 0.56036,0 0.77046,-0.0623 0.2102,-0.0623 0.37358,-0.24128 0.16347,-0.17902 0.16347,-0.41253 0,-0.42019 -0.288,-0.5759 -0.2879,-0.15561 -0.98833,-0.15561 h -0.96512 z m 0,2.27253 h 1.15191 q 0.74715,0 1.01951,-0.17114 0.27236,-0.17125 0.288,-0.60709 0,-0.24905 -0.1557,-0.45925 -0.15561,-0.21009 -0.4203,-0.26459 -0.26459,-0.0545 -0.82495,-0.0545 h -1.05847 z m 7.78282,0.0779 q -0.48256,0.42019 -0.93394,0.59144 -0.45138,0.17125 -0.96502,0.17125 -0.85613,0 -1.31538,-0.4203 -0.45915,-0.4203 -0.45915,-1.074 0,-0.37358 0.17125,-0.68489 0.17124,-0.31131 0.45137,-0.50587 0.28024,-0.19456 0.63817,-0.288 0.24905,-0.0623 0.77833,-0.12453 1.05846,-0.12452 1.55656,-0.31131 0,-0.17125 0,-0.21787 0,-0.54482 -0.24905,-0.76279 -0.32685,-0.29567 -0.9962,-0.29567 -0.60708,0 -0.90285,0.21787 -0.29567,0.21797 -0.43584,0.76269 l -0.85603,-0.10889 q 0.10888,-0.56036 0.38134,-0.89508 0.27236,-0.33462 0.77823,-0.51364 0.50587,-0.17902 1.17522,-0.17902 0.65381,0 1.06623,0.15571 0.41253,0.1556 0.60709,0.38911 0.19455,0.23351 0.27236,0.59145 0.0467,0.21797 0.0467,0.80941 v 1.16745 q 0,1.21416 0.0545,1.54102 0.0545,0.32685 0.22574,0.62262 h -0.9184 q -0.14006,-0.28023 -0.17124,-0.63816 z m -0.0778,-1.96132 q -0.48256,0.20233 -1.43203,0.34249 -0.52929,0.0778 -0.75492,0.17115 -0.22574,0.0934 -0.35027,0.28023 -0.12452,0.18679 -0.12452,0.4203 0,0.34239 0.26459,0.5759 0.26469,0.23351 0.77833,0.23351 0.51364,0 0.90275,-0.21797 0.38922,-0.21787 0.57601,-0.60708 0.14006,-0.29568 0.14006,-0.87168 z"
         style="font-size:8px;font-family:sans-serif;fill:#000000;stroke:none;stroke-width:0.4981"
         id="path290" />
      <rect
         x="347.69501"
         y="195.505"
         width="119.55"
         style="font-size:8px;font-family:sans-serif;fill:none;stroke:#000000;stroke-width:0.5"
         height="87.669998"
         id="rect292" />
      <line
         x1="357.69501"
         x2="347.69501"
         y1="195.505"
         style="font-size:8px;font-family:sans-serif;fill:none;stroke:#000000;stroke-width:0.5"
         y2="205.505"
         id="line294" />
      <path
         style="font-size:10px;font-family:sans-serif;stroke:none;stroke-width:1.9924"
         d="m 452.03244,279.36489 2.73955,-7.129 h 1.01184 l 2.92634,7.129 h -1.07411 l -0.84049,-2.16365 h -2.97306 l -0.79387,2.16365 z m 2.05466,-2.92634 h 2.42824 l -0.74715,-1.97686 q -0.34239,-0.90275 -0.51364,-1.47865 -0.12453,0.68488 -0.37358,1.35413 z m 5.02583,-0.59144 q 0,-1.26089 0.25682,-2.03135 0.25682,-0.77046 0.77046,-1.19076 0.51364,-0.4203 1.29197,-0.4203 0.57591,0 1.00397,0.23351 0.42807,0.23351 0.71597,0.66935 0.288,0.43584 0.44371,1.05846 0.15561,0.62263 0.15561,1.68109 0,1.26079 -0.25682,2.03125 -0.25682,0.77056 -0.77046,1.19076 -0.51374,0.4203 -1.29198,0.4203 -1.02738,0 -1.61882,-0.74715 -0.70043,-0.88722 -0.70043,-2.89516 z m 0.88722,0 q 0,1.75889 0.41242,2.34256 0.41253,0.58378 1.01961,0.58378 0.60709,0 1.01951,-0.58378 0.41253,-0.58367 0.41253,-2.34256 0,-1.75899 -0.41253,-2.33489 -0.41242,-0.57591 -1.03505,-0.57591 -0.59154,0 -0.96512,0.4981 -0.45137,0.65371 -0.45137,2.4127 z"
         id="path298" />
      <path
         d="m 289.35517,219.07078 0.76269,0.20233 q -0.24905,0.9184 -0.8639,1.40863 -0.61486,0.49033 -1.50207,0.49033 -0.9184,0 -1.50207,-0.37358 -0.58368,-0.37357 -0.87945,-1.08954 -0.29577,-0.71607 -0.29577,-1.52548 0,-0.88722 0.33462,-1.55656 0.33473,-0.66925 0.96512,-1.01175 0.6304,-0.34239 1.39309,-0.34239 0.85613,0 1.4398,0.43584 0.58378,0.43584 0.80165,1.22961 l -0.73151,0.17124 q -0.20243,-0.62262 -0.58378,-0.90275 -0.38134,-0.28023 -0.9417,-0.28023 -0.66935,0 -1.10519,0.31131 -0.43584,0.31131 -0.61485,0.84059 -0.17892,0.52918 -0.17892,1.10509 0,0.71607 0.2101,1.26089 0.2101,0.54472 0.6537,0.81718 0.44371,0.27236 0.97289,0.27236 0.63817,0 1.07401,-0.3658 0.43583,-0.36581 0.59154,-1.09732 z m 1.5993,-2.13256 h 0.70053 v 3.15984 l 1.94568,-3.15984 h 0.74715 v 4.1405 h -0.70043 v -3.12866 l -1.94578,3.12866 h -0.74715 z m 7.14465,2.63066 0.68488,0.0778 q -0.10898,0.71597 -0.5759,1.12072 -0.46702,0.40466 -1.13626,0.40466 -0.85614,0 -1.36978,-0.55259 -0.51374,-0.5525 -0.51374,-1.59542 0,-0.66935 0.22574,-1.16745 0.22574,-0.4981 0.67712,-0.75492 0.45137,-0.25682 0.98066,-0.25682 0.66924,0 1.09731,0.3424 0.42807,0.34249 0.55259,0.96512 l -0.68489,0.10898 q -0.0933,-0.4203 -0.34239,-0.63049 -0.24905,-0.2101 -0.59154,-0.2101 -0.52918,0 -0.86391,0.38134 -0.33462,0.38135 -0.33462,1.2064 0,0.82495 0.31908,1.2063 0.31908,0.38134 0.83273,0.38134 0.42029,0 0.69275,-0.25682 0.27236,-0.25682 0.35017,-0.77046 z m 0.91839,-2.63066 h 3.34664 v 0.59154 H 301.041 v 3.54896 h -0.70043 v -3.54896 h -1.32306 z m 6.85665,2.80181 0.71607,0.0934 q -0.17125,0.63817 -0.6305,0.98843 -0.45915,0.35017 -1.19076,0.35017 -0.90275,0 -1.43203,-0.56036 -0.52918,-0.56037 -0.52918,-1.57211 0,-1.04292 0.53695,-1.61882 0.53705,-0.57591 1.39318,-0.57591 0.82496,0 1.35424,0.56814 0.52918,0.56813 0.52918,1.59551 0,0.0623 -0.0155,0.18679 h -3.08205 q 0.0467,0.66925 0.38922,1.03505 0.34239,0.3658 0.87168,0.3658 0.37357,0 0.64593,-0.20232 0.27236,-0.20233 0.44361,-0.65381 z m -2.30371,-1.12072 h 2.30371 q -0.0467,-0.52919 -0.26459,-0.79378 -0.32685,-0.40475 -0.87168,-0.40475 -0.48256,0 -0.80941,0.32685 -0.32685,0.32695 -0.35803,0.87168 z m 3.91865,-1.68109 h 1.08964 l 1.08955,3.31555 1.19852,-3.31555 h 1.01184 v 4.1405 h -0.70052 v -3.33109 l -1.21407,3.33109 h -0.63817 l -1.1519,-3.4867 v 3.4867 h -0.68489 z m 5.46356,0 h 0.70043 v 1.72781 h 1.94567 v -1.72781 h 0.70053 v 4.1405 h -0.70053 v -1.83679 h -1.94567 v 1.83679 h -0.70043 z m 8.33929,0 h 0.70043 v 4.1405 h -0.70043 z m -3.92254,0 h 0.70043 v 1.61882 h 0.88721 q 0.87168,0 1.3387,0.33473 0.46692,0.33462 0.46692,0.92616 0,0.52918 -0.38912,0.89499 -0.38911,0.3658 -1.26079,0.3658 h -1.74335 z m 0.70043,3.5646 h 0.73161 q 0.66925,0 0.94948,-0.16348 0.28013,-0.16347 0.28013,-0.50587 0,-0.28023 -0.2101,-0.49033 -0.2101,-0.21009 -0.92617,-0.21009 h -0.82495 z m 5.01208,-3.5646 h 0.70053 v 3.15984 l 1.94568,-3.15984 h 0.74715 v 4.1405 h -0.70043 v -3.12866 l -1.94578,3.12866 h -0.74715 z m 2.47496,-1.55656 h 0.46702 q -0.0467,0.48255 -0.35027,0.74715 -0.30354,0.26469 -0.7861,0.26469 -0.4981,0 -0.80154,-0.26469 -0.30354,-0.2646 -0.35026,-0.74715 h 0.46692 q 0.0623,0.26469 0.22573,0.39698 0.16348,0.1323 0.42807,0.1323 0.31131,0 0.47479,-0.1323 0.16338,-0.13229 0.22564,-0.39698 z"
         style="font-size:10px;font-family:sans-serif;stroke:none;stroke-width:0.4981"
         id="path300" />
      <path
         d="m 295.22538,226.96248 h 1.61882 q 0.59145,0 0.87945,0.10121 0.2879,0.10122 0.4981,0.36581 0.2101,0.26459 0.2101,0.63816 0,0.29578 -0.12453,0.51365 -0.12452,0.21796 -0.35803,0.37357 0.28023,0.0934 0.47479,0.35803 0.19456,0.2646 0.19456,0.63817 -0.0311,0.576 -0.41253,0.86391 -0.38135,0.288 -1.11286,0.288 h -1.86787 z m 0.70043,1.74335 h 0.74715 q 0.45138,0 0.61485,-0.0466 0.16338,-0.0467 0.29567,-0.18679 0.1324,-0.14016 0.1324,-0.34249 0,-0.32686 -0.22574,-0.45138 -0.22574,-0.12453 -0.7861,-0.12453 h -0.77823 z m 0,1.82125 h 0.91839 q 0.60699,0 0.82496,-0.14016 0.21787,-0.14007 0.23351,-0.48246 0,-0.18679 -0.1324,-0.35804 -0.13229,-0.17124 -0.33462,-0.21796 -0.20233,-0.0466 -0.65371,-0.0466 h -0.85613 z m 7.4715,-3.5646 h 0.70043 v 4.14051 h -0.70043 z m -3.92254,0 h 0.70043 v 1.61883 h 0.88721 q 0.87168,0 1.3387,0.33472 0.46692,0.33462 0.46692,0.92617 0,0.52918 -0.38912,0.89498 -0.38912,0.36581 -1.26079,0.36581 h -1.74335 z m 0.70043,3.5646 h 0.73161 q 0.66934,0 0.94948,-0.16347 0.28023,-0.16348 0.28023,-0.50587 0,-0.28023 -0.2102,-0.49033 -0.2101,-0.2101 -0.92617,-0.2101 h -0.82495 z m 5.93048,-1.29197 v -0.54482 q 0.43583,-0.0155 0.59931,-0.0467 0.16348,-0.0311 0.30354,-0.18679 0.14007,-0.15561 0.14007,-0.38912 0,-0.28013 -0.18679,-0.45137 -0.18679,-0.17125 -0.48256,-0.17125 -0.59144,0 -0.82495,0.70043 l -0.66935,-0.10889 q 0.31131,-1.16744 1.4943,-1.16744 0.66935,0 1.04292,0.3658 0.37358,0.36581 0.37358,0.86391 0,0.51364 -0.48256,0.80941 0.31131,0.17115 0.46702,0.42797 0.1556,0.25692 0.1556,0.61485 0,0.54482 -0.40465,0.89509 -0.40476,0.35016 -1.13627,0.35016 -1.4165,0 -1.63446,-1.26079 l 0.6538,-0.14007 q 0.0933,0.40466 0.36581,0.62263 0.27236,0.21787 0.63039,0.21787 0.3424,0 0.58368,-0.20233 0.24128,-0.20233 0.24128,-0.51364 0,-0.24905 -0.14784,-0.42807 -0.14794,-0.17902 -0.31908,-0.21797 -0.17125,-0.0388 -0.60709,-0.0388 -0.0312,0 -0.1557,0 z m 2.47107,-0.20233 q 0,-1.1519 0.63817,-1.69672 0.52928,-0.46692 1.30751,-0.46692 0.84059,0 1.38541,0.56036 0.54473,0.56036 0.54473,1.54102 0,0.80941 -0.24128,1.26079 -0.24128,0.45138 -0.70043,0.7082 -0.45915,0.25682 -0.98843,0.25682 -0.87168,0 -1.40863,-0.56036 -0.53705,-0.56036 -0.53705,-1.60319 z m 0.71607,0 q 0,0.79378 0.35016,1.19076 0.35027,0.39689 0.87945,0.39689 0.51374,0 0.8639,-0.39689 0.35027,-0.39698 0.35027,-1.2064 0,-0.77823 -0.35027,-1.16734 -0.35016,-0.38922 -0.8639,-0.38922 -0.52918,0 -0.87945,0.38922 -0.35016,0.38911 -0.35016,1.18298 z m 3.98081,-2.0703 h 1.61883 q 0.59154,0 0.87954,0.10121 0.28791,0.10122 0.4981,0.36581 0.2101,0.26459 0.2101,0.63816 0,0.29578 -0.12452,0.51365 -0.12453,0.21796 -0.35804,0.37357 0.28023,0.0934 0.47479,0.35803 0.19456,0.2646 0.19456,0.63817 -0.0312,0.576 -0.41253,0.86391 -0.38134,0.288 -1.11295,0.288 h -1.86788 z m 0.70053,1.74335 h 0.74715 q 0.45138,0 0.61486,-0.0466 0.16337,-0.0467 0.29567,-0.18679 0.13229,-0.14016 0.13229,-0.34249 0,-0.32686 -0.22564,-0.45138 -0.22573,-0.12453 -0.7861,-0.12453 h -0.77823 z m 0,1.82125 h 0.9183 q 0.60708,0 0.82505,-0.14016 0.21787,-0.14007 0.23341,-0.48246 0,-0.18679 -0.13229,-0.35804 -0.1323,-0.17124 -0.33463,-0.21796 -0.20233,-0.0466 -0.6538,-0.0466 h -0.85604 z"
         style="font-size:10px;font-family:sans-serif;stroke:none;stroke-width:0.4981"
         id="path302" />
      <path
         d="m 336.40221,303.03171 h 3.70467 v 0.68489 h -2.95752 v 1.75889 h 1.36977 q 0.74715,0 1.19863,0.14017 0.45138,0.14006 0.71597,0.53695 0.26459,0.39699 0.26459,0.92617 0,0.43583 -0.19456,0.80941 -0.19455,0.37357 -0.5759,0.61485 -0.38134,0.24128 -1.29974,0.24128 h -2.22591 z m 0.74715,5.07445 h 1.50994 q 0.62263,0 0.92617,-0.24905 0.30344,-0.24905 0.30344,-0.74715 0,-0.35804 -0.17892,-0.59932 -0.17901,-0.24128 -0.49033,-0.31908 -0.31131,-0.0778 -1.05846,-0.0778 h -1.01184 z m 4.35837,-3.50234 h 0.70053 v 3.15984 l 1.94568,-3.15984 h 0.74715 v 4.1405 h -0.70043 v -3.12866 l -1.94578,3.12866 h -0.74715 z m 7.4715,-1.69663 h 0.62263 q -0.0466,0.4203 -0.18679,0.58367 -0.14006,0.16348 -0.3657,0.2102 -0.22574,0.0467 -0.87955,0.0467 -0.85603,0 -1.17512,0.16338 -0.31918,0.16348 -0.45924,0.53705 -0.14007,0.37358 -0.15561,0.94948 0.26459,-0.38912 0.62263,-0.59144 0.35793,-0.20243 0.79377,-0.20243 0.82505,0 1.35423,0.56036 0.52928,0.56036 0.52928,1.50994 0,0.73151 -0.26469,1.19076 -0.26459,0.45915 -0.63816,0.71597 -0.37358,0.25682 -0.9962,0.25682 -0.74715,0 -1.15181,-0.33463 -0.40476,-0.33462 -0.62262,-0.8639 -0.21797,-0.52918 -0.21797,-1.83669 0,-1.63447 0.55259,-2.2026 0.55259,-0.56814 1.7044,-0.56814 0.71607,0 0.81728,-0.0233 0.10111,-0.0234 0.11665,-0.10121 z m -0.0311,3.75129 q 0,-0.63817 -0.30354,-1.05069 -0.30354,-0.41243 -0.8639,-0.41243 -0.57591,0 -0.89499,0.43584 -0.31908,0.43584 -0.31908,1.15181 0,0.7316 0.35016,1.11295 0.35027,0.38135 0.86391,0.38135 0.51364,0 0.84059,-0.44361 0.32685,-0.44361 0.32685,-1.17522 z m 1.91849,-2.05466 h 3.25319 v 4.1405 h -0.70043 v -3.54896 h -1.85234 v 2.05466 q 0,0.71597 -0.0467,0.94948 -0.0467,0.23351 -0.25682,0.40476 -0.2101,0.17115 -0.61485,0.17115 -0.23351,0 -0.56037,-0.0311 v -0.59154 h 0.31132 q 0.21797,0 0.31131,-0.0466 0.0934,-0.0467 0.12452,-0.14017 0.0312,-0.0933 0.0312,-0.63816 z m 4.30776,0 h 0.70043 v 3.15984 l 1.94568,-3.15984 h 0.74715 v 4.1405 h -0.70043 v -3.12866 l -1.94568,3.12866 h -0.74715 z m 4.18713,2.0703 q 0,-1.15191 0.63817,-1.69673 0.52928,-0.46692 1.30751,-0.46692 0.84059,0 1.38542,0.56037 0.54472,0.56036 0.54472,1.54102 0,0.80941 -0.24118,1.26079 -0.24128,0.45138 -0.70053,0.7082 -0.45915,0.25682 -0.98843,0.25682 -0.87168,0 -1.40863,-0.56036 -0.53705,-0.56037 -0.53705,-1.60319 z m 0.71607,0 q 0,0.79377 0.35016,1.19076 0.35027,0.39688 0.87945,0.39688 0.51374,0 0.8639,-0.39688 0.35027,-0.39699 0.35027,-1.2064 0,-0.77823 -0.35027,-1.16735 -0.35016,-0.38921 -0.8639,-0.38921 -0.52918,0 -0.87945,0.38921 -0.35016,0.38912 -0.35016,1.18299 z m 3.60734,-2.0703 h 3.34653 v 0.59154 h -1.32305 v 3.54896 h -0.70043 v -3.54896 h -1.32305 z m 6.85665,2.80181 0.71596,0.0934 q -0.17124,0.63817 -0.63039,0.98843 -0.45915,0.35017 -1.19076,0.35017 -0.90285,0 -1.43204,-0.56036 -0.52928,-0.56037 -0.52928,-1.57211 0,-1.04292 0.53705,-1.61882 0.53706,-0.57591 1.39309,-0.57591 0.82505,0 1.35423,0.56814 0.52929,0.56813 0.52929,1.59551 0,0.0623 -0.0156,0.18679 h -3.08195 q 0.0467,0.66925 0.38912,1.03505 0.34249,0.3658 0.87167,0.3658 0.37358,0 0.64604,-0.20232 0.27236,-0.20233 0.44361,-0.65381 z m -2.30372,-1.12072 h 2.30372 q -0.0467,-0.52919 -0.26469,-0.79378 -0.32686,-0.40475 -0.87168,-0.40475 -0.48246,0 -0.80941,0.32685 -0.32686,0.32695 -0.35794,0.87168 z m 3.90301,-1.68109 h 0.70053 v 1.79007 q 0.32686,0 0.45915,-0.12453 0.1323,-0.12452 0.39689,-0.74715 0.20243,-0.4981 0.33472,-0.6537 0.1323,-0.15571 0.29577,-0.2102 0.16338,-0.0545 0.53695,-0.0545 h 0.14007 v 0.59154 l -0.18679,-0.0155 q -0.28013,0 -0.35793,0.0933 -0.0779,0.0778 -0.24905,0.4981 -0.15571,0.40476 -0.288,0.56037 -0.1323,0.1557 -0.41253,0.29577 0.45148,0.10898 0.88732,0.84049 l 0.76269,1.27643 h -0.76269 l -0.74715,-1.27643 q -0.23351,-0.38911 -0.40476,-0.51364 -0.17125,-0.12452 -0.40466,-0.12452 v 1.91459 h -0.70053 z m 6.17963,3.62686 q -0.38921,0.32686 -0.74715,0.46692 -0.35803,0.14007 -0.77833,0.14007 -0.66935,0 -1.03505,-0.33463 -0.3658,-0.33462 -0.3658,-0.84836 0,-0.31131 0.13229,-0.56036 0.1323,-0.24905 0.35803,-0.39689 0.22564,-0.14783 0.50588,-0.22574 0.20232,-0.0623 0.62262,-0.10888 0.85603,-0.10899 1.24525,-0.24905 0.0155,-0.14017 0.0155,-0.17125 0,-0.43584 -0.20233,-0.60708 -0.26469,-0.23351 -0.79387,-0.23351 -0.4981,0 -0.73161,0.17124 -0.23351,0.17125 -0.35803,0.60709 l -0.68489,-0.0934 q 0.0934,-0.43584 0.31131,-0.7082 0.21797,-0.27236 0.62263,-0.4203 0.40475,-0.14784 0.93393,-0.14784 0.52929,0 0.86391,0.12453 0.33472,0.12452 0.49033,0.31908 0.15571,0.19456 0.21797,0.47479 0.0311,0.18679 0.0311,0.65371 v 0.93393 q 0,0.96512 0.0467,1.22971 0.0467,0.26459 0.17125,0.4981 h -0.73161 q -0.10899,-0.21796 -0.14007,-0.51364 z m -0.0623,-1.55656 q -0.37357,0.15561 -1.13637,0.26459 -0.43583,0.0623 -0.61475,0.14007 -0.17902,0.0778 -0.27246,0.22574 -0.0933,0.14783 -0.0933,0.33462 0,0.28023 0.21009,0.46702 0.2101,0.18679 0.61486,0.18679 0.40465,0 0.72384,-0.17902 0.31908,-0.17902 0.45915,-0.49033 0.10898,-0.23351 0.10898,-0.70043 z"
         style="font-size:10px;font-family:sans-serif;stroke:none;stroke-width:0.4981"
         id="path304" />
      <path
         d="m 348.37414,318.76859 v -3.59569 h -0.62262 v -0.54482 h 0.62262 v -0.43584 q 0,-0.42019 0.0623,-0.62262 0.10898,-0.26459 0.3658,-0.43584 0.25682,-0.17115 0.7082,-0.17115 0.29577,0 0.6538,0.0778 l -0.10898,0.60708 q -0.21787,-0.0467 -0.40466,-0.0467 -0.32695,0 -0.45924,0.14006 -0.1323,0.14007 -0.1323,0.51365 v 0.37357 h 0.80941 v 0.54482 h -0.80941 v 3.59569 z m 3.56839,-0.62263 0.10899,0.60709 q -0.29568,0.0778 -0.52919,0.0778 -0.38911,0 -0.59931,-0.12453 -0.2101,-0.12452 -0.29577,-0.31908 -0.0856,-0.19456 -0.0856,-0.83282 v -2.38152 h -0.51364 v -0.54482 h 0.51364 v -1.01174 l 0.70043,-0.4203 v 1.43204 h 0.70043 v 0.54482 h -0.70043 v 2.42824 q 0,0.29577 0.0389,0.38135 0.0389,0.0857 0.11676,0.13229 0.0778,0.0467 0.23351,0.0467 0.12452,0 0.31121,-0.0155 z m 0.67323,0.62263 v -4.14051 h 0.63827 v 0.63827 q 0.23341,-0.45148 0.44361,-0.59155 0.2101,-0.14006 0.4436,-0.14006 0.35804,0 0.73161,0.23351 l -0.24905,0.6537 q -0.24905,-0.1556 -0.51374,-0.1556 -0.23341,0 -0.41242,0.14006 -0.17902,0.14007 -0.25682,0.37358 -0.12453,0.37357 -0.12453,0.82495 v 2.16365 z m 5.36235,-0.51364 q -0.38912,0.32685 -0.74715,0.46691 -0.35794,0.14007 -0.77823,0.14007 -0.66935,0 -1.03515,-0.33462 -0.36581,-0.33463 -0.36581,-0.84837 0,-0.31131 0.1324,-0.56036 0.13229,-0.24905 0.35793,-0.39689 0.22574,-0.14783 0.50587,-0.22573 0.20243,-0.0623 0.62263,-0.10889 0.85613,-0.10898 1.24525,-0.24905 0.0156,-0.14016 0.0156,-0.17125 0,-0.43583 -0.20243,-0.60708 -0.26459,-0.23351 -0.79377,-0.23351 -0.4981,0 -0.73161,0.17125 -0.23351,0.17124 -0.35804,0.60708 l -0.68488,-0.0934 q 0.0934,-0.43584 0.31131,-0.7082 0.21797,-0.27236 0.62262,-0.4203 0.40476,-0.14783 0.93394,-0.14783 0.52928,0 0.86391,0.12452 0.33462,0.12453 0.49032,0.31908 0.15561,0.19456 0.21787,0.47479 0.0312,0.18679 0.0312,0.65371 v 0.93394 q 0,0.96512 0.0467,1.22971 0.0466,0.26459 0.17114,0.4981 h -0.73151 q -0.10898,-0.21797 -0.14016,-0.51364 z m -0.0623,-1.55657 q -0.37358,0.15561 -1.13627,0.26459 -0.43584,0.0623 -0.61485,0.14007 -0.17902,0.0778 -0.27237,0.22574 -0.0934,0.14783 -0.0934,0.33462 0,0.28023 0.2102,0.46702 0.2101,0.18679 0.61485,0.18679 0.40466,0 0.72374,-0.17902 0.31909,-0.17902 0.45925,-0.49033 0.10889,-0.23351 0.10889,-0.70043 z m 4.49465,0.56037 0.68489,0.0778 q -0.10899,0.71597 -0.576,1.12072 -0.46692,0.40466 -1.13627,0.40466 -0.85613,0 -1.36977,-0.55259 -0.51365,-0.55249 -0.51365,-1.59542 0,-0.66934 0.22574,-1.16744 0.22564,-0.4981 0.67702,-0.75492 0.45148,-0.25682 0.98066,-0.25682 0.66935,0 1.09741,0.34239 0.42807,0.34249 0.5526,0.96512 l -0.68489,0.10898 q -0.0934,-0.42029 -0.34249,-0.63049 -0.24905,-0.2101 -0.59145,-0.2101 -0.52928,0 -0.8639,0.38135 -0.33473,0.38134 -0.33473,1.20639 0,0.82496 0.31909,1.2063 0.31918,0.38135 0.83282,0.38135 0.4203,0 0.69266,-0.25682 0.27236,-0.25682 0.35026,-0.77046 z m 4.12487,0.17114 0.71597,0.0935 q -0.17115,0.63816 -0.6304,0.98843 -0.45915,0.35016 -1.19076,0.35016 -0.90275,0 -1.43203,-0.56036 -0.52919,-0.56036 -0.52919,-1.57211 0,-1.04292 0.53696,-1.61882 0.53705,-0.5759 1.39318,-0.5759 0.82495,0 1.35414,0.56813 0.52928,0.56813 0.52928,1.59551 0,0.0623 -0.0155,0.18679 h -3.08205 q 0.0467,0.66925 0.38912,1.03505 0.34249,0.36581 0.87167,0.36581 0.37358,0 0.64604,-0.20233 0.27236,-0.20233 0.44361,-0.65381 z m -2.30372,-1.12072 h 2.30372 q -0.0467,-0.52918 -0.26459,-0.79377 -0.32696,-0.40476 -0.87168,-0.40476 -0.48256,0 -0.80941,0.32685 -0.32695,0.32696 -0.35804,0.87168 z"
         style="font-size:10px;font-family:sans-serif;stroke:none;stroke-width:0.4981"
         id="path306" />
      <path
         d="m 430.31747,319.73361 v -5.71251 h 0.70043 v 3.25319 l 1.66555,-1.68109 h 0.90275 l -1.58764,1.54102 1.74335,2.59939 h -0.85614 l -1.36977,-2.11693 -0.4981,0.48256 v 1.63437 z m 6.67763,-0.51365 q -0.38912,0.32686 -0.74715,0.46702 -0.35804,0.14007 -0.77823,0.14007 -0.66935,0 -1.03515,-0.33472 -0.36581,-0.33463 -0.36581,-0.84827 0,-0.31131 0.1323,-0.56036 0.13229,-0.24905 0.35803,-0.39699 0.22574,-0.14783 0.50587,-0.22564 0.20233,-0.0623 0.62263,-0.10898 0.85613,-0.10898 1.24525,-0.24905 0.0155,-0.14007 0.0155,-0.17125 0,-0.43583 -0.20233,-0.60698 -0.26459,-0.23351 -0.79387,-0.23351 -0.4981,0 -0.73151,0.17125 -0.23351,0.17114 -0.35804,0.60698 l -0.68488,-0.0933 q 0.0933,-0.43584 0.31131,-0.7083 0.21787,-0.27236 0.62262,-0.4202 0.40466,-0.14793 0.93394,-0.14793 0.52918,0 0.86391,0.12452 0.33462,0.12453 0.49032,0.31908 0.15561,0.19466 0.21787,0.47479 0.0312,0.18679 0.0312,0.65381 v 0.93394 q 0,0.96501 0.0466,1.22961 0.0467,0.26469 0.17124,0.4981 h -0.73161 q -0.10888,-0.21787 -0.14006,-0.51365 z m -0.0623,-1.55656 q -0.37358,0.15571 -1.13627,0.26459 -0.43584,0.0623 -0.61485,0.14017 -0.17902,0.0778 -0.27237,0.22564 -0.0934,0.14793 -0.0934,0.33472 0,0.28013 0.2101,0.46692 0.2102,0.18679 0.61485,0.18679 0.40476,0 0.72384,-0.17902 0.31909,-0.17902 0.45915,-0.49033 0.10899,-0.23341 0.10899,-0.70043 z m 1.78618,2.07021 v -5.71251 h 0.70043 v 5.71251 z m 1.77055,0 V 314.0211 H 441.19 v 5.71251 z m 1.50595,-1.22961 0.68489,-0.10899 q 0.0623,0.40466 0.32696,0.6304 0.26459,0.22574 0.74715,0.22574 0.48245,0 0.71596,-0.19466 0.23351,-0.19456 0.23351,-0.45915 0,-0.24905 -0.20232,-0.37358 -0.14017,-0.0933 -0.71607,-0.24905 -0.77823,-0.18678 -1.07401,-0.32685 -0.29577,-0.14006 -0.45137,-0.39698 -0.15571,-0.25682 -0.15571,-0.5525 0,-0.28023 0.13229,-0.51374 0.1323,-0.23341 0.35027,-0.38911 0.1556,-0.12453 0.43584,-0.2101 0.28013,-0.0857 0.60708,-0.0857 0.48246,0 0.85603,0.14016 0.37358,0.14007 0.54483,0.38135 0.17124,0.24128 0.23351,0.64593 l -0.68489,0.0935 q -0.0467,-0.32696 -0.26459,-0.50597 -0.21797,-0.17892 -0.63827,-0.17892 -0.48246,0 -0.68489,0.16338 -0.20232,0.16347 -0.20232,0.38134 0,0.12453 0.0778,0.23351 0.0934,0.12452 0.28023,0.18679 0.0933,0.0467 0.60709,0.18678 0.74715,0.20233 1.04282,0.32686 0.29577,0.12452 0.45925,0.3658 0.16337,0.24128 0.16337,0.59932 0,0.34239 -0.20233,0.6537 -0.20232,0.31132 -0.58367,0.48256 -0.38134,0.17125 -0.87944,0.17125 -0.79388,0 -1.22194,-0.33472 -0.42807,-0.33463 -0.53706,-0.98833 z m 4.23385,2.81735 -0.0778,-0.65381 q 0.23351,0.0623 0.40476,0.0623 0.23341,0 0.37357,-0.0778 0.14007,-0.0778 0.21787,-0.21787 0.0778,-0.10898 0.21797,-0.51374 0.0155,-0.0623 0.0623,-0.17114 l -1.5722,-4.15605 h 0.76279 l 0.85603,2.39706 q 0.17125,0.45147 0.29578,0.96511 0.12452,-0.48256 0.29577,-0.94947 l 0.88721,-2.4127 h 0.70043 l -1.5721,4.21831 q -0.26459,0.66925 -0.40466,0.93394 -0.18678,0.34239 -0.42806,0.50587 -0.24128,0.16337 -0.56814,0.16337 -0.20243,0 -0.45148,-0.0933 z m 4.01599,-1.58774 v -4.14041 h 0.62262 v 0.59144 q 0.20233,-0.31131 0.52141,-0.4981 0.31908,-0.18678 0.73938,-0.18678 0.45138,0 0.74715,0.19455 0.29577,0.19466 0.4203,0.53705 0.48256,-0.7316 1.27633,-0.7316 0.60708,0 0.94171,0.34249 0.33472,0.34239 0.33472,1.05846 v 2.8329 h -0.70043 v -2.59939 q 0,-0.4203 -0.0701,-0.60708 -0.07,-0.18679 -0.24905,-0.30355 -0.17892,-0.11675 -0.41243,-0.11675 -0.43583,0 -0.72384,0.29577 -0.2879,0.29577 -0.2879,0.93394 v 2.39706 h -0.70053 v -2.69283 q 0,-0.46692 -0.17114,-0.70043 -0.17125,-0.23351 -0.56036,-0.23351 -0.29578,0 -0.5526,0.15571 -0.25682,0.1556 -0.3658,0.45914 -0.10899,0.30355 -0.10899,0.86391 v 2.14801 z m 6.35854,-1.22961 0.68489,-0.10899 q 0.0623,0.40466 0.32685,0.6304 0.26459,0.22574 0.74715,0.22574 0.48256,0 0.71607,-0.19466 0.23341,-0.19456 0.23341,-0.45915 0,-0.24905 -0.20233,-0.37358 -0.14006,-0.0933 -0.71597,-0.24905 -0.77833,-0.18678 -1.0741,-0.32685 -0.29567,-0.14006 -0.45138,-0.39698 -0.1556,-0.25682 -0.1556,-0.5525 0,-0.28023 0.13229,-0.51374 0.1323,-0.23341 0.35017,-0.38911 0.1557,-0.12453 0.43583,-0.2101 0.28023,-0.0857 0.60709,-0.0857 0.48256,0 0.85613,0.14016 0.37358,0.14007 0.54482,0.38135 0.17115,0.24128 0.23341,0.64593 l -0.68488,0.0935 q -0.0466,-0.32696 -0.2646,-0.50597 -0.21786,-0.17892 -0.63816,-0.17892 -0.48256,0 -0.68489,0.16338 -0.20233,0.16347 -0.20233,0.38134 0,0.12453 0.0778,0.23351 0.0933,0.12452 0.28013,0.18679 0.0934,0.0467 0.60708,0.18678 0.74715,0.20233 1.04292,0.32686 0.29578,0.12452 0.45915,0.3658 0.16348,0.24128 0.16348,0.59932 0,0.34239 -0.20233,0.6537 -0.20243,0.31132 -0.58377,0.48256 -0.38135,0.17125 -0.87945,0.17125 -0.79387,0 -1.22184,-0.33472 -0.42806,-0.33463 -0.53705,-0.98833 z m 3.61123,2.81735 v -0.51364 h 4.65414 v 0.51364 z m 5.07045,-1.58774 v -5.71251 h 0.70053 v 5.71251 z m 1.5216,-2.07021 q 0,-1.1518 0.63817,-1.69663 0.52928,-0.46701 1.30751,-0.46701 0.84059,0 1.38531,0.56036 0.54483,0.56036 0.54483,1.54102 0,0.80941 -0.24128,1.26079 -0.24128,0.45148 -0.70043,0.7083 -0.45915,0.25682 -0.98843,0.25682 -0.87168,0 -1.40873,-0.56036 -0.53695,-0.56037 -0.53695,-1.60329 z m 0.71597,0 q 0,0.79387 0.35026,1.19076 0.35027,0.39699 0.87945,0.39699 0.51364,0 0.8639,-0.39699 0.35027,-0.39689 0.35027,-1.2063 0,-0.77833 -0.35027,-1.16745 -0.35026,-0.38911 -0.8639,-0.38911 -0.52918,0 -0.87945,0.38911 -0.35026,0.38912 -0.35026,1.18299 z m 3.71632,0 q 0,-1.1518 0.63817,-1.69663 0.52928,-0.46701 1.30751,-0.46701 0.8406,0 1.38542,0.56036 0.54472,0.56036 0.54472,1.54102 0,0.80941 -0.24128,1.26079 -0.24118,0.45148 -0.70043,0.7083 -0.45915,0.25682 -0.98843,0.25682 -0.87167,0 -1.40862,-0.56036 -0.53706,-0.56037 -0.53706,-1.60329 z m 0.71607,0 q 0,0.79387 0.35017,1.19076 0.35026,0.39699 0.87944,0.39699 0.51374,0 0.86391,-0.39699 0.35026,-0.39689 0.35026,-1.2063 0,-0.77833 -0.35026,-1.16745 -0.35017,-0.38911 -0.86391,-0.38911 -0.52918,0 -0.87944,0.38911 -0.35017,0.38912 -0.35017,1.18299 z m 3.98082,2.07021 v -5.71251 h 0.70053 v 3.25319 l 1.66544,-1.68109 h 0.90286 l -1.58774,1.54102 1.74335,2.59939 h -0.85604 l -1.36977,-2.11693 -0.4981,0.48256 v 1.63437 z m 6.69327,0 v -0.60699 q -0.48256,0.70043 -1.30752,0.70043 -0.37357,0 -0.69265,-0.14007 -0.31909,-0.14016 -0.46702,-0.35026 -0.14784,-0.2101 -0.2101,-0.52141 -0.0467,-0.20243 -0.0467,-0.65381 v -2.5683 h 0.70043 v 2.30371 q 0,0.54482 0.0467,0.73161 0.0623,0.28013 0.27246,0.43584 0.2101,0.1556 0.53695,0.1556 0.31131,0 0.58377,-0.16347 0.27236,-0.16338 0.38912,-0.43584 0.11675,-0.27236 0.11675,-0.80154 v -2.22591 h 0.70043 v 4.14041 z m 1.72392,1.58774 v -5.72815 h 0.63817 v 0.54482 q 0.21786,-0.31131 0.50587,-0.47479 0.288,-0.16347 0.69265,-0.16347 0.52929,0 0.93394,0.27246 0.40476,0.27236 0.60709,0.77046 0.20232,0.4981 0.20232,1.08964 0,0.63817 -0.22564,1.14404 -0.22573,0.50587 -0.66157,0.77823 -0.43584,0.27246 -0.90286,0.27246 -0.35793,0 -0.63816,-0.14794 -0.28013,-0.14783 -0.45138,-0.38134 v 2.02358 z m 0.63817,-3.62677 q 0,0.79378 0.31908,1.17512 0.31908,0.38145 0.7861,0.38145 0.46692,0 0.79377,-0.39699 0.32696,-0.39689 0.32696,-1.22184 0,-0.79387 -0.31909,-1.18299 -0.31918,-0.38921 -0.77056,-0.38921 -0.45138,0 -0.79387,0.41252 -0.34239,0.41253 -0.34239,1.22194 z m 3.14032,3.62677 v -0.51364 h 4.65414 v 0.51364 z m 5.0861,-1.58774 v -4.14041 h 0.62262 v 0.59144 q 0.46702,-0.68488 1.32305,-0.68488 0.37358,0 0.68489,0.14016 0.31131,0.14007 0.46702,0.35794 0.15561,0.21796 0.21787,0.51374 0.0467,0.18678 0.0467,0.68488 v 2.53713 h -0.70043 v -2.52159 q 0,-0.42029 -0.0857,-0.63039 -0.0856,-0.2102 -0.29567,-0.34249 -0.2102,-0.1323 -0.49033,-0.1323 -0.43584,0 -0.76269,0.288 -0.32696,0.2879 -0.32696,1.08177 v 2.257 z m 7.12512,-0.51365 q -0.38912,0.32686 -0.74715,0.46702 -0.35794,0.14007 -0.77823,0.14007 -0.66935,0 -1.03516,-0.33472 -0.3658,-0.33463 -0.3658,-0.84827 0,-0.31131 0.1324,-0.56036 0.13229,-0.24905 0.35793,-0.39699 0.22574,-0.14783 0.50587,-0.22564 0.20243,-0.0623 0.62263,-0.10898 0.85613,-0.10898 1.24525,-0.24905 0.0156,-0.14007 0.0156,-0.17125 0,-0.43583 -0.20243,-0.60698 -0.26459,-0.23351 -0.79377,-0.23351 -0.4981,0 -0.73161,0.17125 -0.23351,0.17114 -0.35804,0.60698 l -0.68489,-0.0933 q 0.0935,-0.43584 0.31132,-0.7083 0.21797,-0.27236 0.62262,-0.4202 0.40476,-0.14793 0.93394,-0.14793 0.52928,0 0.8639,0.12452 0.33463,0.12453 0.49033,0.31908 0.15561,0.19466 0.21787,0.47479 0.0312,0.18679 0.0312,0.65381 v 0.93394 q 0,0.96501 0.0467,1.22961 0.0466,0.26469 0.17114,0.4981 h -0.73151 q -0.10898,-0.21787 -0.14016,-0.51365 z m -0.0623,-1.55656 q -0.37358,0.15571 -1.13627,0.26459 -0.43584,0.0623 -0.61486,0.14017 -0.17901,0.0778 -0.27236,0.22564 -0.0934,0.14793 -0.0934,0.33472 0,0.28013 0.2102,0.46692 0.2101,0.18679 0.61485,0.18679 0.40466,0 0.72374,-0.17902 0.31909,-0.17902 0.45925,-0.49033 0.10889,-0.23341 0.10889,-0.70043 z m 1.80172,2.07021 v -4.14041 h 0.62263 v 0.59144 q 0.20243,-0.31131 0.52151,-0.4981 0.31908,-0.18678 0.73938,-0.18678 0.45138,0 0.74715,0.19455 0.29567,0.19466 0.42019,0.53705 0.48256,-0.7316 1.27644,-0.7316 0.60708,0 0.9417,0.34249 0.33463,0.34239 0.33463,1.05846 v 2.8329 h -0.70043 v -2.59939 q 0,-0.4203 -0.07,-0.60708 -0.07,-0.18679 -0.24905,-0.30355 -0.17902,-0.11675 -0.41253,-0.11675 -0.43584,0 -0.72374,0.29577 -0.288,0.29577 -0.288,0.93394 v 2.39706 h -0.70043 v -2.69283 q 0,-0.46692 -0.17125,-0.70043 -0.17124,-0.23351 -0.56036,-0.23351 -0.29577,0 -0.55259,0.15571 -0.25682,0.1556 -0.36581,0.45914 -0.10888,0.30355 -0.10888,0.86391 v 2.14801 z m 9.47177,-1.3386 0.71597,0.0933 q -0.17125,0.63826 -0.63039,0.98843 -0.45915,0.35026 -1.19076,0.35026 -0.90286,0 -1.43204,-0.56036 -0.52928,-0.56037 -0.52928,-1.57211 0,-1.04292 0.53705,-1.61882 0.53705,-0.576 1.39309,-0.576 0.82505,0 1.35423,0.56813 0.52928,0.56823 0.52928,1.59551 0,0.0623 -0.0156,0.18679 h -3.08194 q 0.0467,0.66935 0.38911,1.03515 0.3425,0.36581 0.87168,0.36581 0.37357,0 0.64593,-0.20243 0.27247,-0.20233 0.44371,-0.65371 z m -2.30371,-1.12072 h 2.30371 q -0.0467,-0.52928 -0.26469,-0.79388 -0.32685,-0.40465 -0.87167,-0.40465 -0.48246,0 -0.80942,0.32685 -0.32685,0.32685 -0.35793,0.87168 z"
         style="font-size:10px;font-family:sans-serif;stroke:none;stroke-width:0.4981"
         id="path308" />
      <path
         d="m 481.96416,195.37985 h 0.68489 v 4.52962 l 3.03532,-4.52962 h 0.76269 v 5.71261 h -0.68488 v -4.51408 l -3.03523,4.51408 h -0.76279 z m 5.63481,1.57211 h 0.70043 v 1.7278 h 1.94568 v -1.7278 h 0.70052 v 4.1405 h -0.70052 v -1.83679 h -1.94568 v 1.83679 h -0.70043 z m 6.79827,-1.57211 h 0.70043 v 1.97686 q 0.21797,-0.24905 0.48256,-0.37357 0.26459,-0.12453 0.56036,-0.12453 0.73161,0 1.16745,0.61486 0.43583,0.61485 0.43583,1.54879 0,0.96502 -0.46702,1.56433 -0.46691,0.59922 -1.1518,0.59922 -0.23351,0 -0.46702,-0.07 -0.23351,-0.07 -0.56036,-0.38134 v 1.94568 h -0.70043 v -1.94568 q -0.20233,0.21797 -0.45915,0.33462 -0.25692,0.11676 -0.55259,0.11676 -0.65381,0 -1.13637,-0.56814 -0.48246,-0.56813 -0.48246,-1.64213 0,-0.88722 0.43584,-1.50207 0.43584,-0.61486 1.18299,-0.61486 0.31131,0 0.56813,0.12453 0.25682,0.12452 0.44361,0.37357 z m 0.70043,3.65795 q 0,0.93394 0.25682,1.25302 0.25682,0.31908 0.64603,0.31908 0.4202,0 0.72374,-0.38911 0.30354,-0.38912 0.30354,-1.22971 0,-0.77823 -0.28013,-1.16745 -0.28023,-0.38912 -0.71607,-0.38912 -0.46691,0 -0.70042,0.40476 -0.23351,0.40466 -0.23351,1.19853 z m -2.61503,-0.0778 q 0,0.87167 0.288,1.26079 0.28791,0.38911 0.72374,0.38911 0.46702,0 0.69276,-0.38134 0.22564,-0.38135 0.22564,-1.15968 0,-0.80941 -0.24128,-1.22184 -0.24128,-0.41253 -0.72374,-0.41253 -0.4203,0 -0.69266,0.40476 -0.27246,0.40466 -0.27246,1.12073 z m 5.80994,0.0623 q 0,-1.15191 0.63817,-1.69673 0.52918,-0.46692 1.30751,-0.46692 0.84049,0 1.38531,0.56036 0.54483,0.56037 0.54483,1.54103 0,0.80941 -0.24128,1.26079 -0.24128,0.45137 -0.70043,0.7082 -0.45925,0.25682 -0.98843,0.25682 -0.87168,0 -1.40873,-0.56037 -0.53695,-0.56036 -0.53695,-1.60318 z m 0.71597,0 q 0,0.79377 0.35026,1.19076 0.35017,0.39688 0.87945,0.39688 0.51364,0 0.8639,-0.39688 0.35017,-0.39699 0.35017,-1.2064 0,-0.77823 -0.35017,-1.16735 -0.35026,-0.38921 -0.8639,-0.38921 -0.52928,0 -0.87945,0.38921 -0.35026,0.38912 -0.35026,1.18299 z m 3.98091,3.65785 V 196.952 h 0.63817 v 0.54482 q 0.21797,-0.31132 0.50587,-0.47479 0.288,-0.16338 0.69266,-0.16338 0.52928,0 0.93394,0.27236 0.40475,0.27246 0.60708,0.77056 0.20233,0.4981 0.20233,1.08955 0,0.63816 -0.22564,1.14403 -0.22574,0.50597 -0.66158,0.77833 -0.43584,0.27237 -0.90275,0.27237 -0.35804,0 -0.63827,-0.14784 -0.28013,-0.14784 -0.45138,-0.38135 v 2.02349 z m 0.63817,-3.62677 q 0,0.79387 0.31908,1.17522 0.31909,0.38134 0.7861,0.38134 0.46692,0 0.79388,-0.39688 0.32685,-0.39699 0.32685,-1.22194 0,-0.79387 -0.31908,-1.18299 -0.31909,-0.38912 -0.77056,-0.38912 -0.45138,0 -0.79378,0.41243 -0.34249,0.41253 -0.34249,1.22194 z m 3.80967,-2.10138 h 1.08964 l 1.08954,3.31555 1.19863,-3.31555 h 1.01174 v 4.1405 h -0.70042 v -3.33109 l -1.21417,3.33109 h -0.63817 l -1.15191,-3.4867 v 3.4867 h -0.68488 z m 8.15638,3.62686 q -0.38911,0.32685 -0.74715,0.46692 -0.35793,0.14007 -0.77823,0.14007 -0.66934,0 -1.03515,-0.33463 -0.3658,-0.33462 -0.3658,-0.84836 0,-0.31131 0.13239,-0.56036 0.1323,-0.24905 0.35794,-0.39689 0.22574,-0.14784 0.50587,-0.22574 0.20243,-0.0623 0.62262,-0.10888 0.85614,-0.10899 1.24525,-0.24905 0.0156,-0.14017 0.0156,-0.17125 0,-0.43584 -0.20243,-0.60709 -0.26459,-0.2335 -0.79377,-0.2335 -0.4981,0 -0.73161,0.17124 -0.23351,0.17125 -0.35803,0.60709 l -0.68489,-0.0934 q 0.0934,-0.43583 0.31131,-0.7082 0.21797,-0.27236 0.62263,-0.42029 0.40476,-0.14784 0.93394,-0.14784 0.52928,0 0.8639,0.12453 0.33462,0.12452 0.49033,0.31908 0.15561,0.19456 0.21787,0.47479 0.0312,0.18679 0.0312,0.6537 v 0.93394 q 0,0.96512 0.0467,1.22971 0.0466,0.26459 0.17115,0.4981 h -0.73151 q -0.10898,-0.21797 -0.14017,-0.51364 z m -0.0623,-1.55656 q -0.37357,0.1556 -1.13626,0.26459 -0.43584,0.0623 -0.61486,0.14006 -0.17902,0.0778 -0.27236,0.22574 -0.0934,0.14784 -0.0934,0.33463 0,0.28023 0.2102,0.46702 0.21009,0.18678 0.61485,0.18678 0.40466,0 0.72374,-0.17901 0.31908,-0.17902 0.45925,-0.49033 0.10888,-0.23351 0.10888,-0.70043 z m 1.81737,-2.0703 h 0.70043 v 3.5646 h 1.93014 v -3.5646 h 0.70042 v 3.5646 h 0.45138 v 1.74335 h -0.5759 v -1.16745 h -3.20647 z m 4.54905,0 h 0.70043 v 3.15984 l 1.94567,-3.15984 h 0.74715 v 4.1405 h -0.70042 v -3.12866 l -1.94568,3.12866 h -0.74715 z m 7.70491,0 v 4.1405 h -0.70043 v -1.61882 h -0.40466 q -0.37357,0 -0.55259,0.10111 -0.17902,0.10121 -0.52151,0.61486 l -0.60698,0.90285 h -0.87168 l 0.74715,-1.12072 q 0.35793,-0.4981 0.70043,-0.57591 -0.60709,-0.0779 -0.89499,-0.42806 -0.288,-0.35027 -0.288,-0.80165 0,-0.54482 0.38135,-0.87944 0.38134,-0.33472 1.09741,-0.33472 z m -0.70043,0.59154 h -0.9962 q -0.62263,0 -0.80164,0.19456 -0.17902,0.19455 -0.17902,0.4436 0,0.37358 0.26469,0.54483 0.26459,0.17124 0.93394,0.17124 h 0.77823 z m 3.71244,1.47876 q 0,-1.15191 0.63816,-1.69673 0.52928,-0.46692 1.30752,-0.46692 0.84059,0 1.38531,0.56036 0.54482,0.56037 0.54482,1.54103 0,0.80941 -0.24128,1.26079 -0.24128,0.45137 -0.70042,0.7082 -0.45915,0.25682 -0.98843,0.25682 -0.87168,0 -1.40873,-0.56037 -0.53695,-0.56036 -0.53695,-1.60318 z m 0.71597,0 q 0,0.79377 0.35026,1.19076 0.35026,0.39688 0.87945,0.39688 0.51364,0 0.8639,-0.39688 0.35026,-0.39699 0.35026,-1.2064 0,-0.77823 -0.35026,-1.16735 -0.35026,-0.38921 -0.8639,-0.38921 -0.52919,0 -0.87945,0.38921 -0.35026,0.38912 -0.35026,1.18299 z"
         style="font-size:10px;font-family:sans-serif;stroke:none;stroke-width:0.4981"
         id="path310" />
      <path
         d="m 475.84491,206.97622 h 1.61882 q 0.59154,0 0.87955,0.10121 0.2879,0.10122 0.4981,0.36581 0.21009,0.26459 0.21009,0.63816 0,0.29577 -0.12452,0.51364 -0.12453,0.21797 -0.35803,0.37358 0.28023,0.0934 0.47478,0.35803 0.19456,0.26459 0.19456,0.63817 -0.0312,0.576 -0.41252,0.8639 -0.38135,0.288 -1.11296,0.288 h -1.86787 z m 0.70052,1.74335 h 0.74715 q 0.45138,0 0.61486,-0.0466 0.16338,-0.0467 0.29567,-0.18679 0.1323,-0.14017 0.1323,-0.3425 0,-0.32685 -0.22564,-0.45137 -0.22574,-0.12453 -0.7861,-0.12453 h -0.77824 z m 0,1.82125 h 0.9183 q 0.60709,0 0.82505,-0.14016 0.21787,-0.14007 0.23351,-0.48246 0,-0.18679 -0.13239,-0.35804 -0.1323,-0.17125 -0.33463,-0.21797 -0.20232,-0.0466 -0.6537,-0.0466 h -0.85614 z m 7.4715,-3.5646 h 0.70043 v 4.1405 h -0.70043 z m -3.92253,0 h 0.70042 v 1.61882 h 0.88722 q 0.87168,0 1.33869,0.33473 0.46692,0.33462 0.46692,0.92616 0,0.52918 -0.38911,0.89499 -0.38912,0.3658 -1.26079,0.3658 h -1.74335 z m 0.70042,3.5646 h 0.73161 q 0.66925,0 0.94948,-0.16348 0.28023,-0.16347 0.28023,-0.50587 0,-0.28023 -0.21019,-0.49033 -0.2101,-0.21009 -0.92617,-0.21009 h -0.82496 z m 5.93048,-1.29197 v -0.54482 q 0.43584,-0.0155 0.59932,-0.0467 0.16347,-0.0311 0.30354,-0.18679 0.14006,-0.15561 0.14006,-0.38912 0,-0.28013 -0.18678,-0.45138 -0.18679,-0.17124 -0.48256,-0.17124 -0.59145,0 -0.82496,0.70043 l -0.66934,-0.10889 q 0.31131,-1.16745 1.4943,-1.16745 0.66934,0 1.04292,0.36581 0.37357,0.3658 0.37357,0.8639 0,0.51364 -0.48255,0.80942 0.31131,0.17114 0.46701,0.42796 0.15561,0.25692 0.15561,0.61486 0,0.54482 -0.40466,0.89508 -0.40475,0.35017 -1.13626,0.35017 -1.4165,0 -1.63447,-1.26079 l 0.65381,-0.14007 q 0.0933,0.40466 0.3658,0.62263 0.27236,0.21787 0.6304,0.21787 0.34239,0 0.58367,-0.20233 0.24128,-0.20233 0.24128,-0.51364 0,-0.24905 -0.14783,-0.42807 -0.14794,-0.17902 -0.31909,-0.21797 -0.17124,-0.0388 -0.60708,-0.0388 -0.0312,0 -0.15571,0 z m 2.47108,-0.20233 q 0,-1.15191 0.63816,-1.69673 0.52928,-0.46692 1.30752,-0.46692 0.84059,0 1.38531,0.56037 0.54482,0.56036 0.54482,1.54102 0,0.80941 -0.24128,1.26079 -0.24128,0.45138 -0.70042,0.7082 -0.45915,0.25682 -0.98843,0.25682 -0.87168,0 -1.40863,-0.56036 -0.53705,-0.56037 -0.53705,-1.60319 z m 0.71597,0 q 0,0.79377 0.35026,1.19076 0.35026,0.39688 0.87945,0.39688 0.51364,0 0.8639,-0.39688 0.35026,-0.39699 0.35026,-1.2064 0,-0.77823 -0.35026,-1.16735 -0.35026,-0.38921 -0.8639,-0.38921 -0.52919,0 -0.87945,0.38921 -0.35026,0.38912 -0.35026,1.18299 z m 3.98091,-2.0703 h 1.61883 q 0.59154,0 0.87944,0.10121 0.288,0.10122 0.4981,0.36581 0.2102,0.26459 0.2102,0.63816 0,0.29577 -0.12453,0.51364 -0.12452,0.21797 -0.35803,0.37358 0.28023,0.0934 0.47479,0.35803 0.19456,0.26459 0.19456,0.63817 -0.0312,0.576 -0.41253,0.8639 -0.38134,0.288 -1.11295,0.288 h -1.86788 z m 0.70053,1.74335 h 0.74715 q 0.45138,0 0.61485,-0.0466 0.16338,-0.0467 0.29568,-0.18679 0.13229,-0.14017 0.13229,-0.3425 0,-0.32685 -0.22564,-0.45137 -0.22574,-0.12453 -0.7861,-0.12453 h -0.77823 z m 0,1.82125 h 0.9183 q 0.60708,0 0.82505,-0.14016 0.21787,-0.14007 0.23341,-0.48246 0,-0.18679 -0.1323,-0.35804 -0.13229,-0.17125 -0.33462,-0.21797 -0.20233,-0.0466 -0.65381,-0.0466 h -0.85603 z m 6.36631,-0.76279 0.71597,0.0934 q -0.17114,0.63817 -0.63039,0.98843 -0.45915,0.35017 -1.19076,0.35017 -0.90276,0 -1.43204,-0.56036 -0.52918,-0.56037 -0.52918,-1.57211 0,-1.04292 0.53695,-1.61882 0.53705,-0.57591 1.39319,-0.57591 0.82495,0 1.35413,0.56814 0.52928,0.56813 0.52928,1.59551 0,0.0623 -0.0155,0.18679 h -3.08204 q 0.0467,0.66925 0.38912,1.03505 0.34249,0.3658 0.87167,0.3658 0.37358,0 0.64604,-0.20232 0.27236,-0.20233 0.4436,-0.65381 z m -2.30371,-1.12072 h 2.30371 q -0.0467,-0.52919 -0.26459,-0.79378 -0.32695,-0.40475 -0.87167,-0.40475 -0.48256,0 -0.80941,0.32685 -0.32696,0.32695 -0.35804,0.87168 z m 8.51442,-3.2532 h 0.70043 v 1.97686 q 0.21787,-0.24905 0.48256,-0.37357 0.26459,-0.12453 0.56036,-0.12453 0.73151,0 1.16735,0.61486 0.43584,0.61485 0.43584,1.54879 0,0.96502 -0.46692,1.56433 -0.46702,0.59922 -1.15191,0.59922 -0.23341,0 -0.46692,-0.07 -0.2335,-0.07 -0.56036,-0.38135 v 1.94568 h -0.70043 v -1.94568 q -0.20242,0.21797 -0.45924,0.33462 -0.25682,0.11676 -0.5526,0.11676 -0.6537,0 -1.13626,-0.56813 -0.48256,-0.56814 -0.48256,-1.64214 0,-0.88722 0.43584,-1.50207 0.43583,-0.61486 1.18298,-0.61486 0.31132,0 0.56814,0.12453 0.25692,0.12452 0.4437,0.37357 z m 0.70043,3.65795 q 0,0.93394 0.25682,1.25302 0.25682,0.31908 0.64594,0.31908 0.4203,0 0.72384,-0.38911 0.30354,-0.38912 0.30354,-1.22971 0,-0.77823 -0.28023,-1.16745 -0.28013,-0.38911 -0.71597,-0.38911 -0.46702,0 -0.70043,0.40475 -0.23351,0.40466 -0.23351,1.19853 z m -2.61502,-0.0778 q 0,0.87167 0.288,1.26079 0.2879,0.38911 0.72374,0.38911 0.46702,0 0.69266,-0.38134 0.22573,-0.38135 0.22573,-1.15968 0,-0.80941 -0.24128,-1.22184 -0.24127,-0.41252 -0.72383,-0.41252 -0.4202,0 -0.69266,0.40475 -0.27236,0.40466 -0.27236,1.12073 z m 6.04334,3.72011 -0.0778,-0.65371 q 0.23341,0.0623 0.40466,0.0623 0.23351,0 0.37357,-0.0778 0.14007,-0.0779 0.21797,-0.21797 0.0778,-0.10898 0.21787,-0.51364 0.0155,-0.0623 0.0623,-0.17125 l -1.5721,-4.15604 h 0.76269 l 0.85613,2.39715 q 0.17125,0.45138 0.29578,0.96502 0.12452,-0.48246 0.29567,-0.94948 l 0.88731,-2.41269 h 0.70043 l -1.5721,4.21831 q -0.26469,0.66934 -0.40476,0.93393 -0.18678,0.3425 -0.42806,0.50588 -0.24128,0.16347 -0.56814,0.16347 -0.20233,0 -0.45138,-0.0934 z m 4.01589,-5.72815 h 0.70052 v 1.72781 h 1.94568 v -1.72781 h 0.70043 v 4.1405 h -0.70043 v -1.83679 h -1.94568 v 1.83679 h -0.70052 z m 4.40121,0 h 0.70043 v 1.79007 q 0.32695,0 0.45924,-0.12453 0.1323,-0.12452 0.39689,-0.74715 0.20233,-0.4981 0.33472,-0.6537 0.1323,-0.15571 0.29568,-0.2102 0.16347,-0.0545 0.53705,-0.0545 h 0.14006 v 0.59154 l -0.18678,-0.0155 q -0.28014,0 -0.35804,0.0933 -0.0778,0.0778 -0.24905,0.4981 -0.15561,0.40476 -0.2879,0.56037 -0.1323,0.1557 -0.41253,0.29577 0.45138,0.10898 0.88722,0.84049 l 0.76279,1.27643 h -0.76279 l -0.74715,-1.27643 q -0.23341,-0.38911 -0.40466,-0.51364 -0.17124,-0.12452 -0.40475,-0.12452 v 1.91459 h -0.70043 z m 3.50224,0 h 0.70053 v 3.5646 h 1.93013 v -3.5646 h 0.70043 v 3.5646 h 0.45138 v 1.74335 h -0.5759 v -1.16745 h -3.20657 z m 4.54905,0 h 0.70052 v 3.15984 l 1.94568,-3.15984 h 0.74715 v 4.1405 h -0.70043 v -3.12866 l -1.94577,3.12866 h -0.74715 z m 4.45181,0 h 0.70043 v 3.15984 l 1.94568,-3.15984 h 0.74715 v 4.1405 h -0.70043 v -3.12866 l -1.94568,3.12866 h -0.74715 z m 6.66598,0 h 0.70043 v 3.15984 l 1.94577,-3.15984 h 0.74715 v 4.1405 h -0.70052 v -3.12866 l -1.94568,3.12866 h -0.74715 z"
         style="font-size:10px;font-family:sans-serif;stroke:none;stroke-width:0.4981"
         id="path312" />
      <path
         d="m 481.43688,217.00048 h 3.26883 v 4.14051 h -0.70043 v -3.54897 h -1.86788 v 3.54897 h -0.70052 z m 7.14853,2.80181 0.71607,0.0934 q -0.17125,0.63816 -0.6305,0.98843 -0.45915,0.35016 -1.19076,0.35016 -0.90275,0 -1.43203,-0.56036 -0.52919,-0.56036 -0.52919,-1.57211 0,-1.04292 0.53696,-1.61882 0.53705,-0.5759 1.39318,-0.5759 0.82496,0 1.35424,0.56813 0.52918,0.56813 0.52918,1.59551 0,0.0623 -0.0155,0.18679 h -3.08205 q 0.0467,0.66925 0.38922,1.03505 0.34239,0.36581 0.87167,0.36581 0.37358,0 0.64594,-0.20233 0.27236,-0.20233 0.44361,-0.65381 z m -2.30371,-1.12072 h 2.30371 q -0.0467,-0.52918 -0.26459,-0.79377 -0.32686,-0.40476 -0.87168,-0.40476 -0.48256,0 -0.80941,0.32685 -0.32685,0.32696 -0.35803,0.87168 z m 3.90311,4.04706 v -5.72815 h 0.63816 v 0.54482 q 0.21797,-0.31131 0.50587,-0.47479 0.288,-0.16337 0.69266,-0.16337 0.52928,0 0.93394,0.27236 0.40475,0.27246 0.60708,0.77056 0.20233,0.4981 0.20233,1.08954 0,0.63817 -0.22564,1.14404 -0.22574,0.50597 -0.66157,0.77833 -0.43584,0.27236 -0.90276,0.27236 -0.35804,0 -0.63827,-0.14784 -0.28013,-0.14783 -0.45137,-0.38134 v 2.02348 z m 0.63816,-3.62677 q 0,0.79388 0.31909,1.17522 0.31908,0.38135 0.7861,0.38135 0.46692,0 0.79387,-0.39689 0.32685,-0.39698 0.32685,-1.22194 0,-0.79387 -0.31908,-1.18299 -0.31908,-0.38911 -0.77056,-0.38911 -0.45138,0 -0.79377,0.41243 -0.3425,0.41252 -0.3425,1.22193 z m 6.62712,0.70043 0.71597,0.0934 q -0.17124,0.63816 -0.63039,0.98843 -0.45915,0.35016 -1.19076,0.35016 -0.90286,0 -1.43204,-0.56036 -0.52928,-0.56036 -0.52928,-1.57211 0,-1.04292 0.53705,-1.61882 0.53705,-0.5759 1.39309,-0.5759 0.82495,0 1.35423,0.56813 0.52928,0.56813 0.52928,1.59551 0,0.0623 -0.0156,0.18679 h -3.08194 q 0.0466,0.66925 0.38911,1.03505 0.3425,0.36581 0.87168,0.36581 0.37357,0 0.64594,-0.20233 0.27246,-0.20233 0.4437,-0.65381 z m -2.30381,-1.12072 h 2.30381 q -0.0467,-0.52918 -0.26469,-0.79377 -0.32685,-0.40476 -0.87167,-0.40476 -0.48246,0 -0.80941,0.32685 -0.32686,0.32696 -0.35804,0.87168 z m 4.44793,-1.68109 h 2.87962 v 3.5646 h 0.45138 v 1.74335 h -0.5759 v -1.16744 h -3.2532 v 1.16744 h -0.5759 v -1.74335 h 0.37358 q 0.73151,-1.01184 0.70042,-3.5646 z m 0.59145,0.59154 q -0.0778,2.00794 -0.62263,2.97306 h 2.22591 v -2.97306 z m 6.20682,3.03533 q -0.38911,0.32685 -0.74715,0.46691 -0.35803,0.14007 -0.77823,0.14007 -0.66935,0 -1.03515,-0.33462 -0.3658,-0.33463 -0.3658,-0.84837 0,-0.31131 0.13229,-0.56036 0.1323,-0.24905 0.35803,-0.39689 0.22574,-0.14783 0.50588,-0.22573 0.20232,-0.0623 0.62262,-0.10889 0.85613,-0.10898 1.24525,-0.24905 0.0155,-0.14016 0.0155,-0.17125 0,-0.43583 -0.20233,-0.60708 -0.26459,-0.23351 -0.79387,-0.23351 -0.4981,0 -0.73151,0.17125 -0.23351,0.17124 -0.35803,0.60708 l -0.68489,-0.0934 q 0.0933,-0.43584 0.31131,-0.7082 0.21787,-0.27236 0.62263,-0.4203 0.40465,-0.14783 0.93393,-0.14783 0.52919,0 0.86391,0.12452 0.33462,0.12453 0.49033,0.31908 0.15561,0.19456 0.21787,0.47479 0.0312,0.18679 0.0312,0.65371 v 0.93394 q 0,0.96512 0.0466,1.22971 0.0467,0.26459 0.17125,0.4981 h -0.73161 q -0.10889,-0.21797 -0.14007,-0.51364 z m -0.0623,-1.55657 q -0.37357,0.15561 -1.13627,0.26459 -0.43583,0.0623 -0.61485,0.14007 -0.17902,0.0778 -0.27236,0.22574 -0.0934,0.14783 -0.0934,0.33462 0,0.28023 0.21019,0.46702 0.2101,0.18679 0.61476,0.18679 0.40475,0 0.72384,-0.17902 0.31908,-0.17902 0.45915,-0.49033 0.10898,-0.23351 0.10898,-0.70043 z m 1.80173,-2.0703 h 0.70043 v 1.72781 h 1.94577 v -1.72781 h 0.70043 v 4.14051 h -0.70043 v -1.8368 h -1.94577 v 1.8368 h -0.70043 z m 4.40121,0 h 0.70043 v 1.72781 h 1.94568 v -1.72781 h 0.70052 v 4.14051 h -0.70052 v -1.8368 h -1.94568 v 1.8368 h -0.70043 z m 8.33929,0 h 0.70043 v 4.14051 h -0.70043 z m -3.92254,0 h 0.70043 v 1.61883 h 0.88722 q 0.87167,0 1.33869,0.33472 0.46692,0.33462 0.46692,0.92617 0,0.52918 -0.38912,0.89498 -0.38911,0.36581 -1.26079,0.36581 h -1.74335 z m 0.70043,3.5646 h 0.73161 q 0.66925,0 0.94948,-0.16347 0.28013,-0.16348 0.28013,-0.50587 0,-0.28023 -0.2101,-0.49033 -0.2101,-0.2101 -0.92617,-0.2101 h -0.82495 z m 4.54516,0.57591 1.50984,-2.14811 -1.40085,-1.9924 h 0.87167 l 0.63817,0.98066 q 0.18678,0.26459 0.29577,0.45138 0.17115,-0.24905 0.31131,-0.45138 l 0.70043,-0.98066 h 0.82495 l -1.41649,1.94578 1.52548,2.19473 h -0.85614 l -0.84049,-1.29198 -0.23351,-0.34239 -1.08964,1.63437 z m 9.49897,-1.3387 0.71597,0.0934 q -0.17125,0.63816 -0.6304,0.98843 -0.45915,0.35016 -1.19076,0.35016 -0.90285,0 -1.43203,-0.56036 -0.52928,-0.56036 -0.52928,-1.57211 0,-1.04292 0.53705,-1.61882 0.53705,-0.5759 1.39308,-0.5759 0.82496,0 1.35424,0.56813 0.52928,0.56813 0.52928,1.59551 0,0.0623 -0.0156,0.18679 h -3.08195 q 0.0466,0.66925 0.38912,1.03505 0.34249,0.36581 0.87167,0.36581 0.37358,0 0.64594,-0.20233 0.27246,-0.20233 0.44371,-0.65381 z m -2.30381,-1.12072 h 2.30381 q -0.0467,-0.52918 -0.26469,-0.79377 -0.32686,-0.40476 -0.87168,-0.40476 -0.48246,0 -0.80941,0.32685 -0.32685,0.32696 -0.35803,0.87168 z m 3.90311,-1.68109 h 0.70043 v 3.15985 l 1.94577,-3.15985 h 0.74715 v 4.14051 h -0.70052 v -3.12867 l -1.94568,3.12867 h -0.74715 z m 2.47496,-1.55656 h 0.46692 q -0.0466,0.48256 -0.35017,0.74715 -0.30354,0.26469 -0.7861,0.26469 -0.4981,0 -0.80164,-0.26469 -0.30354,-0.26459 -0.35017,-0.74715 h 0.46692 q 0.0623,0.26469 0.22574,0.39698 0.16338,0.1323 0.42807,0.1323 0.31131,0 0.47469,-0.1323 0.16347,-0.13229 0.22574,-0.39698 z"
         style="font-size:10px;font-family:sans-serif;stroke:none;stroke-width:0.4981"
         id="path314" />
      <path
         d="m 491.09145,230.65161 q -0.38912,0.32685 -0.74715,0.46692 -0.35794,0.14006 -0.77823,0.14006 -0.66935,0 -1.03515,-0.33462 -0.36581,-0.33462 -0.36581,-0.84836 0,-0.31132 0.1323,-0.56037 0.13239,-0.24905 0.35803,-0.39688 0.22574,-0.14784 0.50587,-0.22574 0.20243,-0.0623 0.62263,-0.10889 0.85613,-0.10898 1.24525,-0.24905 0.0156,-0.14016 0.0156,-0.17124 0,-0.43584 -0.20243,-0.60709 -0.26459,-0.23351 -0.79377,-0.23351 -0.4981,0 -0.73161,0.17125 -0.23351,0.17125 -0.35804,0.60708 l -0.68488,-0.0934 q 0.0934,-0.43584 0.31131,-0.7082 0.21797,-0.27236 0.62262,-0.42029 0.40476,-0.14784 0.93394,-0.14784 0.52928,0 0.8639,0.12452 0.33463,0.12453 0.49033,0.31909 0.15561,0.19455 0.21787,0.47479 0.0312,0.18678 0.0312,0.6537 v 0.93394 q 0,0.96512 0.0467,1.22971 0.0466,0.26459 0.17114,0.4981 h -0.73151 q -0.10898,-0.21797 -0.14016,-0.51364 z m -0.0623,-1.55656 q -0.37358,0.1556 -1.13627,0.26459 -0.43584,0.0623 -0.61485,0.14006 -0.17902,0.0778 -0.27237,0.22574 -0.0934,0.14784 -0.0934,0.33462 0,0.28024 0.2102,0.46702 0.2101,0.18679 0.61485,0.18679 0.40466,0 0.72374,-0.17902 0.31909,-0.17901 0.45925,-0.49033 0.10889,-0.23351 0.10889,-0.70042 z m 1.80172,-2.07031 h 2.38162 v 0.59155 h -1.68109 v 3.54896 h -0.70053 z m 2.90691,5.72815 v -5.72815 h 0.63817 v 0.54482 q 0.21797,-0.31131 0.50587,-0.47478 0.288,-0.16338 0.69276,-0.16338 0.52918,0 0.93384,0.27236 0.40475,0.27246 0.60708,0.77056 0.20243,0.4981 0.20243,1.08954 0,0.63817 -0.22574,1.14404 -0.22574,0.50597 -0.66158,0.77833 -0.43583,0.27236 -0.90275,0.27236 -0.35804,0 -0.63827,-0.14783 -0.28013,-0.14784 -0.45138,-0.38135 v 2.02348 z m 0.63817,-3.62676 q 0,0.79387 0.31908,1.17521 0.31909,0.38135 0.7861,0.38135 0.46702,0 0.79388,-0.39689 0.32685,-0.39698 0.32685,-1.22194 0,-0.79387 -0.31908,-1.18298 -0.31909,-0.38912 -0.77056,-0.38912 -0.45138,0 -0.79378,0.41243 -0.34249,0.41252 -0.34249,1.22194 z m 3.76305,3.62676 -0.0779,-0.6537 q 0.23351,0.0623 0.40476,0.0623 0.23351,0 0.37357,-0.0778 0.14007,-0.0779 0.21787,-0.21797 0.0779,-0.10899 0.21797,-0.51364 0.0155,-0.0623 0.0623,-0.17125 l -1.5721,-4.15605 h 0.76269 l 0.85614,2.39716 q 0.17114,0.45138 0.29567,0.96502 0.12452,-0.48246 0.29577,-0.94948 l 0.88722,-2.4127 h 0.70052 l -1.5722,4.21831 q -0.26459,0.66935 -0.40466,0.93394 -0.18678,0.34249 -0.42806,0.50587 -0.24128,0.16348 -0.56814,0.16348 -0.20232,0 -0.45137,-0.0934 z m 4.03142,-5.72815 h 1.08964 l 1.08955,3.31556 1.19862,-3.31556 h 1.01174 v 4.14051 h -0.70042 v -3.33109 l -1.21417,3.33109 h -0.63817 l -1.1519,-3.4867 v 3.4867 h -0.68489 z m 8.29655,2.80182 0.71597,0.0934 q -0.17125,0.63816 -0.63039,0.98843 -0.45915,0.35016 -1.19076,0.35016 -0.90286,0 -1.43204,-0.56036 -0.52928,-0.56036 -0.52928,-1.5721 0,-1.04292 0.53705,-1.61883 0.53705,-0.5759 1.39309,-0.5759 0.82505,0 1.35423,0.56813 0.52928,0.56813 0.52928,1.59552 0,0.0623 -0.0156,0.18678 h -3.08194 q 0.0467,0.66925 0.38911,1.03506 0.3425,0.3658 0.87168,0.3658 0.37357,0 0.64603,-0.20233 0.27236,-0.20233 0.44361,-0.6538 z m -2.30371,-1.12073 h 2.30371 q -0.0467,-0.52918 -0.26469,-0.79377 -0.32685,-0.40476 -0.87167,-0.40476 -0.48246,0 -0.80942,0.32686 -0.32685,0.32695 -0.35793,0.87167 z m 3.90301,-1.68109 h 0.70053 v 1.72781 h 1.94568 v -1.72781 h 0.70043 v 4.14051 h -0.70043 v -1.83679 h -1.94568 v 1.83679 h -0.70053 z m 4.02764,0 h 3.34663 v 0.59155 h -1.32305 v 3.54896 H 519.417 v -3.54896 h -1.32305 z m 3.75906,2.07031 q 0,-1.15191 0.63826,-1.69673 0.52919,-0.46692 1.30752,-0.46692 0.84049,0 1.38531,0.56036 0.54482,0.56036 0.54482,1.54102 0,0.80942 -0.24128,1.26079 -0.24128,0.45138 -0.70042,0.7082 -0.45925,0.25682 -0.98843,0.25682 -0.87168,0 -1.40873,-0.56036 -0.53705,-0.56036 -0.53705,-1.60318 z m 0.71607,0 q 0,0.79377 0.35026,1.19075 0.35017,0.39689 0.87945,0.39689 0.51364,0 0.8639,-0.39689 0.35017,-0.39698 0.35017,-1.20639 0,-0.77824 -0.35017,-1.16735 -0.35026,-0.38922 -0.8639,-0.38922 -0.52928,0 -0.87945,0.38922 -0.35026,0.38911 -0.35026,1.18299 z m 3.98091,-2.07031 h 1.61883 q 0.59144,0 0.87944,0.10122 0.288,0.10121 0.4981,0.3658 0.2101,0.26459 0.2101,0.63817 0,0.29577 -0.12452,0.51364 -0.12453,0.21797 -0.35794,0.37357 0.28013,0.0934 0.47469,0.35804 0.19456,0.26459 0.19456,0.63816 -0.0311,0.57601 -0.41243,0.86391 -0.38134,0.288 -1.11295,0.288 h -1.86788 z m 0.70043,1.74335 h 0.74715 q 0.45138,0 0.61486,-0.0466 0.16347,-0.0467 0.29577,-0.18679 0.13229,-0.14016 0.13229,-0.34249 0,-0.32685 -0.22574,-0.45138 -0.22564,-0.12452 -0.786,-0.12452 h -0.77833 z m 0,1.82126 h 0.9184 q 0.60708,0 0.82495,-0.14017 0.21797,-0.14007 0.23351,-0.48246 0,-0.18679 -0.1323,-0.35803 -0.13229,-0.17125 -0.33472,-0.21797 -0.20233,-0.0466 -0.65371,-0.0466 h -0.85613 z"
         style="font-size:10px;font-family:sans-serif;stroke:none;stroke-width:0.4981"
         id="path316" />
      <path
         d="m 370.66611,165.29152 v -5.71261 h 2.13247 q 0.6537,0 1.05069,0.17902 0.39688,0.17902 0.62262,0.53705 0.22564,0.35794 0.22564,0.74715 0,0.37358 -0.20233,0.69266 -0.20232,0.31908 -0.60708,0.52141 0.52928,0.15571 0.80164,0.52141 0.27246,0.36581 0.27246,0.86391 0,0.38921 -0.16347,0.73938 -0.16348,0.35026 -0.41253,0.53705 -0.24905,0.18679 -0.6304,0.28013 -0.38134,0.0934 -0.92616,0.0934 z m 0.74715,-3.31545 h 1.22961 q 0.51374,0 0.73161,-0.0623 0.28023,-0.0779 0.42807,-0.28023 0.14783,-0.20233 0.14783,-0.4981 0,-0.28013 -0.14006,-0.4981 -0.14007,-0.21787 -0.38912,-0.29577 -0.24905,-0.0778 -0.87167,-0.0778 h -1.13627 z m 0,2.64611 h 1.4164 q 0.37357,0 0.51374,-0.0311 0.26459,-0.0467 0.44361,-0.15571 0.17901,-0.10898 0.2879,-0.31908 0.10898,-0.2101 0.10898,-0.47479 0,-0.32686 -0.16337,-0.56036 -0.16348,-0.23341 -0.45148,-0.32686 -0.2879,-0.0933 -0.83273,-0.0933 h -1.32305 z m 7.33921,-0.66935 0.71596,0.0934 q -0.17124,0.63817 -0.63039,0.98843 -0.45915,0.35017 -1.19076,0.35017 -0.90286,0 -1.43204,-0.56036 -0.52928,-0.56037 -0.52928,-1.57211 0,-1.04292 0.53705,-1.61882 0.53706,-0.57591 1.39309,-0.57591 0.82505,0 1.35423,0.56814 0.52929,0.56813 0.52929,1.59551 0,0.0623 -0.0156,0.18679 h -3.08194 q 0.0467,0.66925 0.38912,1.03505 0.34249,0.3658 0.87167,0.3658 0.37358,0 0.64594,-0.20232 0.27246,-0.20233 0.44371,-0.65381 z m -2.30372,-1.12072 h 2.30372 q -0.0467,-0.52919 -0.2647,-0.79378 -0.32685,-0.40475 -0.87167,-0.40475 -0.48246,0 -0.80941,0.32685 -0.32686,0.32695 -0.35794,0.87168 z m 3.90301,4.04706 v -5.72815 h 0.63827 v 0.54482 q 0.21787,-0.31131 0.50587,-0.47479 0.2879,-0.16338 0.69266,-0.16338 0.52918,0 0.93394,0.27237 0.40465,0.27246 0.60708,0.77056 0.20233,0.4981 0.20233,1.08954 0,0.63817 -0.22574,1.14404 -0.22564,0.50597 -0.66148,0.77833 -0.43584,0.27236 -0.90285,0.27236 -0.35804,0 -0.63817,-0.14784 -0.28023,-0.14783 -0.45138,-0.38134 v 2.02348 z m 0.63827,-3.62677 q 0,0.79387 0.31908,1.17522 0.31909,0.38134 0.786,0.38134 0.46702,0 0.79388,-0.39688 0.32685,-0.39699 0.32685,-1.22194 0,-0.79387 -0.31908,-1.18299 -0.31909,-0.38911 -0.77046,-0.38911 -0.45138,0 -0.79388,0.41242 -0.34239,0.41253 -0.34239,1.22194 z m 6.48696,0.52928 0.68488,0.0778 q -0.10898,0.71597 -0.576,1.12072 -0.46692,0.40466 -1.13627,0.40466 -0.85613,0 -1.36977,-0.55259 -0.51364,-0.5525 -0.51364,-1.59542 0,-0.66935 0.22574,-1.16745 0.22564,-0.4981 0.67702,-0.75492 0.45147,-0.25682 0.98065,-0.25682 0.66935,0 1.09742,0.3424 0.42807,0.34249 0.55259,0.96512 l -0.68489,0.10898 q -0.0934,-0.4203 -0.34249,-0.63049 -0.24905,-0.2101 -0.59144,-0.2101 -0.52929,0 -0.86391,0.38134 -0.33472,0.38135 -0.33472,1.2064 0,0.82495 0.31918,1.2063 0.31908,0.38134 0.83272,0.38134 0.4203,0 0.69266,-0.25682 0.27236,-0.25682 0.35027,-0.77046 z m 1.29187,-2.63066 h 0.70053 v 3.15984 l 1.94567,-3.15984 h 0.74715 v 4.1405 h -0.70042 v -3.12866 l -1.94578,3.12866 h -0.74715 z m 7.70501,0 v 4.1405 h -0.70043 v -1.61882 h -0.40476 q -0.37357,0 -0.55249,0.10111 -0.17902,0.10122 -0.52151,0.61486 l -0.60708,0.90285 h -0.87168 l 0.74715,-1.12072 q 0.35803,-0.4981 0.70053,-0.5759 -0.60709,-0.0779 -0.89509,-0.42807 -0.2879,-0.35027 -0.2879,-0.80164 0,-0.54483 0.38135,-0.87945 0.38134,-0.33472 1.09731,-0.33472 z m -0.70043,0.59154 h -0.9962 q -0.62263,0 -0.80164,0.19456 -0.17902,0.19456 -0.17902,0.44361 0,0.37357 0.26459,0.54482 0.26469,0.17125 0.93394,0.17125 h 0.77833 z"
         style="font-size:10px;font-family:sans-serif;stroke:none;stroke-width:0.4981"
         id="path318" />
      <path
         d="m 367.77474,171.17528 v 4.14051 h -0.70043 v -1.61883 h -0.40466 q -0.37357,0 -0.55259,0.10112 -0.17901,0.10121 -0.52151,0.61485 l -0.60698,0.90286 h -0.87168 l 0.74715,-1.12073 q 0.35794,-0.4981 0.70043,-0.5759 -0.60708,-0.0779 -0.89509,-0.42807 -0.2879,-0.35026 -0.2879,-0.80164 0,-0.54482 0.38135,-0.87945 0.38134,-0.33472 1.09741,-0.33472 z m -0.70043,0.59154 h -0.9962 q -0.62262,0 -0.80164,0.19456 -0.17902,0.19456 -0.17902,0.44361 0,0.37357 0.26469,0.54482 0.26459,0.17125 0.93394,0.17125 h 0.77823 z m 2.3076,-0.59154 h 2.87961 v 3.5646 h 0.45148 v 1.74335 h -0.576 v -1.16744 h -3.25319 v 1.16744 h -0.5759 v -1.74335 h 0.37357 q 0.73161,-1.01184 0.70043,-3.5646 z m 0.59154,0.59154 q -0.0779,2.00794 -0.62262,2.97306 h 2.22581 v -2.97306 z m 3.5139,5.13661 v -5.72815 h 0.63816 v 0.54482 q 0.21797,-0.31131 0.50587,-0.47479 0.28801,-0.16337 0.69276,-0.16337 0.52918,0 0.93394,0.27236 0.40466,0.27246 0.60698,0.77056 0.20243,0.4981 0.20243,1.08954 0,0.63817 -0.22574,1.14404 -0.22574,0.50597 -0.66157,0.77833 -0.43584,0.27236 -0.90276,0.27236 -0.35803,0 -0.63817,-0.14784 -0.28023,-0.14783 -0.45147,-0.38134 v 2.02348 z m 0.63816,-3.62677 q 0,0.79388 0.31909,1.17522 0.31918,0.38135 0.7861,0.38135 0.46702,0 0.79387,-0.39689 0.32685,-0.39698 0.32685,-1.22194 0,-0.79387 -0.31908,-1.18299 -0.31908,-0.38911 -0.77046,-0.38911 -0.45148,0 -0.79387,0.41243 -0.3425,0.41252 -0.3425,1.22193 z m 6.48696,1.52549 q -0.38912,0.32685 -0.74715,0.46691 -0.35793,0.14007 -0.77823,0.14007 -0.66935,0 -1.03515,-0.33462 -0.36581,-0.33463 -0.36581,-0.84837 0,-0.31131 0.1324,-0.56036 0.13229,-0.24905 0.35793,-0.39689 0.22574,-0.14783 0.50587,-0.22573 0.20243,-0.0623 0.62263,-0.10889 0.85613,-0.10898 1.24525,-0.24905 0.0156,-0.14016 0.0156,-0.17125 0,-0.43583 -0.20243,-0.60708 -0.26459,-0.23351 -0.79377,-0.23351 -0.4981,0 -0.73161,0.17125 -0.23351,0.17124 -0.35804,0.60708 l -0.68488,-0.0934 q 0.0934,-0.43584 0.31131,-0.7082 0.21797,-0.27236 0.62262,-0.4203 0.40476,-0.14783 0.93394,-0.14783 0.52928,0 0.86391,0.12452 0.33462,0.12453 0.49033,0.31908 0.1556,0.19456 0.21787,0.47479 0.0312,0.18679 0.0312,0.65371 v 0.93394 q 0,0.96512 0.0467,1.22971 0.0466,0.26459 0.17115,0.4981 h -0.73151 q -0.10899,-0.21797 -0.14017,-0.51364 z m -0.0623,-1.55657 q -0.37358,0.15561 -1.13627,0.26459 -0.43584,0.0623 -0.61485,0.14007 -0.17902,0.0778 -0.27236,0.22574 -0.0934,0.14783 -0.0934,0.33462 0,0.28023 0.2102,0.46702 0.2101,0.18679 0.61486,0.18679 0.40465,0 0.72373,-0.17902 0.31909,-0.17902 0.45925,-0.49033 0.10889,-0.23351 0.10889,-0.70043 z m 4.07824,2.07021 v -5.71261 h 0.74715 v 5.04326 h 2.81735 v 0.66935 z m 4.37003,-4.9032 v -0.80941 h 0.70043 v 0.80941 z m 0,4.9032 v -4.14051 h 0.70043 v 4.14051 z m 1.77065,0 v -4.14051 h 0.62262 v 0.59154 q 0.46692,-0.68488 1.32306,-0.68488 0.37357,0 0.68488,0.14006 0.31132,0.14007 0.46692,0.35804 0.15571,0.21787 0.21797,0.51364 0.0467,0.18678 0.0467,0.68488 v 2.53723 h -0.70053 v -2.52168 q 0,-0.4202 -0.0856,-0.6304 -0.0856,-0.2101 -0.29577,-0.34239 -0.2101,-0.1323 -0.49033,-0.1323 -0.43584,0 -0.76269,0.2879 -0.32685,0.288 -0.32685,1.08188 v 2.25699 z m 7.14066,0 v -0.60709 q -0.48246,0.70043 -1.30751,0.70043 -0.37358,0 -0.69266,-0.14007 -0.31908,-0.14006 -0.46692,-0.35026 -0.14794,-0.2101 -0.2102,-0.52141 -0.0466,-0.20233 -0.0466,-0.65371 v -2.5684 h 0.70043 v 2.30371 q 0,0.54482 0.0467,0.73161 0.0623,0.28023 0.27236,0.43584 0.2101,0.15571 0.53705,0.15571 0.31131,0 0.58368,-0.16348 0.27236,-0.16348 0.38911,-0.43584 0.11676,-0.27236 0.11676,-0.80164 v -2.22591 h 0.70042 v 4.14051 z m 1.25691,0 1.50994,-2.14811 -1.40096,-1.9924 h 0.87167 l 0.63817,0.98066 q 0.18679,0.26459 0.29577,0.45138 0.17125,-0.24905 0.31131,-0.45138 l 0.70043,-0.98066 h 0.82506 l -1.4165,1.94578 1.52538,2.19473 h -0.85603 l -0.8406,-1.29198 -0.23351,-0.34239 -1.08954,1.63437 z"
         style="font-size:10px;font-family:sans-serif;stroke:none;stroke-width:0.4981"
         id="path320" />
    </g>
  </g>
</svg>
