<?xml version="1.0" encoding="UTF-8" standalone="no"?>
<svg
   xmlns:dc="http://purl.org/dc/elements/1.1/"
   xmlns:cc="http://creativecommons.org/ns#"
   xmlns:rdf="http://www.w3.org/1999/02/22-rdf-syntax-ns#"
   xmlns:svg="http://www.w3.org/2000/svg"
   xmlns="http://www.w3.org/2000/svg"
   xmlns:sodipodi="http://sodipodi.sourceforge.net/DTD/sodipodi-0.dtd"
   xmlns:inkscape="http://www.inkscape.org/namespaces/inkscape"
   style="fill-opacity:1; color-rendering:auto; color-interpolation:auto; stroke:black; text-rendering:auto; stroke-linecap:square; stroke-miterlimit:10; stroke-opacity:1; shape-rendering:auto; fill:black; stroke-dasharray:none; font-weight:normal; stroke-width:1; font-family:'Dialog'; font-style:normal; stroke-linejoin:miter; font-size:12; stroke-dashoffset:0; image-rendering:auto;"
   width="1600"
   height="1199"
   version="1.1"
   id="svg338"
   sodipodi:docname="idef0_A0.svg"
   inkscape:version="1.0.1 (3bc2e813f5, 2020-09-07)">
  <metadata
     id="metadata342">
    <rdf:RDF>
      <cc:Work
         rdf:about="">
        <dc:format>image/svg+xml</dc:format>
        <dc:type
           rdf:resource="http://purl.org/dc/dcmitype/StillImage" />
        <dc:title></dc:title>
      </cc:Work>
    </rdf:RDF>
  </metadata>
  <sodipodi:namedview
     pagecolor="#ffffff"
     bordercolor="#666666"
     borderopacity="1"
     objecttolerance="10"
     gridtolerance="10"
     guidetolerance="10"
     inkscape:pageopacity="0"
     inkscape:pageshadow="2"
     inkscape:window-width="1920"
     inkscape:window-height="1001"
     id="namedview340"
     showgrid="false"
     inkscape:zoom="0.74157824"
     inkscape:cx="742.54907"
     inkscape:cy="520.22736"
     inkscape:window-x="-9"
     inkscape:window-y="-9"
     inkscape:window-maximized="1"
     inkscape:current-layer="svg338" />
  <!--Generated by the Batik Graphics2D SVG Generator-->
  <defs
     id="genericDefs" />
  <g
     id="g526"
     transform="translate(-521.69684,-234.09921)">
    <line
       x1="521.8233"
       x2="696.13"
       y1="487.54999"
       style="fill:none;stroke-width:0.252934"
       y2="487.54999"
       id="line260" />
    <path
       d="m 696.13,487.55 -15.98,-5.9925 v 11.985"
       style="fill-rule:evenodd;stroke:none;stroke-width:0.5"
       id="path262" />
    <line
       x1="786.68329"
       x2="786.68329"
       y1="688.17664"
       style="fill:none;stroke-width:0.261713"
       y2="583.42999"
       id="line264" />
    <path
       d="m 786.6833,583.43 -5.9924,15.98 h 11.9849"
       style="fill-rule:evenodd;stroke:none;stroke-width:0.5"
       id="path266" />
    <line
       x1="877.23669"
       x2="877.23669"
       y1="688.17664"
       style="fill:none;stroke-width:0.261713"
       y2="583.42999"
       id="line268" />
    <path
       d="m 877.2367,583.43 -5.9925,15.98 h 11.985"
       style="fill-rule:evenodd;stroke:none;stroke-width:0.5"
       id="path270" />
    <line
       x1="967.67767"
       x2="1307.6566"
       y1="487.54999"
       style="fill:none;stroke-width:0.371085"
       y2="487.54999"
       id="line272" />
    <path
       d="m 1307.6566,487.54999 -15.98,-5.9925 v 11.985"
       style="fill-rule:evenodd;stroke:none;stroke-width:0.5"
       id="path274" />
    <line
       x1="831.96002"
       x2="831.96002"
       y1="237.6254"
       style="fill:none;stroke-width:0.392731"
       y2="391.67001"
       id="line276" />
    <path
       d="m 831.96,391.67 -5.9925,-15.98 h 11.985"
       style="fill-rule:evenodd;stroke:none;stroke-width:0.5"
       id="path278" />
    <rect
       x="696.13"
       width="271.66"
       height="191.75999"
       y="391.67001"
       style="font-size:14px;font-family:sans-serif;fill:#ffffff;stroke:none;stroke-width:0.5"
       id="rect282" />
    <path
       d="m 756.50564,472.44151 v -20.00616 h 3.96383 l 4.74407,14.16966 q 0.65538,1.96634 0.96739,2.96509 0.34337,-1.09243 1.06127,-3.21477 l 4.77522,-13.91998 h 3.58931 v 20.00616 h -2.5594 v -16.76022 l -5.83629,16.76022 h -2.37203 l -5.80534,-17.04127 v 17.04127 z m 22.14029,-7.24094 q 0,-4.02616 2.24718,-5.9925 1.8413,-1.59181 4.5567,-1.59181 2.96509,0 4.86891,1.95076 1.90381,1.95056 1.90381,5.41503 0,2.80908 -0.84254,4.41647 -0.84275,1.60719 -2.45014,2.49687 -1.60738,0.88949 -3.48004,0.88949 -3.05857,0 -4.93123,-1.96634 -1.87265,-1.96634 -1.87265,-5.61797 z m 2.52803,0 q 0,2.77773 1.21728,4.16659 1.21708,1.38886 3.05857,1.38886 1.81033,0 3.02741,-1.40444 1.21728,-1.40445 1.21728,-4.24469 0,-2.68404 -1.21728,-4.0729 -1.21708,-1.38906 -3.02741,-1.38906 -1.84149,0 -3.05857,1.37328 -1.21728,1.37328 -1.21728,4.18236 z m 13.96113,-7.2721 h 2.43435 v 6.05483 h 6.83525 v -6.05483 h 2.43435 v 14.51304 h -2.43435 v -6.42955 h -6.83525 v 6.42955 h -2.43435 z m 15.41231,0 h 2.46551 v 11.07974 l 6.80409,-11.07974 h 2.65288 v 14.51304 h -2.46572 v -10.98625 l -6.80388,10.98625 h -2.65288 z m 14.31009,0 h 11.76667 v 2.05983 h -4.65058 v 12.45321 h -2.46551 V 459.9883 h -4.65058 z m 13.21406,7.2721 q 0,-4.02616 2.24719,-5.9925 1.84129,-1.59181 4.5567,-1.59181 2.96508,0 4.8689,1.95076 1.90382,1.95056 1.90382,5.41503 0,2.80908 -0.84255,4.41647 -0.84274,1.60719 -2.45013,2.49687 -1.60739,0.88949 -3.48004,0.88949 -3.05858,0 -4.93123,-1.96634 -1.87266,-1.96634 -1.87266,-5.61797 z m 2.52804,0 q 0,2.77773 1.21727,4.16659 1.21708,1.38886 3.05858,1.38886 1.81033,0 3.02741,-1.40444 1.21727,-1.40445 1.21727,-4.24469 0,-2.68404 -1.21727,-4.0729 -1.21708,-1.38906 -3.02741,-1.38906 -1.8415,0 -3.05858,1.37328 -1.21727,1.37328 -1.21727,4.18236 z m 13.92976,12.79639 v -20.06849 h 2.24719 v 1.90382 q 0.78042,-1.12359 1.77917,-1.66971 0.99875,-0.54632 2.43436,-0.54632 1.84149,0 3.26151,0.95201 1.42023,0.95181 2.13793,2.69962 0.7179,1.74782 0.7179,3.80784 0,2.21602 -0.7958,4.01058 -0.79601,1.79455 -2.30971,2.74656 -1.51371,0.95201 -3.199,0.95201 -1.21728,0 -2.20044,-0.53074 -0.98317,-0.53053 -1.60739,-1.31076 v 7.05358 z m 2.21603,-12.73407 q 0,2.80909 1.13917,4.15121 1.13918,1.34192 2.76215,1.34192 1.62297,0 2.7935,-1.38886 1.17034,-1.38886 1.17034,-4.29143 0,-2.77773 -1.13918,-4.15101 -1.13917,-1.37328 -2.73098,-1.37328 -1.56045,0 -2.77772,1.46677 -1.21728,1.46696 -1.21728,4.24468 z m 13.33691,-7.33442 h 2.46551 v 11.07974 l 6.80409,-11.07974 h 2.65288 v 14.51304 h -2.46572 v -10.98625 l -6.80388,10.98625 h -2.65288 z m 15.65221,0 h 2.43435 v 6.05483 h 6.83525 v -6.05483 h 2.43455 v 14.51304 h -2.43455 v -6.42955 h -6.83525 v 6.42955 h -2.43435 z m 15.44347,0 h 8.33337 v 2.05983 h -5.89882 v 12.45321 h -2.43455 z"
       style="font-size:14px;font-family:sans-serif;fill:#000000;stroke:none;stroke-width:0.99875"
       id="path284" />
    <path
       d="m 714.72593,502.31033 2.43435,0.31221 q -0.40569,2.49687 -2.04424,3.91689 -1.63855,1.42003 -4.01058,1.42003 -2.96509,0 -4.77543,-1.95056 -1.81013,-1.95076 -1.81013,-5.60239 0,-2.34087 0.78022,-4.10426 0.78023,-1.7634 2.37203,-2.6373 1.59181,-0.87391 3.46447,-0.87391 2.34087,0 3.85457,1.18592 1.51371,1.18611 1.9194,3.40214 l -2.37203,0.37453 q -0.34337,-1.46696 -1.21728,-2.20045 -0.8739,-0.73348 -2.09098,-0.73348 -1.87266,0 -3.02761,1.32654 -1.15475,1.32634 -1.15475,4.19775 0,2.93393 1.12359,4.26047 1.12359,1.32634 2.90257,1.32634 1.46696,0 2.43455,-0.88949 0.96759,-0.88949 1.21728,-2.73098 z m 4.52553,-9.20728 h 2.46572 v 11.07993 l 6.80388,-11.07993 h 2.65288 v 14.51324 h -2.46551 v -10.98625 l -6.80409,10.98625 h -2.65288 z m 25.07802,9.20728 2.43435,0.31221 q -0.40569,2.49687 -2.04424,3.91689 -1.63855,1.42003 -4.01058,1.42003 -2.96509,0 -4.77523,-1.95056 -1.81033,-1.95076 -1.81033,-5.60239 0,-2.34087 0.78022,-4.10426 0.78043,-1.7634 2.37203,-2.6373 1.59181,-0.87391 3.46447,-0.87391 2.34087,0 3.85457,1.18592 1.51371,1.18611 1.9194,3.40214 l -2.37203,0.37453 q -0.34317,-1.46696 -1.21708,-2.20045 -0.8739,-0.73348 -2.09118,-0.73348 -1.87266,0 -3.02741,1.32654 -1.15496,1.32634 -1.15496,4.19775 0,2.93393 1.1236,4.26047 1.12359,1.32634 2.90277,1.32634 1.46676,0 2.43435,-0.88949 0.96759,-0.88949 1.21728,-2.73098 z m 3.21477,-9.20728 h 11.76648 v 2.06002 h -4.65038 v 12.45322 h -2.46572 v -12.45322 h -4.65038 z m 24.04411,9.8315 2.5592,0.3122 q -0.62422,2.24719 -2.24719,3.48005 -1.62297,1.23266 -4.15101,1.23266 -3.18361,0 -5.04049,-1.96614 -1.85707,-1.96634 -1.85707,-5.49313 0,-3.68299 1.88823,-5.69607 1.88824,-2.01308 4.88449,-2.01308 2.90257,0 4.74406,1.98192 1.8415,1.98192 1.8415,5.57103 0,0.21852 0,0.65558 h -10.83025 q 0.15601,2.37203 1.3577,3.65163 1.2015,1.2796 3.04299,1.2796 1.34213,0 2.29413,-0.71791 0.95181,-0.7177 1.51371,-2.27834 z m -8.05252,-3.96384 h 8.08368 q -0.156,-1.8413 -0.93643,-2.74657 -1.15475,-1.40444 -3.02741,-1.40444 -1.71665,0 -2.85582,1.1236 -1.13918,1.12359 -1.26402,3.02741 z m 13.7426,-5.86766 h 3.83899 l 3.80764,11.61047 4.21352,-11.61047 h 3.55815 v 14.51324 h -2.46571 V 495.9433 l -4.27585,11.67299 h -2.21603 l -4.05752,-12.23469 v 12.23469 h -2.40319 z m 19.19477,0 h 2.43436 v 6.05502 h 6.83524 v -6.05502 h 2.43456 v 14.51324 h -2.43456 v -6.42956 h -6.83524 v 6.42956 h -2.43436 z m 29.20745,0 h 2.46571 v 14.51324 h -2.46571 z m -13.73281,0 h 2.46571 v 5.68049 h 3.08993 q 3.05858,0 4.69732,1.18592 1.63855,1.18611 1.63855,3.24593 0,1.81034 -1.37328,3.10552 -1.37328,1.29538 -4.36953,1.29538 h -6.1487 z m 2.46571,12.48438 h 2.5594 q 2.34067,0 3.33942,-0.57728 0.99875,-0.57748 0.99875,-1.7634 0,-0.96758 -0.73328,-1.70107 -0.73349,-0.73348 -3.26172,-0.73348 h -2.90257 z m 15.94884,2.02886 5.2746,-7.55315 -4.90007,-6.96009 h 3.08993 l 2.21583,3.40214 q 0.62422,0.96739 0.99875,1.62297 0.62422,-0.90527 1.12359,-1.59181 l 2.43456,-3.4333 h 2.93373 l -4.99375,6.83525 5.36828,7.67799 h -2.99625 l -2.99625,-4.49438 -0.78023,-1.21728 -3.80763,5.71166 z m 23.4063,-14.51324 h 5.64913 q 2.09119,0 3.10552,0.35895 1.01433,0.35895 1.74781,1.2798 0.73348,0.92065 0.73348,2.23141 0,1.03011 -0.43705,1.79475 -0.43685,0.76464 -1.2796,1.29518 1.02991,0.34337 1.70107,1.2796 0.67096,0.93643 0.67096,2.21602 -0.12484,2.06003 -1.46696,3.05878 -1.34212,0.99875 -3.90132,0.99875 h -6.52304 z m 2.43436,6.11734 h 2.62172 q 1.5918,0 2.16928,-0.17158 0.57728,-0.17159 1.04549,-0.67096 0.46822,-0.49938 0.46822,-1.18612 0,-1.15475 -0.81159,-1.59181 -0.81138,-0.43685 -2.77772,-0.43685 h -2.7154 z m 0,6.36704 h 3.24594 q 2.09118,0 2.8714,-0.4836 0.78023,-0.48379 0.81159,-1.66991 0,-0.68654 -0.45264,-1.2796 -0.45263,-0.59306 -1.17033,-0.74906 -0.7179,-0.15601 -2.30971,-0.15601 h -2.99625 z m 26.18602,-12.48438 h 2.46572 v 14.51324 h -2.46572 z m -13.73281,0 h 2.46572 v 5.68049 h 3.08973 q 3.05877,0 4.69732,1.18592 1.63855,1.18611 1.63855,3.24593 0,1.81034 -1.37328,3.10552 -1.37328,1.29538 -4.36953,1.29538 h -6.14851 z m 2.46572,12.48438 h 2.55919 q 2.34087,0 3.33962,-0.57728 0.99875,-0.57748 0.99875,-1.7634 0,-0.96758 -0.73348,-1.70107 -0.73348,-0.73348 -3.26152,-0.73348 h -2.90256 z m 20.78638,-4.52554 v -1.93498 q 1.56065,0 2.12234,-0.10926 0.5619,-0.10927 1.06128,-0.65538 0.49937,-0.54632 0.49937,-1.3577 0,-0.99875 -0.65558,-1.59181 -0.65538,-0.59306 -1.71645,-0.59306 -2.06002,0 -2.90277,2.43455 l -2.34067,-0.37453 q 1.09224,-4.08868 5.2746,-4.08868 2.34087,0 3.65163,1.26402 1.31096,1.26402 1.31096,3.04299 0,1.77917 -1.71665,2.80908 1.09243,0.59306 1.63855,1.49813 0.54611,0.90507 0.54611,2.1535 0,1.96634 -1.42002,3.18362 -1.42002,1.21708 -3.97942,1.21708 -4.96259,0 -5.74281,-4.43186 l 2.30971,-0.49937 q 0.31201,1.40444 1.2796,2.16908 0.96759,0.76465 2.18466,0.76465 1.24844,0 2.07561,-0.70212 0.82716,-0.70233 0.82716,-1.79476 0,-0.84254 -0.51496,-1.46676 -0.51515,-0.62422 -1.10801,-0.78043 -0.59306,-0.156 -2.12234,-0.156 -0.12485,0 -0.5619,0 z m 8.70211,-0.68654 q 0,-4.02636 2.24719,-5.9925 1.84129,-1.59181 4.55669,-1.59181 2.96509,0 4.86891,1.95076 1.90382,1.95056 1.90382,5.41502 0,2.80889 -0.84255,4.41627 -0.84274,1.60739 -2.45013,2.49688 -1.60739,0.88949 -3.48005,0.88949 -3.05857,0 -4.93122,-1.96614 -1.87266,-1.96634 -1.87266,-5.61797 z m 2.52804,0 q 0,2.77772 1.21727,4.16658 1.21708,1.38887 3.05857,1.38887 1.81034,0 3.02741,-1.40445 1.21728,-1.40444 1.21728,-4.24468 0,-2.68424 -1.21728,-4.07311 -1.21707,-1.38886 -3.02741,-1.38886 -1.84149,0 -3.05857,1.37328 -1.21727,1.37328 -1.21727,4.18237 z m 13.96092,-7.2723 h 5.64933 q 2.09098,0 3.10552,0.35895 1.01433,0.35895 1.74781,1.2798 0.73328,0.92065 0.73328,2.23141 0,1.03011 -0.43685,1.79475 -0.43706,0.76464 -1.2796,1.29518 1.02991,0.34337 1.70087,1.2796 0.67116,0.93643 0.67116,2.21602 -0.12484,2.06003 -1.46696,3.05878 -1.34212,0.99875 -3.90132,0.99875 h -6.52324 z m 2.43456,6.11734 h 2.62171 q 1.59181,0 2.16909,-0.17158 0.57748,-0.17159 1.04569,-0.67096 0.46801,-0.49938 0.46801,-1.18612 0,-1.15475 -0.81138,-1.59181 -0.81158,-0.43685 -2.77772,-0.43685 h -2.7154 z m 0,6.36704 h 3.24593 q 2.09119,0 2.87141,-0.4836 0.78022,-0.48379 0.81138,-1.66991 0,-0.68654 -0.45243,-1.2796 -0.45263,-0.59306 -1.17054,-0.74906 -0.7177,-0.15601 -2.3095,-0.15601 H 919.534 Z m 11.48562,-5.21208 q 0,-4.02636 2.24719,-5.9925 1.84149,-1.59181 4.5567,-1.59181 2.96508,0 4.8689,1.95076 1.90402,1.95056 1.90402,5.41502 0,2.80889 -0.84275,4.41627 -0.84274,1.60739 -2.45013,2.49688 -1.60739,0.88949 -3.48004,0.88949 -3.05858,0 -4.93123,-1.96614 -1.87266,-1.96634 -1.87266,-5.61797 z m 2.52804,0 q 0,2.77772 1.21727,4.16658 1.21728,1.38887 3.05858,1.38887 1.81033,0 3.02761,-1.40445 1.21707,-1.40444 1.21707,-4.24468 0,-2.68424 -1.21707,-4.07311 -1.21728,-1.38886 -3.02761,-1.38886 -1.8413,0 -3.05858,1.37328 -1.21727,1.37328 -1.21727,4.18237 z m 13.96112,-7.2723 h 5.64913 q 2.09119,0 3.10552,0.35895 1.01433,0.35895 1.74781,1.2798 0.73348,0.92065 0.73348,2.23141 0,1.03011 -0.43705,1.79475 -0.43686,0.76464 -1.2796,1.29518 1.02991,0.34337 1.70107,1.2796 0.67096,0.93643 0.67096,2.21602 -0.12484,2.06003 -1.46696,3.05878 -1.34192,0.99875 -3.90132,0.99875 h -6.52304 z m 2.43436,6.11734 h 2.62172 q 1.5918,0 2.16928,-0.17158 0.57728,-0.17159 1.04549,-0.67096 0.46822,-0.49938 0.46822,-1.18612 0,-1.15475 -0.81159,-1.59181 -0.81138,-0.43685 -2.77772,-0.43685 h -2.7154 z m 0,6.36704 h 3.24593 q 2.09119,0 2.87141,-0.4836 0.78042,-0.48379 0.81158,-1.66991 0,-0.68654 -0.45263,-1.2796 -0.45243,-0.59306 -1.17033,-0.74906 -0.71791,-0.15601 -2.30971,-0.15601 h -2.99625 z"
       style="font-size:14px;font-family:sans-serif;fill:#000000;stroke:none;stroke-width:0.99875"
       id="path286" />
    <rect
       x="696.13"
       y="391.67001"
       width="271.66"
       style="font-size:14px;font-family:sans-serif;fill:none;stroke:#000000;stroke-width:0.5"
       height="191.75999"
       id="rect288" />
    <path
       d="m 927.56115,575.02252 7.67779,-20.00616 h 2.84025 l 8.20852,20.00616 h -3.02761 l -2.34067,-6.05502 h -8.36453 l -2.18487,6.05502 z m 5.77397,-8.20852 h 6.77273 l -2.09119,-5.55545 q -0.93622,-2.52824 -1.40444,-4.15121 -0.37453,1.93518 -1.09243,3.80784 z m 14.0644,-1.65413 q 0,-3.55815 0.73348,-5.72724 0.73348,-2.16908 2.16909,-3.33962 1.4358,-1.17033 3.62047,-1.17033 1.62296,0 2.84024,0.65538 1.21728,0.65538 2.01308,1.87265 0.79581,1.21728 1.23286,2.96509 0.43685,1.74782 0.43685,4.74407 0,3.52678 -0.7177,5.68029 -0.7179,2.1537 -2.1537,3.33962 -1.43561,1.18611 -3.65163,1.18611 -2.87141,0 -4.52554,-2.09118 -1.9975,-2.49688 -1.9975,-8.11484 z m 2.52804,0 q 0,4.93122 1.15475,6.55419 1.15496,1.62297 2.84025,1.62297 1.71665,0 2.8714,-1.63855 1.15476,-1.63855 1.15476,-6.53861 0,-4.96259 -1.15476,-6.58556 -1.15475,-1.62297 -2.90257,-1.62297 -1.68549,0 -2.68424,1.4358 -1.27959,1.8413 -1.27959,6.77273 z"
       style="font-size:14px;font-family:sans-serif;fill:#000000;stroke:none;stroke-width:3.995"
       id="path290" />
    <path
       d="m 554.44213,436.45535 2.65288,0.68654 q -0.84274,3.24594 -3.01183,4.96259 -2.16908,1.71665 -5.29018,1.71665 -3.24594,0 -5.2748,-1.32654 -2.02866,-1.32654 -3.07415,-3.82342 -1.04569,-2.49687 -1.04569,-5.36828 0,-3.12109 1.18612,-5.44618 1.18591,-2.32529 3.40194,-3.52679 2.21602,-1.20169 4.83774,-1.20169 3.02741,0 5.07166,1.52928 2.04444,1.52929 2.85582,4.27585 l -2.62172,0.62422 q -0.68654,-2.18466 -2.01308,-3.18341 -1.32634,-0.99875 -3.32384,-0.99875 -2.30971,0 -3.87015,1.10801 -1.56065,1.10801 -2.18487,2.98067 -0.62422,1.87265 -0.62422,3.83879 0,2.5594 0.74906,4.46322 0.74907,1.90381 2.30971,2.84024 1.56045,0.93623 3.40195,0.93623 2.21602,0 3.76089,-1.2796 1.54486,-1.2796 2.10676,-3.80763 z m 5.58861,-7.49063 h 2.46571 v 11.07974 l 6.80409,-11.07974 h 2.65288 v 14.51304 h -2.46572 v -10.98625 l -6.80388,10.98625 h -2.65308 z m 25.07801,9.20708 2.43455,0.31221 q -0.40589,2.49687 -2.04444,3.9169 -1.63855,1.42022 -4.01058,1.42022 -2.96509,0 -4.77522,-1.95076 -1.81034,-1.95076 -1.81034,-5.60239 0,-2.34087 0.78043,-4.10426 0.78022,-1.76339 2.37203,-2.6373 1.59161,-0.87391 3.46426,-0.87391 2.34087,0 3.85458,1.18612 1.5137,1.18592 1.9196,3.40194 l -2.37204,0.37453 q -0.34337,-1.46696 -1.21727,-2.20044 -0.87391,-0.73349 -2.09118,-0.73349 -1.87266,0 -3.02742,1.32654 -1.15475,1.32654 -1.15475,4.19795 0,2.93373 1.12359,4.26027 1.1236,1.32634 2.90257,1.32634 1.46696,0 2.43435,-0.88949 0.96759,-0.88948 1.21728,-2.73098 z m 3.21478,-9.20708 H 600.09 v 2.05983 h -4.65038 v 12.45321 h -2.46571 v -12.45321 h -4.65038 z m 24.0441,9.8313 2.5594,0.31221 q -0.62422,2.24719 -2.24719,3.48004 -1.62297,1.23286 -4.1512,1.23286 -3.18342,0 -5.04049,-1.96634 -1.85708,-1.96634 -1.85708,-5.49312 0,-3.683 1.88824,-5.69608 1.88824,-2.01308 4.88449,-2.01308 2.90276,0 4.74406,1.98192 1.84149,1.98192 1.84149,5.57123 0,0.21833 0,0.65538 h -10.83024 q 0.1562,2.37203 1.3577,3.65163 1.20169,1.2796 3.04319,1.2796 1.34192,0 2.29393,-0.7177 0.95201,-0.7179 1.5137,-2.27855 z m -8.05232,-3.96364 h 8.08349 q -0.15601,-1.8415 -0.93623,-2.74656 -1.15476,-1.40465 -3.02741,-1.40465 -1.71666,0 -2.85583,1.1236 -1.13917,1.12359 -1.26402,3.02761 z m 13.7424,-5.86766 h 3.839 l 3.80783,11.61047 4.21333,-11.61047 h 3.55815 v 14.51304 h -2.46572 v -11.67299 l -4.27585,11.67299 h -2.21602 l -4.05733,-12.23469 v 12.23469 h -2.40339 z m 19.19478,0 h 2.43455 v 6.05483 h 6.83505 v -6.05483 h 2.43455 v 14.51304 h -2.43455 v -6.42955 h -6.83505 v 6.42955 h -2.43455 z m 29.20764,0 h 2.46572 v 14.51304 h -2.46572 z m -13.73281,0 h 2.46572 v 5.68029 h 3.08973 q 3.05877,0 4.69732,1.18612 1.63855,1.18592 1.63855,3.24594 0,1.81013 -1.37328,3.10551 -1.37328,1.29518 -4.36953,1.29518 h -6.14851 z m 2.46572,12.48438 h 2.55919 q 2.34087,0 3.33962,-0.57748 0.99875,-0.57748 0.99875,-1.76339 0,-0.96759 -0.73348,-1.70107 -0.73348,-0.73349 -3.26152,-0.73349 h -2.90256 z m 27.49678,-2.65308 2.5592,0.31221 q -0.62422,2.24719 -2.24719,3.48004 -1.62297,1.23286 -4.151,1.23286 -3.18342,0 -5.0405,-1.96634 -1.85707,-1.96634 -1.85707,-5.49312 0,-3.683 1.88824,-5.69608 1.88823,-2.01308 4.88448,-2.01308 2.90257,0 4.74406,1.98192 1.8415,1.98192 1.8415,5.57123 0,0.21833 0,0.65538 h -10.83025 q 0.15601,2.37203 1.35771,3.65163 1.20169,1.2796 3.04299,1.2796 1.34212,0 2.29413,-0.7177 0.9518,-0.7179 1.5137,-2.27855 z m -8.05252,-3.96364 h 8.08368 q -0.156,-1.8415 -0.93623,-2.74656 -1.15495,-1.40465 -3.02761,-1.40465 -1.71645,0 -2.85582,1.1236 -1.13918,1.12359 -1.26402,3.02761 z"
       style="font-size:14px;font-family:sans-serif;fill:#000000;stroke:none;stroke-width:0.99875"
       id="path292" />
    <path
       d="m 564.96416,464.1393 h 5.64913 q 2.09118,0 3.10552,0.35895 1.01433,0.35895 1.74781,1.2798 0.73348,0.92065 0.73348,2.23141 0,1.03011 -0.43705,1.79475 -0.43686,0.76464 -1.2796,1.29518 1.02991,0.34337 1.70087,1.2796 0.67116,0.93643 0.67116,2.21602 -0.12484,2.06003 -1.46696,3.05878 -1.34212,0.99875 -3.90132,0.99875 h -6.52304 z m 2.43436,6.11734 h 2.62171 q 1.59181,0 2.16909,-0.17158 0.57748,-0.17159 1.04569,-0.67096 0.46822,-0.49938 0.46822,-1.18612 0,-1.15475 -0.81159,-1.59181 -0.81138,-0.43685 -2.77772,-0.43685 h -2.7154 z m 0,6.36703 h 3.24593 q 2.09119,0 2.87141,-0.48359 0.78022,-0.48379 0.81158,-1.66991 0,-0.68654 -0.45263,-1.2796 -0.45263,-0.59306 -1.17034,-0.74906 -0.7179,-0.15601 -2.3097,-0.15601 h -2.99625 z m 26.18602,-12.48437 h 2.46572 v 14.51324 h -2.46572 z m -13.73281,0 h 2.46571 v 5.68049 h 3.08974 q 3.05877,0 4.69732,1.18592 1.63855,1.18611 1.63855,3.24593 0,1.81034 -1.37328,3.10552 -1.37329,1.29538 -4.36954,1.29538 h -6.1485 z m 2.46571,12.48437 h 2.5592 q 2.34087,0 3.33962,-0.57727 0.99875,-0.57748 0.99875,-1.7634 0,-0.96758 -0.73348,-1.70107 -0.73348,-0.73348 -3.26152,-0.73348 h -2.90257 z m 20.78639,-4.52553 v -1.93498 q 1.56065,0 2.12234,-0.10926 0.5619,-0.10927 1.06127,-0.65538 0.49938,-0.54632 0.49938,-1.3577 0,-0.99875 -0.65558,-1.59181 -0.65538,-0.59306 -1.71645,-0.59306 -2.06002,0 -2.90277,2.43455 l -2.34067,-0.37453 q 1.09223,-4.08868 5.2746,-4.08868 2.34087,0 3.65163,1.26402 1.31096,1.26402 1.31096,3.04299 0,1.77917 -1.71665,2.80908 1.09243,0.59306 1.63855,1.49813 0.54611,0.90507 0.54611,2.1535 0,1.96634 -1.42002,3.18362 -1.42002,1.21708 -3.97942,1.21708 -4.96259,0 -5.74281,-4.43186 l 2.30971,-0.49937 q 0.31201,1.40444 1.27959,2.16908 0.96759,0.76465 2.18467,0.76465 1.24844,0 2.0756,-0.70213 0.82717,-0.70232 0.82717,-1.79475 0,-0.84254 -0.51516,-1.46676 -0.51495,-0.62422 -1.10781,-0.78043 -0.59306,-0.156 -2.12234,-0.156 -0.12485,0 -0.5619,0 z m 8.70211,-0.68654 q 0,-4.02636 2.24718,-5.9925 1.8413,-1.59181 4.5567,-1.59181 2.96509,0 4.86891,1.95076 1.90382,1.95056 1.90382,5.41502 0,2.80889 -0.84255,4.41627 -0.84275,1.60739 -2.45013,2.49688 -1.60739,0.88949 -3.48005,0.88949 -3.05857,0 -4.93123,-1.96614 -1.87265,-1.96634 -1.87265,-5.61797 z m 2.52803,0 q 0,2.77772 1.21728,4.16658 1.21708,1.38887 3.05857,1.38887 1.81034,0 3.02741,-1.40445 1.21728,-1.40444 1.21728,-4.24468 0,-2.68425 -1.21728,-4.07311 -1.21707,-1.38886 -3.02741,-1.38886 -1.84149,0 -3.05857,1.37328 -1.21728,1.37328 -1.21728,4.18237 z m 13.96093,-7.2723 h 5.64933 q 2.09098,0 3.10551,0.35895 1.01433,0.35895 1.74782,1.2798 0.73328,0.92065 0.73328,2.23141 0,1.03011 -0.43686,1.79475 -0.43705,0.76464 -1.27959,1.29518 1.02991,0.34337 1.70087,1.2796 0.67116,0.93643 0.67116,2.21602 -0.12485,2.06003 -1.46697,3.05878 -1.34212,0.99875 -3.90131,0.99875 h -6.52324 z m 2.43455,6.11734 h 2.62172 q 1.59181,0 2.16909,-0.17158 0.57747,-0.17159 1.04569,-0.67096 0.46801,-0.49938 0.46801,-1.18612 0,-1.15475 -0.81138,-1.59181 -0.81159,-0.43685 -2.77773,-0.43685 h -2.7154 z m 0,6.36703 h 3.24594 q 2.09118,0 2.87141,-0.48359 0.78022,-0.48379 0.81138,-1.66991 0,-0.68654 -0.45243,-1.2796 -0.45264,-0.59306 -1.17054,-0.74906 -0.7177,-0.15601 -2.30951,-0.15601 h -2.99625 z m 26.18603,-12.48437 h 2.46551 v 14.51324 h -2.46551 z m -13.73281,0 h 2.46551 v 5.68049 h 3.08993 q 3.05878,0 4.69733,1.18592 1.63854,1.18611 1.63854,3.24593 0,1.81034 -1.37328,3.10552 -1.37328,1.29538 -4.36953,1.29538 h -6.1485 z m 2.46551,12.48437 h 2.5594 q 2.34087,0 3.33962,-0.57727 0.99875,-0.57748 0.99875,-1.7634 0,-0.96758 -0.73348,-1.70107 -0.73349,-0.73348 -3.26152,-0.73348 h -2.90277 z"
       style="font-size:14px;font-family:sans-serif;fill:#000000;stroke:none;stroke-width:0.99875"
       id="path294" />
    <path
       d="m 621.59349,615.2316 h 12.98375 v 2.34067 h -10.33087 v 6.17986 h 4.77522 q 2.65288,0 4.21353,0.49938 1.56044,0.49937 2.51245,1.90382 0.95201,1.40444 0.95201,3.27709 0,1.49813 -0.68674,2.82467 -0.68654,1.32654 -2.02866,2.1535 -1.34212,0.82717 -4.5569,0.82717 h -7.83379 z m 2.65288,17.75897 h 5.30576 q 2.12234,0 3.19919,-0.8739 1.07685,-0.87391 1.07685,-2.62172 0,-1.24844 -0.60863,-2.07561 -0.60864,-0.82696 -1.70107,-1.10801 -1.09244,-0.28085 -3.74532,-0.28085 h -3.52678 z m 15.2621,-12.26585 h 2.46571 v 11.07974 l 6.80388,-11.07974 h 2.65308 v 14.51304 h -2.46571 v -10.98625 l -6.80408,10.98625 h -2.65288 z m 26.23276,-5.9925 2.18487,0.0312 q -0.15621,1.46697 -0.65558,2.04425 -0.49938,0.57747 -1.2796,0.73348 -0.78022,0.156 -3.08993,0.156 -3.02741,0 -4.13543,0.59306 -1.10801,0.59306 -1.5916,1.88824 -0.4838,1.29538 -0.54632,3.32404 0.93643,-1.37328 2.18487,-2.07561 1.24843,-0.70212 2.77772,-0.70212 2.8714,0 4.74406,1.96614 1.87266,1.96634 1.87266,5.30596 0,2.52804 -0.95201,4.16659 -0.95181,1.63855 -2.23161,2.52823 -1.2796,0.88949 -3.52678,0.88949 -2.5592,0 -3.995,-1.18612 -1.43561,-1.18591 -2.20025,-3.02741 -0.76484,-1.84149 -0.76484,-6.42955 0,-5.74281 1.95076,-7.74031 1.95075,-1.9975 5.97692,-1.9975 2.52803,0 2.85582,-0.0779 0.32759,-0.0781 0.42127,-0.39012 z m -0.0937,13.20208 q 0,-2.27835 -1.07665,-3.71395 -1.07685,-1.4358 -3.04319,-1.4358 -2.02866,0 -3.13668,1.52928 -1.10801,1.52949 -1.10801,4.05752 0,2.52804 1.23286,3.87016 1.23285,1.34212 3.01183,1.34212 1.81033,0 2.96509,-1.54507 1.15475,-1.54486 1.15475,-4.10426 z m 6.71639,-7.20958 h 11.39195 v 14.51304 h -2.43456 v -12.45321 h -6.52303 v 7.20977 q 0,2.52804 -0.15601,3.33962 -0.156,0.81139 -0.88948,1.40444 -0.73349,0.59306 -2.13793,0.59306 -0.8739,0 -1.96634,-0.0937 v -2.06002 h 1.06108 q 0.78042,0 1.10801,-0.15601 0.32779,-0.156 0.43705,-0.49937 0.10926,-0.34337 0.10926,-2.21603 z m 15.10011,0 h 2.46571 v 11.07974 l 6.80388,-11.07974 h 2.65308 v 14.51304 h -2.46571 v -10.98625 l -6.80408,10.98625 h -2.65288 z m 14.71598,7.2721 q 0,-4.02616 2.24719,-5.9925 1.84149,-1.59181 4.55689,-1.59181 2.96489,0 4.86891,1.95076 1.90382,1.95056 1.90382,5.41503 0,2.80908 -0.84275,4.41647 -0.84274,1.60719 -2.45013,2.49687 -1.60719,0.88949 -3.47985,0.88949 -3.05877,0 -4.93143,-1.96634 -1.87265,-1.96634 -1.87265,-5.61797 z m 2.52803,0 q 0,2.77773 1.21728,4.16659 1.21728,1.38886 3.05877,1.38886 1.81014,0 3.02741,-1.40444 1.21728,-1.40445 1.21728,-4.24469 0,-2.68404 -1.21728,-4.0729 -1.21727,-1.38907 -3.02741,-1.38907 -1.84149,0 -3.05877,1.37329 -1.21728,1.37328 -1.21728,4.18236 z m 12.61901,-7.2721 h 11.76647 v 2.05983 h -4.65038 v 12.45321 h -2.46571 v -12.45321 h -4.65038 z m 24.04411,9.8313 2.55939,0.31221 q -0.62421,2.24719 -2.24718,3.48004 -1.62297,1.23286 -4.15101,1.23286 -3.18361,0 -5.04069,-1.96634 -1.85707,-1.96634 -1.85707,-5.49312 0,-3.683 1.88823,-5.69608 1.88844,-2.01308 4.88469,-2.01308 2.90257,0 4.74406,1.98192 1.8413,1.98192 1.8413,5.57123 0,0.21833 0,0.65538 h -10.83005 q 0.15601,2.37203 1.3575,3.65163 1.2017,1.2796 3.04319,1.2796 1.34212,0 2.29393,-0.7177 0.95201,-0.7179 1.51371,-2.27855 z m -8.05232,-3.96364 h 8.08368 q -0.15621,-1.8415 -0.93643,-2.74656 -1.15475,-1.40465 -3.02741,-1.40465 -1.71665,0 -2.85583,1.1236 -1.13917,1.12359 -1.26401,3.02761 z m 13.68007,-5.86766 h 2.43456 v 6.27335 q 1.18591,0 1.65413,-0.45263 0.46821,-0.45244 1.40444,-2.60614 0.7179,-1.71645 1.17033,-2.26277 0.45264,-0.54611 1.03012,-0.74906 0.57727,-0.20275 1.88823,-0.20275 h 0.49938 v 2.05983 l -0.68674,-0.0312 q -0.96739,0 -1.24844,0.28085 -0.28085,0.31221 -0.87391,1.81034 -0.56169,1.40444 -1.02991,1.95056 -0.46821,0.54631 -1.4356,1.01433 1.59161,0.40589 3.12109,2.93392 l 2.68404,4.49438 h -2.7154 l -2.62172,-4.49438 q -0.78022,-1.34212 -1.38886,-1.77897 -0.60864,-0.43705 -1.45118,-0.43705 v 6.7104 h -2.43456 z m 21.69166,12.73407 q -1.34212,1.15475 -2.60614,1.63854 -1.26402,0.4838 -2.73098,0.4838 -2.37204,0 -3.66721,-1.17054 -1.29538,-1.17033 -1.29538,-3.01183 0,-1.06107 0.48379,-1.93497 0.4838,-0.87391 1.2796,-1.40465 0.796,-0.53053 1.76359,-0.81138 0.7177,-0.18737 2.18467,-0.37453 2.99625,-0.34337 4.40069,-0.84275 0,-0.49937 0,-0.62422 0,-1.52928 -0.68654,-2.12234 -0.93643,-0.84275 -2.80908,-0.84275 -1.71646,0 -2.54362,0.60864 -0.82717,0.60864 -1.23286,2.13793 l -2.40319,-0.31201 q 0.31201,-1.56065 1.07665,-2.49688 0.76484,-0.93643 2.18487,-1.45138 1.42002,-0.51496 3.29268,-0.51496 1.84149,0 2.99625,0.43706 1.15495,0.43685 1.70107,1.09223 0.54611,0.65558 0.76464,1.68549 0.12484,0.62422 0.12484,2.24719 v 3.2771 q 0,3.4333 0.15601,4.33837 0.1562,0.90506 0.62422,1.74781 h -2.5592 q -0.37453,-0.78022 -0.49937,-1.77897 z m -0.18737,-5.49313 q -1.34192,0.53054 -4.02616,0.93623 -1.49813,0.21853 -2.13792,0.48379 -0.6398,0.26527 -0.98317,0.79581 -0.34337,0.53073 -0.34337,1.15495 0,0.99875 0.74906,1.65413 0.74906,0.65538 2.18486,0.65538 1.43561,0 2.52804,-0.62422 1.09243,-0.62422 1.62297,-1.71665 0.40569,-0.81138 0.40569,-2.43435 z"
       style="font-size:14px;font-family:sans-serif;fill:#000000;stroke:none;stroke-width:0.99875"
       id="path296" />
    <path
       d="m 663.59452,670.41254 v -12.57806 h -2.18467 v -1.93518 h 2.18467 v -1.52929 q 0,-1.46696 0.24969,-2.18466 0.37453,-0.93643 1.26402,-1.52949 0.88948,-0.59286 2.51245,-0.59286 1.03011,0 2.27855,0.24969 l -0.37453,2.12235 q -0.74906,-0.12485 -1.4358,-0.12485 -1.1236,0 -1.59181,0.46802 -0.46802,0.46821 -0.46802,1.77917 v 1.34192 h 2.84005 v 1.93518 h -2.84005 v 12.57806 z m 12.5449,-2.18487 0.34337,2.1535 q -1.03011,0.21853 -1.8415,0.21853 -1.34212,0 -2.0756,-0.42127 -0.73348,-0.42147 -1.02991,-1.10801 -0.29643,-0.68674 -0.29643,-2.90257 v -8.33337 h -1.81033 v -1.93518 h 1.81033 v -3.58911 l 2.43436,-1.46696 v 5.05607 h 2.46571 v 1.93518 h -2.46571 v 8.45821 q 0,1.06107 0.12484,1.3577 0.12484,0.29643 0.42127,0.4836 0.29663,0.18736 0.82717,0.18736 0.43705,0 1.09243,-0.0937 z m 2.37003,2.18487 V 655.8993 h 2.21603 v 2.21603 q 0.84274,-1.56045 1.56045,-2.04424 0.7179,-0.4838 1.5918,-0.4838 1.24844,0 2.52804,0.78022 l -0.84255,2.27835 q -0.90526,-0.53053 -1.81033,-0.53053 -0.81138,0 -1.45138,0.48379 -0.6398,0.4838 -0.92065,1.3577 -0.40569,1.31076 -0.40569,2.87141 v 7.58431 z m 18.80067,-1.77918 q -1.34212,1.15496 -2.60614,1.63875 -1.26401,0.4836 -2.73098,0.4836 -2.37203,0 -3.66721,-1.17034 -1.29518,-1.17033 -1.29518,-3.01183 0,-1.06127 0.4838,-1.93518 0.48359,-0.8739 1.2796,-1.40444 0.7958,-0.53054 1.76339,-0.81138 0.7179,-0.18737 2.18467,-0.37454 2.99625,-0.34337 4.40089,-0.84274 0,-0.49938 0,-0.62422 0,-1.52929 -0.68674,-2.12234 -0.93623,-0.84275 -2.80889,-0.84275 -1.71665,0 -2.54381,0.60864 -0.82697,0.60864 -1.23286,2.13792 l -2.40319,-0.31201 q 0.31221,-1.56064 1.07685,-2.49687 0.76464,-0.93643 2.18466,-1.45138 1.42023,-0.51496 3.29288,-0.51496 1.8413,0 2.99625,0.43685 1.15476,0.43706 1.70087,1.09244 0.54632,0.65538 0.76465,1.68549 0.12484,0.62422 0.12484,2.24718 v 3.2771 q 0,3.43311 0.15621,4.33837 0.156,0.90507 0.62421,1.74782 h -2.55939 q -0.37453,-0.78043 -0.49938,-1.77918 z m -0.18716,-5.49312 q -1.34212,0.53073 -4.02636,0.93643 -1.49813,0.21852 -2.13793,0.48379 -0.6398,0.26527 -0.98317,0.7958 -0.34317,0.53054 -0.34317,1.15476 0,0.99875 0.74906,1.65433 0.74907,0.65538 2.18467,0.65538 1.4358,0 2.52804,-0.62422 1.09243,-0.62422 1.62297,-1.71665 0.40589,-0.81139 0.40589,-2.43436 z m 15.7401,1.96634 2.43435,0.31221 q -0.40569,2.49687 -2.04424,3.91689 -1.63855,1.42003 -4.01058,1.42003 -2.96509,0 -4.77542,-1.95056 -1.81014,-1.95076 -1.81014,-5.60239 0,-2.34087 0.78022,-4.10426 0.78023,-1.7634 2.37204,-2.6373 1.5918,-0.87391 3.46446,-0.87391 2.34087,0 3.85458,1.18592 1.5137,1.18611 1.91939,3.40214 l -2.37203,0.37453 q -0.34337,-1.46696 -1.21727,-2.20045 -0.87391,-0.73348 -2.09099,-0.73348 -1.87265,0 -3.02761,1.32654 -1.15475,1.32634 -1.15475,4.19775 0,2.93393 1.12359,4.26047 1.12359,1.32634 2.90257,1.32634 1.46696,0 2.43455,-0.88949 0.96759,-0.88949 1.21728,-2.73098 z m 14.45051,0.62422 2.5594,0.3122 q -0.62422,2.24719 -2.24719,3.48005 -1.62297,1.23266 -4.151,1.23266 -3.18362,0 -5.0407,-1.96614 -1.85707,-1.96634 -1.85707,-5.49313 0,-3.68299 1.88824,-5.69607 1.88843,-2.01308 4.88468,-2.01308 2.90257,0 4.74407,1.98192 1.84129,1.98192 1.84129,5.57103 0,0.21852 0,0.65558 h -10.83005 q 0.15601,2.37203 1.35751,3.65163 1.20169,1.2796 3.04319,1.2796 1.34212,0 2.29393,-0.71791 0.952,-0.7177 1.5137,-2.27834 z m -8.05232,-3.96384 h 8.08368 q -0.1562,-1.8413 -0.93643,-2.74657 -1.15475,-1.40444 -3.02741,-1.40444 -1.71665,0 -2.85582,1.1236 -1.13918,1.12359 -1.26402,3.02741 z"
       style="font-size:14px;font-family:sans-serif;fill:#000000;stroke:none;stroke-width:0.99875"
       id="path298" />
    <path
       d="m 892.24295,660.81515 v -20.00616 h 2.43436 v 11.39194 l 5.83649,-5.89882 h 3.18362 l -5.55565,5.39944 6.11734,9.1136 h -3.05857 l -4.77542,-7.42831 -1.74781,1.68549 v 5.74282 z m 23.40811,-1.77898 q -1.34193,1.15476 -2.60594,1.63855 -1.26422,0.4838 -2.73099,0.4838 -2.37203,0 -3.66741,-1.17054 -1.29517,-1.17033 -1.29517,-3.01183 0,-1.06107 0.48379,-1.93498 0.48379,-0.8739 1.2796,-1.40464 0.7958,-0.53053 1.76339,-0.81138 0.7179,-0.18737 2.18487,-0.37453 2.99625,-0.34337 4.40069,-0.84275 0,-0.49937 0,-0.62422 0,-1.52928 -0.68674,-2.12234 -0.93623,-0.84275 -2.80889,-0.84275 -1.71665,0 -2.54361,0.60864 -0.82717,0.60864 -1.23286,2.13793 l -2.40339,-0.31201 q 0.31221,-1.56065 1.07685,-2.49688 0.76464,-0.93643 2.18487,-1.45138 1.42002,-0.51496 3.29268,-0.51496 1.84149,0 2.99625,0.43706 1.15475,0.43685 1.70107,1.09223 0.54611,0.65558 0.76464,1.68549 0.12484,0.62422 0.12484,2.24719 v 3.27709 q 0,3.43331 0.15601,4.33837 0.156,0.90507 0.62422,1.74782 h -2.5594 q -0.37453,-0.78023 -0.49937,-1.77898 z m -0.18717,-5.49312 q -1.34212,0.53053 -4.02616,0.93623 -1.49813,0.21852 -2.13793,0.48379 -0.63999,0.26527 -0.98317,0.79581 -0.34337,0.53073 -0.34337,1.15495 0,0.99875 0.74907,1.65413 0.74906,0.65538 2.18466,0.65538 1.43581,0 2.52824,-0.62422 1.09223,-0.62422 1.62297,-1.71665 0.40569,-0.81138 0.40569,-2.43435 z m 6.22081,7.2721 v -20.00616 h 2.46552 v 20.00616 z m 6.21283,0 v -20.00616 h 2.46571 v 20.00616 z m 5.30775,-4.33837 2.4034,-0.37453 q 0.21832,1.46696 1.15475,2.24718 0.93623,0.78023 2.62172,0.78023 1.68529,0 2.51246,-0.68654 0.82716,-0.68674 0.82716,-1.62297 0,-0.84275 -0.74906,-1.31096 -0.49938,-0.34317 -2.49688,-0.84255 -2.7154,-0.68674 -3.76109,-1.18611 -1.04549,-0.49938 -1.57603,-1.37328 -0.53053,-0.87391 -0.53053,-1.93498 0,-0.96759 0.43685,-1.79476 0.43705,-0.82696 1.21728,-1.38886 0.56169,-0.40569 1.54486,-0.70232 0.98317,-0.29643 2.13793,-0.29643 1.68549,0 2.98067,0.4838 1.29538,0.48379 1.91959,1.32654 0.62422,0.84254 0.84255,2.24718 l -2.40319,0.34317 q -0.15601,-1.12359 -0.95201,-1.74781 -0.7958,-0.62422 -2.23141,-0.62422 -1.68549,0 -2.40339,0.54632 -0.7177,0.54612 -0.7177,1.32634 0,0.46821 0.28085,0.84274 0.31201,0.4057 0.96759,0.65538 0.34317,0.12485 2.1535,0.62422 2.62172,0.7179 3.65163,1.15496 1.02991,0.43685 1.60739,1.2796 0.57748,0.84274 0.57748,2.09118 0,1.24844 -0.70233,2.32509 -0.70232,1.07685 -2.06002,1.68549 -1.3575,0.60864 -3.07415,0.60864 -2.80908,0 -4.29163,-1.18612 -1.48234,-1.18591 -1.88824,-3.49562 z m 14.85641,9.92518 -0.28085,-2.30971 q 0.81159,0.21852 1.40445,0.21852 0.81158,0 1.31095,-0.26527 0.49938,-0.26526 0.81139,-0.76464 0.21853,-0.37453 0.74906,-1.84149 0.0625,-0.18737 0.21853,-0.59306 l -5.52429,-14.5442 h 2.65288 l 3.02741,8.39569 q 0.59306,1.62297 1.06127,3.37078 0.4057,-1.68549 0.99875,-3.30845 l 3.08994,-8.45802 h 2.46551 l -5.52428,14.76273 q -0.87391,2.37203 -1.37329,3.27709 -0.65538,1.21728 -1.49812,1.79456 -0.84275,0.57747 -2.02866,0.57747 -0.68674,0 -1.56065,-0.312 z m 14.07618,-5.58681 v -14.51304 h 2.21603 v 2.05982 q 0.65538,-1.09243 1.79455,-1.73223 1.13918,-0.6398 2.57498,-0.6398 1.62297,0 2.65288,0.67096 1.02991,0.67116 1.46697,1.85708 1.71665,-2.52804 4.46321,-2.52804 2.1535,0 3.32384,1.18612 1.17053,1.18591 1.17053,3.68279 v 9.95634 h -2.46571 v -9.14476 q 0,-1.46696 -0.23411,-2.12234 -0.2341,-0.65558 -0.85832,-1.04569 -0.62422,-0.39011 -1.46697,-0.39011 -1.52928,0 -2.54361,1.01433 -1.01433,1.01433 -1.01433,3.26151 v 8.42706 h -2.46572 v -9.42581 q 0,-1.62296 -0.59305,-2.44993 -0.59286,-0.82716 -1.96614,-0.82716 -1.03012,0 -1.9196,0.54611 -0.88949,0.54632 -1.2796,1.59181 -0.39011,1.04569 -0.39011,3.04319 v 7.52179 z m 22.32746,-4.33837 2.40339,-0.37453 q 0.21833,1.46696 1.15476,2.24718 0.93622,0.78023 2.62172,0.78023 1.68529,0 2.51245,-0.68654 0.82717,-0.68674 0.82717,-1.62297 0,-0.84275 -0.74907,-1.31096 -0.49937,-0.34317 -2.49687,-0.84255 -2.7154,-0.68674 -3.7609,-1.18611 -1.04569,-0.49938 -1.57622,-1.37328 -0.53054,-0.87391 -0.53054,-1.93498 0,-0.96759 0.43686,-1.79476 0.43705,-0.82696 1.21727,-1.38886 0.5617,-0.40569 1.54487,-0.70232 0.98317,-0.29643 2.13792,-0.29643 1.68549,0 2.98067,0.4838 1.29538,0.48379 1.9196,1.32654 0.62422,0.84254 0.84254,2.24718 l -2.40319,0.34317 q -0.156,-1.12359 -0.95181,-1.74781 -0.796,-0.62422 -2.2316,-0.62422 -1.68549,0 -2.4034,0.54632 -0.7177,0.54612 -0.7177,1.32634 0,0.46821 0.28085,0.84274 0.31201,0.4057 0.96759,0.65538 0.34317,0.12485 2.15351,0.62422 2.62171,0.7179 3.65162,1.15496 1.02992,0.43685 1.60739,1.2796 0.57748,0.84274 0.57748,2.09118 0,1.24844 -0.70232,2.32509 -0.70232,1.07685 -2.05982,1.68549 -1.3577,0.60864 -3.07435,0.60864 -2.80909,0 -4.29143,-1.18612 -1.48255,-1.18591 -1.88844,-3.49562 z m 12.67174,9.89381 v -1.77897 h 16.29203 v 1.77897 z m 17.76873,-5.55544 v -20.00616 h 2.4657 v 20.00616 z m 5.3703,-7.24094 q 0,-4.02616 2.2472,-5.9925 1.8415,-1.59181 4.5567,-1.59181 2.9651,0 4.8689,1.95076 1.904,1.95056 1.904,5.41502 0,2.80909 -0.8427,4.41628 -0.8428,1.60738 -2.4502,2.49687 -1.6073,0.88969 -3.48,0.88969 -3.0586,0 -4.9312,-1.96634 -1.8727,-1.96634 -1.8727,-5.61797 z m 2.528,0 q 0,2.77772 1.2173,4.16659 1.2173,1.38886 3.0586,1.38886 1.8103,0 3.0276,-1.40445 1.2171,-1.40444 1.2171,-4.24468 0,-2.68404 -1.2171,-4.07311 -1.2173,-1.38886 -3.0276,-1.38886 -1.8413,0 -3.0586,1.37328 -1.2173,1.37329 -1.2173,4.18237 z m 13.0247,0 q 0,-4.02616 2.2472,-5.9925 1.8415,-1.59181 4.5569,-1.59181 2.9649,0 4.8689,1.95076 1.9039,1.95056 1.9039,5.41502 0,2.80909 -0.8428,4.41628 -0.8427,1.60738 -2.4501,2.49687 -1.6072,0.88969 -3.4799,0.88969 -3.0587,0 -4.9314,-1.96634 -1.8727,-1.96634 -1.8727,-5.61797 z m 2.5281,0 q 0,2.77772 1.2173,4.16659 1.2172,1.38886 3.0587,1.38886 1.8102,0 3.0274,-1.40445 1.2173,-1.40444 1.2173,-4.24468 0,-2.68404 -1.2173,-4.07311 -1.2172,-1.38886 -3.0274,-1.38886 -1.8415,0 -3.0587,1.37328 -1.2173,1.37329 -1.2173,4.18237 z m 13.9611,7.24094 v -20.00616 h 2.4344 v 11.39194 l 5.8365,-5.89882 h 3.1836 l -5.5557,5.39944 6.1174,9.1136 h -3.0586 l -4.7754,-7.42831 -1.7478,1.68549 v 5.74282 z m 23.4706,0 v -2.12235 q -1.7166,2.46572 -4.6192,2.46572 -1.2796,0 -2.3876,-0.49938 -1.108,-0.49937 -1.6541,-1.24843 -0.5463,-0.74907 -0.7649,-1.81034 -0.156,-0.7179 -0.156,-2.30951 v -8.98875 h 2.4657 v 8.05232 q 0,1.93518 0.156,2.59056 0.2186,0.96759 0.9676,1.52929 0.7491,0.56189 1.8727,0.56189 1.0924,0 2.0598,-0.57747 0.9676,-0.57748 1.3733,-1.54487 0.4059,-0.96759 0.4059,-2.84025 v -7.77147 h 2.4655 v 14.51304 z m 6.0335,5.55544 v -20.06848 h 2.2472 v 1.90382 q 0.7802,-1.12359 1.7789,-1.66991 0.9988,-0.54612 2.4346,-0.54612 1.8415,0 3.2615,0.95201 1.42,0.95181 2.1379,2.69962 0.7179,1.74781 0.7179,3.80784 0,2.21602 -0.796,4.01058 -0.7958,1.79455 -2.3095,2.74656 -1.5137,0.95201 -3.1992,0.95201 -1.217,0 -2.2002,-0.53074 -0.9832,-0.53053 -1.6074,-1.31076 v 7.05357 z m 2.216,-12.73406 q 0,2.80909 1.1392,4.15121 1.1392,1.34192 2.7621,1.34192 1.623,0 2.7933,-1.38886 1.1706,-1.38887 1.1706,-4.29143 0,-2.77773 -1.1392,-4.15101 -1.1392,-1.37328 -2.731,-1.37328 -1.5606,0 -2.7777,1.46676 -1.2173,1.46697 -1.2173,4.24469 z m 11.0584,12.73406 v -1.77897 h 16.2922 v 1.77897 z m 17.8313,-5.55544 v -14.51304 h 2.2158 v 2.05982 q 1.5918,-2.37203 4.6192,-2.37203 1.311,0 2.4034,0.46822 1.0922,0.46821 1.6385,1.23285 0.5462,0.76465 0.7647,1.82572 0.156,0.68674 0.156,2.37203 v 8.92643 h -2.4657 v -8.83275 q 0,-1.49812 -0.2809,-2.2316 -0.2808,-0.73349 -1.0143,-1.18592 -0.7335,-0.45263 -1.7322,-0.45263 -1.5605,0 -2.6997,0.99875 -1.1393,0.99875 -1.1393,3.77647 v 7.92768 z m 25.0096,-1.77898 q -1.3421,1.15476 -2.6061,1.63855 -1.264,0.4838 -2.731,0.4838 -2.372,0 -3.6672,-1.17054 -1.2954,-1.17033 -1.2954,-3.01183 0,-1.06107 0.4838,-1.93498 0.4838,-0.8739 1.2796,-1.40464 0.796,-0.53053 1.7636,-0.81138 0.7177,-0.18737 2.1847,-0.37453 2.9962,-0.34337 4.4007,-0.84275 0,-0.49937 0,-0.62422 0,-1.52928 -0.6866,-2.12234 -0.9364,-0.84275 -2.809,-0.84275 -1.7165,0 -2.5437,0.60864 -0.8271,0.60864 -1.2328,2.13793 l -2.4032,-0.31201 q 0.312,-1.56065 1.0766,-2.49688 0.7649,-0.93643 2.1849,-1.45138 1.42,-0.51496 3.2927,-0.51496 1.8415,0 2.9962,0.43706 1.155,0.43685 1.7011,1.09223 0.5461,0.65558 0.7647,1.68549 0.1248,0.62422 0.1248,2.24719 v 3.27709 q 0,3.43331 0.156,4.33837 0.1562,0.90507 0.6242,1.74782 h -2.5592 q -0.3745,-0.78023 -0.4994,-1.77898 z m -0.1873,-5.49312 q -1.3419,0.53053 -4.0262,0.93623 -1.4981,0.21852 -2.1379,0.48379 -0.6398,0.26527 -0.9832,0.79581 -0.3433,0.53073 -0.3433,1.15495 0,0.99875 0.749,1.65413 0.7491,0.65538 2.1849,0.65538 1.4356,0 2.528,-0.62422 1.0925,-0.62422 1.623,-1.71665 0.4057,-0.81138 0.4057,-2.43435 z m 6.2831,7.2721 v -14.51304 h 2.216 v 2.05982 q 0.6554,-1.09243 1.7946,-1.73223 1.1394,-0.6398 2.575,-0.6398 1.6229,0 2.6529,0.67096 1.0301,0.67116 1.4669,1.85708 1.7167,-2.52804 4.4632,-2.52804 2.1535,0 3.3239,1.18612 1.1705,1.18591 1.1705,3.68279 v 9.95634 h -2.4657 v -9.14476 q 0,-1.46696 -0.2341,-2.12234 -0.2341,-0.65558 -0.8583,-1.04569 -0.6243,-0.39011 -1.4668,-0.39011 -1.5295,0 -2.5438,1.01433 -1.0143,1.01433 -1.0143,3.26151 v 8.42706 h -2.4658 v -9.42581 q 0,-1.62296 -0.5928,-2.44993 -0.5931,-0.82716 -1.9664,-0.82716 -1.0299,0 -1.9196,0.54611 -0.8894,0.54632 -1.2796,1.59181 -0.3901,1.04569 -0.3901,3.04319 v 7.52179 z m 33.2202,-4.68174 2.5592,0.31221 q -0.6242,2.24718 -2.2471,3.48004 -1.623,1.23286 -4.1511,1.23286 -3.1834,0 -5.0404,-1.96634 -1.8571,-1.96634 -1.8571,-5.49313 0,-3.68299 1.8882,-5.69607 1.8883,-2.01308 4.8845,-2.01308 2.9026,0 4.7441,1.98192 1.8415,1.98192 1.8415,5.57123 0,0.21833 0,0.65538 h -10.8303 q 0.156,2.37203 1.3577,3.65163 1.2017,1.2796 3.043,1.2796 1.3421,0 2.2941,-0.7177 0.9518,-0.71791 1.5137,-2.27855 z m -8.0525,-3.96364 h 8.0837 q -0.156,-1.8415 -0.9362,-2.74656 -1.155,-1.40465 -3.0276,-1.40465 -1.7165,0 -2.8557,1.1236 -1.1393,1.12359 -1.2642,3.02761 z"
       style="font-size:14px;font-family:sans-serif;fill:#000000;stroke:none;stroke-width:0.99875"
       id="path300" />
    <path
       d="m 1001.7251,369.92921 h 2.4032 v 15.85516 l 10.6741,-15.85516 h 2.653 v 20.00616 h -2.4034 v -15.82399 l -10.674,15.82399 h -2.6529 z m 19.7877,5.49312 h 2.4345 v 6.05483 h 6.8351 v -6.05483 h 2.4345 v 14.51304 h -2.4345 v -6.42935 h -6.8351 v 6.42935 h -2.4345 z m 23.8393,-5.49312 h 2.4657 v 6.89757 q 0.7803,-0.87391 1.6853,-1.29518 0.9051,-0.42147 1.9664,-0.42147 2.5905,0 4.0887,2.1537 1.4981,2.1535 1.4981,5.39944 0,3.40194 -1.623,5.50871 -1.623,2.10676 -4.0264,2.10676 -0.8113,0 -1.6229,-0.24969 -0.8114,-0.24968 -1.9662,-1.34212 v 6.80409 h -2.4657 v -6.80409 q -0.7179,0.78023 -1.6074,1.18612 -0.8894,0.40569 -1.9507,0.40569 -2.2784,0 -3.9792,-2.01308 -1.7011,-2.01308 -1.7011,-5.72723 0,-3.15226 1.5449,-5.29038 1.545,-2.13792 4.1354,-2.13792 1.0924,0 1.9819,0.42147 0.8895,0.42127 1.5762,1.29518 z m 2.4657,12.79638 q 0,3.2773 0.9051,4.41648 0.9051,1.13917 2.2472,1.13917 1.4981,0 2.5592,-1.38886 1.0613,-1.38886 1.0613,-4.32279 0,-2.74656 -0.9832,-4.10426 -0.9832,-1.3577 -2.5125,-1.3577 -1.6229,0 -2.4501,1.40464 -0.827,1.40444 -0.827,4.21332 z m -9.2072,-0.24968 q 0,3.05877 1.0299,4.41647 1.0299,1.3577 2.5594,1.3577 1.5916,0 2.3876,-1.34212 0.7958,-1.34212 0.7958,-4.05752 0,-2.87141 -0.827,-4.29143 -0.8271,-1.42002 -2.5126,-1.42002 -1.5293,0 -2.4811,1.38886 -0.952,1.38886 -0.952,3.94806 z m 20.4178,0.21852 q 0,-4.02616 2.2472,-5.9925 1.8413,-1.5918 4.5567,-1.5918 2.9651,0 4.8689,1.95075 1.9038,1.95076 1.9038,5.41503 0,2.80908 -0.8425,4.41647 -0.8428,1.60739 -2.4502,2.49687 -1.6073,0.88949 -3.48,0.88949 -3.0586,0 -4.9312,-1.96634 -1.8727,-1.96634 -1.8727,-5.61797 z m 2.528,0 q 0,2.77773 1.2173,4.16659 1.2171,1.38906 3.0586,1.38906 1.8103,0 3.0274,-1.40464 1.2173,-1.40444 1.2173,-4.24469 0,-2.68404 -1.2173,-4.0729 -1.2171,-1.38886 -3.0274,-1.38886 -1.8415,0 -3.0586,1.37328 -1.2173,1.37328 -1.2173,4.18216 z m 13.9298,12.79659 v -20.06869 h 2.2472 v 1.90382 q 0.7804,-1.12359 1.7792,-1.66971 0.9987,-0.54631 2.4343,-0.54631 1.8415,0 3.2615,0.952 1.4203,0.95201 2.138,2.69983 0.7179,1.74781 0.7179,3.80763 0,2.21603 -0.7958,4.01058 -0.796,1.79475 -2.3097,2.74656 -1.5137,0.95201 -3.199,0.95201 -1.2173,0 -2.2005,-0.53053 -0.9832,-0.53074 -1.6074,-1.31096 v 7.05377 z m 2.216,-12.73406 q 0,2.80888 1.1392,4.151 1.1392,1.34212 2.7622,1.34212 1.6229,0 2.7935,-1.38906 1.1703,-1.38886 1.1703,-4.29143 0,-2.77772 -1.1392,-4.15101 -1.1392,-1.37328 -2.731,-1.37328 -1.5604,0 -2.7777,1.46697 -1.2173,1.46676 -1.2173,4.24469 z m 13.3993,-7.33463 h 3.839 l 3.8076,11.61047 4.2135,-11.61047 h 3.5582 v 14.51304 h -2.4657 v -11.67279 l -4.2759,11.67279 h -2.216 l -4.0575,-12.23469 v 12.23469 h -2.4032 z m 28.6203,12.73407 q -1.3419,1.15475 -2.6061,1.63855 -1.264,0.48379 -2.7308,0.48379 -2.372,0 -3.6674,-1.17053 -1.2952,-1.17034 -1.2952,-3.01183 0,-1.06108 0.4838,-1.93498 0.4838,-0.87391 1.2796,-1.40444 0.7958,-0.53074 1.7634,-0.81159 0.7179,-0.18716 2.1849,-0.37453 2.9962,-0.34337 4.4007,-0.84275 0,-0.49937 0,-0.62421 0,-1.52929 -0.6868,-2.12235 -0.9362,-0.84254 -2.8088,-0.84254 -1.7167,0 -2.5439,0.60843 -0.8269,0.60864 -1.2326,2.13813 l -2.4034,-0.31221 q 0.3122,-1.56045 1.0768,-2.49688 0.7647,-0.93622 2.1847,-1.45138 1.4202,-0.51495 3.2929,-0.51495 1.8415,0 2.9962,0.43705 1.1548,0.43685 1.7009,1.09243 0.5463,0.65538 0.7649,1.68529 0.1248,0.62422 0.1248,2.24719 v 3.2771 q 0,3.4333 0.156,4.33837 0.156,0.90507 0.6242,1.74781 h -2.5594 q -0.3745,-0.78022 -0.4994,-1.77897 z m -0.1871,-5.49313 q -1.3421,0.53054 -4.0262,0.93623 -1.4981,0.21853 -2.1381,0.4838 -0.6398,0.26526 -0.983,0.796 -0.3433,0.53053 -0.3433,1.15475 0,0.99875 0.749,1.65413 0.7491,0.65538 2.1847,0.65538 1.4358,0 2.5282,-0.62422 1.0923,-0.62421 1.623,-1.71645 0.4057,-0.81158 0.4057,-2.43455 z m 6.3143,-7.24094 h 2.4657 v 12.48438 h 6.8039 v -12.48438 h 2.4657 v 12.48438 h 1.5918 v 6.1485 h -2.0287 v -4.11984 h -11.2984 z m 15.9858,0 h 2.4657 v 11.07994 l 6.8041,-11.07994 h 2.6528 v 14.51304 h -2.4657 v -10.98625 l -6.8038,10.98625 h -2.6531 z m 27.0443,0 v 14.51304 h -2.4343 v -5.64913 h -1.4358 q -1.3108,0 -1.935,0.32759 -0.6242,0.32779 -1.8415,2.13813 l -2.1535,3.18341 h -3.0276 l 2.6217,-3.90132 q 1.2173,-1.77897 2.4346,-2.02866 -2.0912,-0.28105 -3.1211,-1.5139 -1.03,-1.23266 -1.03,-2.82447 0,-1.87265 1.342,-3.05877 1.3421,-1.18592 3.8701,-1.18592 z m -2.4343,2.05983 h -3.4957 q -2.216,0 -2.8558,0.67116 -0.6398,0.67096 -0.6398,1.60739 0,1.27959 0.9362,1.88823 0.9365,0.60864 3.3085,0.60864 h 2.7466 z m 13.0187,5.21227 q 0,-4.02616 2.2472,-5.9925 1.8415,-1.5918 4.5569,-1.5918 2.9651,0 4.8689,1.95075 1.9038,1.95076 1.9038,5.41503 0,2.80908 -0.8428,4.41647 -0.8425,1.60739 -2.4499,2.49687 -1.6074,0.88949 -3.48,0.88949 -3.0588,0 -4.9315,-1.96634 -1.8726,-1.96634 -1.8726,-5.61797 z m 2.5282,0 q 0,2.77773 1.2171,4.16659 1.2173,1.38906 3.0588,1.38906 1.8101,0 3.0274,-1.40464 1.2172,-1.40444 1.2172,-4.24469 0,-2.68404 -1.2172,-4.0729 -1.2173,-1.38886 -3.0274,-1.38886 -1.8415,0 -3.0588,1.37328 -1.2171,1.37328 -1.2171,4.18216 z m 21.7306,-7.2721 h 5.6491 q 2.0912,0 3.1056,0.35896 1.0143,0.35895 1.7478,1.27959 0.7335,0.92065 0.7335,2.23161 0,1.02991 -0.4371,1.79456 -0.4369,0.76464 -1.2796,1.29537 1.0299,0.34317 1.7011,1.2796 0.6709,0.93623 0.6709,2.21603 -0.1248,2.05982 -1.4669,3.05857 -1.3422,0.99875 -3.9013,0.99875 h -6.5231 z m 2.4344,6.11735 h 2.6217 q 1.5918,0 2.1693,-0.17179 0.5773,-0.17158 1.0455,-0.67096 0.4682,-0.49937 0.4682,-1.18591 0,-1.15496 -0.8116,-1.59181 -0.8114,-0.43705 -2.7777,-0.43705 h -2.7154 z m 0,6.36703 h 3.2459 q 2.0912,0 2.8714,-0.48379 0.7802,-0.4838 0.8116,-1.66971 0,-0.68675 -0.4526,-1.2798 -0.4527,-0.59286 -1.1704,-0.74907 -0.7179,-0.156 -2.3097,-0.156 h -2.9962 z m 26.186,-12.48438 h 2.4657 v 14.51304 h -2.4657 z m -13.7328,0 h 2.4657 v 5.6803 h 3.0897 q 3.0588,0 4.6974,1.18611 1.6385,1.18592 1.6385,3.24594 0,1.81013 -1.3733,3.10551 -1.3733,1.29518 -4.3695,1.29518 h -6.1485 z m 2.4657,12.48438 h 2.5592 q 2.3409,0 3.3396,-0.57748 0.9988,-0.57727 0.9988,-1.76339 0,-0.96759 -0.7335,-1.70107 -0.7335,-0.73328 -3.2615,-0.73328 h -2.9026 z m 20.7864,-4.52554 V 381.446 q 1.5606,0 2.1223,-0.10927 0.5619,-0.10926 1.0613,-0.65538 0.4994,-0.54611 0.4994,-1.3577 0,-0.99875 -0.6556,-1.59181 -0.6554,-0.59285 -1.7165,-0.59285 -2.06,0 -2.9027,2.43435 l -2.3407,-0.37453 q 1.0922,-4.08868 5.2746,-4.08868 2.3409,0 3.6516,1.26401 1.311,1.26422 1.311,3.04319 0,1.77898 -1.7167,2.80889 1.0925,0.59306 1.6386,1.49812 0.5461,0.90527 0.5461,2.15371 0,1.96614 -1.42,3.18341 -1.42,1.21728 -3.9794,1.21728 -4.9626,0 -5.7428,-4.43205 l 2.3097,-0.49938 q 0.312,1.40465 1.2796,2.16929 0.9675,0.76464 2.1846,0.76464 1.2485,0 2.0756,-0.70232 0.8272,-0.70212 0.8272,-1.79455 0,-0.84275 -0.515,-1.46697 -0.5151,-0.62422 -1.108,-0.78022 -0.593,-0.15601 -2.1223,-0.15601 -0.1249,0 -0.5619,0 z m 8.7021,-0.68674 q 0,-4.02616 2.2472,-5.9925 1.8413,-1.5918 4.5567,-1.5918 2.9651,0 4.8689,1.95075 1.9038,1.95076 1.9038,5.41503 0,2.80908 -0.8425,4.41647 -0.8428,1.60739 -2.4502,2.49687 -1.6074,0.88949 -3.48,0.88949 -3.0586,0 -4.9313,-1.96634 -1.8726,-1.96634 -1.8726,-5.61797 z m 2.528,0 q 0,2.77773 1.2173,4.16659 1.2171,1.38906 3.0586,1.38906 1.8103,0 3.0274,-1.40464 1.2173,-1.40444 1.2173,-4.24469 0,-2.68404 -1.2173,-4.0729 -1.2171,-1.38886 -3.0274,-1.38886 -1.8415,0 -3.0586,1.37328 -1.2173,1.37328 -1.2173,4.18216 z m 13.961,-7.2721 h 5.6493 q 2.091,0 3.1055,0.35896 1.0143,0.35895 1.7478,1.27959 0.7333,0.92065 0.7333,2.23161 0,1.02991 -0.4369,1.79456 -0.437,0.76464 -1.2796,1.29537 1.0299,0.34317 1.7009,1.2796 0.6712,0.93623 0.6712,2.21603 -0.1249,2.05982 -1.467,3.05857 -1.3421,0.99875 -3.9013,0.99875 h -6.5232 z m 2.4345,6.11735 h 2.6217 q 1.5918,0 2.1691,-0.17179 0.5775,-0.17158 1.0457,-0.67096 0.468,-0.49937 0.468,-1.18591 0,-1.15496 -0.8114,-1.59181 -0.8116,-0.43705 -2.7777,-0.43705 h -2.7154 z m 0,6.36703 h 3.2459 q 2.0912,0 2.8714,-0.48379 0.7803,-0.4838 0.8114,-1.66971 0,-0.68675 -0.4524,-1.2798 -0.4526,-0.59286 -1.1705,-0.74907 -0.7177,-0.156 -2.3095,-0.156 h -2.9963 z m 22.3159,-2.65288 2.5592,0.31201 q -0.6242,2.24719 -2.2472,3.48004 -1.623,1.23286 -4.151,1.23286 -3.1836,0 -5.0405,-1.96634 -1.8571,-1.96634 -1.8571,-5.49312 0,-3.68279 1.8883,-5.69607 1.8882,-2.01308 4.8844,-2.01308 2.9026,0 4.7441,1.98192 1.8415,1.98191 1.8415,5.57122 0,0.21853 0,0.65538 h -10.8303 q 0.1561,2.37203 1.3578,3.65163 1.2014,1.2798 3.0429,1.2798 1.3422,0 2.2942,-0.7179 0.9518,-0.7179 1.5137,-2.27835 z m -8.0525,-3.96384 h 8.0836 q -0.156,-1.84149 -0.9364,-2.74656 -1.1547,-1.40444 -3.0274,-1.40444 -1.7167,0 -2.8558,1.12359 -1.1392,1.12359 -1.264,3.02741 z"
       style="font-size:14px;font-family:sans-serif;fill:#000000;stroke:none;stroke-width:0.99875"
       id="path302" />
    <path
       d="m 1006.9686,405.10399 h 2.4655 v 6.89756 q 0.7804,-0.8739 1.6855,-1.29538 0.905,-0.42127 1.9663,-0.42127 2.5904,0 4.0885,2.15351 1.4981,2.1537 1.4981,5.39964 0,3.40194 -1.623,5.5087 -1.6229,2.10677 -4.0261,2.10677 -0.8114,0 -1.623,-0.24969 -0.8114,-0.24969 -1.9663,-1.34212 v 6.80388 h -2.4655 v -6.80388 q -0.7179,0.78022 -1.6074,1.18592 -0.8895,0.40589 -1.9508,0.40589 -2.2783,0 -3.9794,-2.01328 -1.70087,-2.01308 -1.70087,-5.72703 0,-3.15246 1.54486,-5.29038 1.54491,-2.13793 4.13541,-2.13793 1.0925,0 1.9819,0.42127 0.8895,0.42148 1.5763,1.29538 z m 2.4655,12.79638 q 0,3.2771 0.9052,4.41627 0.9051,1.13938 2.2472,1.13938 1.4982,0 2.5592,-1.38906 1.0613,-1.38887 1.0613,-4.32259 0,-2.74657 -0.9832,-4.10427 -0.9831,-1.3577 -2.5124,-1.3577 -1.623,0 -2.4502,1.40444 -0.8271,1.40465 -0.8271,4.21353 z m -9.2071,-0.24969 q 0,3.05878 1.0299,4.41628 1.0299,1.3577 2.5592,1.3577 1.5918,0 2.3878,-1.34192 0.7958,-1.34212 0.7958,-4.05753 0,-2.8714 -0.8271,-4.29142 -0.827,-1.42023 -2.5125,-1.42023 -1.5293,0 -2.4813,1.38886 -0.9518,1.38907 -0.9518,3.94826 z m 21.2292,13.04628 -0.2808,-2.30971 q 0.8114,0.21852 1.4044,0.21852 0.8114,0 1.3108,-0.26527 0.4994,-0.26526 0.8116,-0.76464 0.2185,-0.37453 0.749,-1.84149 0.062,-0.18737 0.2186,-0.59306 l -5.5245,-14.5442 h 2.6531 l 3.0274,8.39569 q 0.593,1.62297 1.061,3.37078 0.4059,-1.68549 0.9988,-3.30845 l 3.0899,-8.45802 h 2.4657 l -5.5243,14.76272 q -0.8739,2.37204 -1.3732,3.2771 -0.6556,1.21728 -1.4982,1.79456 -0.8427,0.57747 -2.0288,0.57747 -0.6866,0 -1.5605,-0.312 z m 14.1074,-20.09985 h 2.4343 v 6.05482 h 6.8353 v -6.05482 h 2.4345 v 14.51304 h -2.4345 v -6.42956 h -6.8353 v 6.42956 h -2.4343 z m 15.4123,0 h 2.4345 v 6.27335 q 1.186,0 1.6542,-0.45263 0.4682,-0.45244 1.4044,-2.60614 0.7179,-1.71645 1.1705,-2.26277 0.4525,-0.54612 1.03,-0.74906 0.5772,-0.20275 1.8882,-0.20275 h 0.4994 v 2.05982 l -0.6868,-0.0312 q -0.9674,0 -1.2484,0.28085 -0.2809,0.31221 -0.8739,1.81034 -0.5617,1.40444 -1.0299,1.95055 -0.4682,0.54632 -1.4356,1.01433 1.5916,0.4059 3.1211,2.93393 l 2.684,4.49438 h -2.7154 l -2.6217,-4.49438 q -0.7802,-1.34212 -1.3889,-1.77897 -0.6086,-0.43705 -1.4512,-0.43705 v 6.7104 h -2.4345 z m 12.2658,0 h 2.4657 v 12.48438 h 6.8041 v -12.48438 h 2.4655 v 12.48438 h 1.5919 v 6.1485 h -2.0287 v -4.11984 h -11.2985 z m 15.986,0 h 2.4655 v 11.07973 l 6.8041,-11.07973 h 2.6529 v 14.51304 h -2.4657 V 414.1239 l -6.8039,10.98625 h -2.6529 z m 15.6211,0 h 2.4657 v 11.07973 l 6.8039,-11.07973 h 2.6529 v 14.51304 h -2.4656 V 414.1239 l -6.804,10.98625 h -2.6529 z m 23.3905,0 h 2.4657 v 11.07973 l 6.8041,-11.07973 h 2.6529 v 14.51304 h -2.4657 V 414.1239 l -6.8039,10.98625 h -2.6531 z m 23.4219,0 h 11.4233 v 14.51304 h -2.4657 v -12.45322 h -6.5231 v 12.45322 h -2.4345 z m 25.0371,9.8313 2.5594,0.31221 q -0.6243,2.24718 -2.2472,3.48004 -1.623,1.23286 -4.1512,1.23286 -3.1835,0 -5.0405,-1.96634 -1.8571,-1.96634 -1.8571,-5.49313 0,-3.68299 1.8882,-5.69607 1.8883,-2.01308 4.8845,-2.01308 2.9028,0 4.7441,1.98192 1.8415,1.98192 1.8415,5.57123 0,0.21833 0,0.65538 h -10.8303 q 0.1562,2.37203 1.3577,3.65163 1.2017,1.2796 3.0432,1.2796 1.3419,0 2.2939,-0.7177 0.9521,-0.71791 1.5138,-2.27855 z m -8.0524,-3.96364 h 8.0835 q -0.156,-1.8415 -0.9362,-2.74656 -1.1548,-1.40465 -3.0274,-1.40465 -1.7167,0 -2.8559,1.1236 -1.1391,1.12359 -1.264,3.02761 z m 13.6801,14.20082 v -20.06848 h 2.2472 v 1.90382 q 0.7802,-1.1236 1.779,-1.66991 0.9987,-0.54612 2.4345,-0.54612 1.8413,0 3.2615,0.95201 1.4201,0.95181 2.138,2.69962 0.7179,1.74781 0.7179,3.80784 0,2.21602 -0.796,4.01058 -0.7958,1.79455 -2.3095,2.74656 -1.5138,0.95201 -3.1992,0.95201 -1.2173,0 -2.2003,-0.53074 -0.9832,-0.53053 -1.6074,-1.31076 v 7.05357 z m 2.216,-12.73406 q 0,2.80909 1.1392,4.15121 1.1392,1.34192 2.7622,1.34192 1.6229,0 2.7933,-1.38886 1.1705,-1.38887 1.1705,-4.29143 0,-2.77773 -1.1392,-4.15101 -1.1394,-1.37328 -2.731,-1.37328 -1.5606,0 -2.7779,1.46676 -1.2171,1.46697 -1.2171,4.24469 z m 23.2619,2.49688 2.5592,0.31221 q -0.6242,2.24718 -2.2472,3.48004 -1.6229,1.23286 -4.151,1.23286 -3.1834,0 -5.0405,-1.96634 -1.857,-1.96634 -1.857,-5.49313 0,-3.68299 1.8882,-5.69607 1.8882,-2.01308 4.8845,-2.01308 2.9026,0 4.744,1.98192 1.8415,1.98192 1.8415,5.57123 0,0.21833 0,0.65538 h -10.8302 q 0.156,2.37203 1.3577,3.65163 1.2017,1.2796 3.043,1.2796 1.3421,0 2.2941,-0.7177 0.9518,-0.71791 1.5137,-2.27855 z m -8.0525,-3.96364 h 8.0837 q -0.156,-1.8415 -0.9362,-2.74656 -1.155,-1.40465 -3.0277,-1.40465 -1.7164,0 -2.8558,1.1236 -1.1392,1.12359 -1.264,3.02761 z m 15.6153,-5.86766 h 10.1123 v 12.48438 h 1.5606 v 6.1485 h -1.9975 v -4.11984 h -11.4233 v 4.11984 h -2.0286 v -6.1485 h 1.3107 q 2.5906,-3.52699 2.4658,-12.48438 z m 2.06,2.05982 q -0.2811,7.05378 -2.1849,10.42456 h 7.8028 v -10.42456 z m 21.7793,10.67424 q -1.3421,1.15476 -2.6061,1.63855 -1.264,0.4838 -2.731,0.4838 -2.372,0 -3.6672,-1.17054 -1.2954,-1.17033 -1.2954,-3.01183 0,-1.06107 0.4838,-1.93498 0.4838,-0.8739 1.2796,-1.40464 0.796,-0.53053 1.7636,-0.81138 0.7177,-0.18737 2.1847,-0.37453 2.9962,-0.34337 4.4007,-0.84275 0,-0.49937 0,-0.62422 0,-1.52928 -0.6866,-2.12234 -0.9364,-0.84275 -2.8091,-0.84275 -1.7164,0 -2.5436,0.60864 -0.8272,0.60864 -1.2328,2.13793 l -2.4032,-0.31201 q 0.312,-1.56065 1.0766,-2.49688 0.7649,-0.93643 2.1849,-1.45138 1.42,-0.51496 3.2927,-0.51496 1.8415,0 2.9962,0.43706 1.155,0.43685 1.7011,1.09223 0.5461,0.65558 0.7646,1.68549 0.1249,0.62422 0.1249,2.24719 v 3.27709 q 0,3.43331 0.156,4.33837 0.1562,0.90507 0.6242,1.74782 h -2.5592 q -0.3745,-0.78023 -0.4994,-1.77898 z m -0.1873,-5.49312 q -1.342,0.53053 -4.0262,0.93623 -1.4981,0.21852 -2.1379,0.48379 -0.6398,0.26527 -0.9832,0.79581 -0.3434,0.53073 -0.3434,1.15495 0,0.99875 0.7491,1.65413 0.7491,0.65538 2.1849,0.65538 1.4356,0 2.528,-0.62422 1.0924,-0.62422 1.623,-1.71665 0.4057,-0.81139 0.4057,-2.43435 z m 6.3145,-7.24094 h 2.4343 v 6.05482 h 6.8353 v -6.05482 h 2.4343 v 14.51304 h -2.4343 v -6.42956 h -6.8353 v 6.42956 h -2.4343 z m 15.4434,0 h 2.4346 v 6.05482 h 6.835 v -6.05482 h 2.4346 v 14.51304 h -2.4346 v -6.42956 h -6.835 v 6.42956 h -2.4346 z m 29.2077,0 h 2.4657 v 14.51304 h -2.4657 z m -13.7328,0 h 2.4657 v 5.68029 h 3.0897 q 3.0588,0 4.6973,1.18612 1.6386,1.18591 1.6386,3.24594 0,1.81013 -1.3733,3.10531 -1.3733,1.29538 -4.3695,1.29538 h -6.1485 z m 2.4657,12.48438 h 2.5592 q 2.3408,0 3.3396,-0.57748 0.9987,-0.57748 0.9987,-1.76339 0,-0.96759 -0.7334,-1.70107 -0.7335,-0.73349 -3.2616,-0.73349 h -2.9025 z m 15.9486,2.02866 5.2748,-7.55315 -4.9003,-6.95989 h 3.09 l 2.216,3.40194 q 0.6242,0.96759 0.9988,1.62297 0.6242,-0.90506 1.1235,-1.59181 l 2.4344,-3.4331 h 2.9339 l -4.9937,6.83505 5.3683,7.67799 h -2.9963 l -2.9962,-4.49438 -0.7803,-1.21727 -3.8078,5.71165 z"
       style="font-size:14px;font-family:sans-serif;fill:#000000;stroke:none;stroke-width:0.99875"
       id="path304" />
    <path
       d="m 1065.9328,455.60318 2.5594,0.31221 q -0.6243,2.24719 -2.2472,3.47985 -1.623,1.23285 -4.1512,1.23285 -3.1834,0 -5.0405,-1.96613 -1.8571,-1.96634 -1.8571,-5.49313 0,-3.68299 1.8882,-5.69607 1.8883,-2.01308 4.8845,-2.01308 2.9028,0 4.7441,1.98192 1.8415,1.98192 1.8415,5.57103 0,0.21852 0,0.65558 h -10.8303 q 0.1562,2.37203 1.3577,3.65162 1.2017,1.2796 3.0432,1.2796 1.342,0 2.294,-0.7179 0.952,-0.7177 1.5137,-2.27835 z m -8.0524,-3.96384 h 8.0835 q -0.156,-1.84129 -0.9362,-2.74656 -1.1548,-1.40444 -3.0274,-1.40444 -1.7167,0 -2.8558,1.12359 -1.1392,1.1236 -1.2641,3.02741 z m 13.6801,-5.86765 h 2.4657 v 11.07993 l 6.8039,-11.07993 h 2.6529 v 14.51323 h -2.4655 v -10.98625 l -6.8041,10.98625 h -2.6529 z m 9.1759,-7.02241 h 1.6855 q -0.2185,1.71665 -1.264,2.6373 -1.0457,0.92084 -2.7621,0.92084 -1.7478,0 -2.7935,-0.90526 -1.0455,-0.90507 -1.2641,-2.65288 h 1.6855 q 0.1872,0.93643 0.7491,1.40444 0.5617,0.46821 1.5293,0.46821 1.0924,0 1.6697,-0.45263 0.5775,-0.45243 0.7646,-1.42002 z m 23.6716,19.75647 q -1.3419,1.15496 -2.6061,1.63855 -1.264,0.48379 -2.7308,0.48379 -2.372,0 -3.6674,-1.17033 -1.2952,-1.17034 -1.2952,-3.01183 0,-1.06127 0.4838,-1.93518 0.4838,-0.87391 1.2796,-1.40444 0.7958,-0.53054 1.7634,-0.81139 0.7179,-0.18736 2.1849,-0.37453 2.9962,-0.34337 4.4006,-0.84274 0,-0.49938 0,-0.62422 0,-1.52929 -0.6867,-2.12235 -0.9362,-0.84274 -2.8089,-0.84274 -1.7166,0 -2.5438,0.60864 -0.827,0.60864 -1.2327,2.13792 l -2.4033,-0.31201 q 0.3122,-1.56064 1.0768,-2.49687 0.7647,-0.93643 2.1847,-1.45139 1.4202,-0.51495 3.2929,-0.51495 1.8414,0 2.9962,0.43685 1.1548,0.43705 1.7009,1.09243 0.5463,0.65538 0.7648,1.6855 0.1249,0.62421 0.1249,2.24718 v 3.2771 q 0,3.4331 0.156,4.33837 0.156,0.90507 0.6242,1.74781 h -2.5594 q -0.3745,-0.78042 -0.4994,-1.77917 z m -0.1872,-5.49312 q -1.3421,0.53073 -4.0261,0.93642 -1.4981,0.21853 -2.1381,0.4838 -0.6398,0.26527 -0.983,0.7958 -0.3434,0.53054 -0.3434,1.15476 0,0.99875 0.7491,1.65433 0.749,0.65538 2.1847,0.65538 1.4358,0 2.5282,-0.62422 1.0922,-0.62422 1.623,-1.71665 0.4056,-0.81139 0.4056,-2.43436 z m 6.3143,-7.24094 h 8.3334 v 2.06002 h -5.8988 v 12.45321 h -2.4346 z m 10.1689,20.06868 v -20.06868 h 2.2472 v 1.90402 q 0.7804,-1.1236 1.7792,-1.66991 0.9987,-0.54612 2.4343,-0.54612 1.8415,0 3.2616,0.95181 1.4202,0.95201 2.1379,2.69982 0.7179,1.74781 0.7179,3.80783 0,2.21583 -0.7958,4.01058 -0.796,1.79456 -2.3097,2.74657 -1.5137,0.9518 -3.199,0.9518 -1.2173,0 -2.2005,-0.53053 -0.9831,-0.53054 -1.6074,-1.31076 v 7.05357 z m 2.216,-12.73406 q 0,2.80908 1.1392,4.151 1.1392,1.34212 2.7622,1.34212 1.6229,0 2.7935,-1.38886 1.1703,-1.38886 1.1703,-4.29143 0,-2.77792 -1.1392,-4.1512 -1.1391,-1.37328 -2.731,-1.37328 -1.5604,0 -2.7777,1.46696 -1.2173,1.46696 -1.2173,4.24469 z m 13.2433,12.76522 -0.2809,-2.30951 q 0.8114,0.21853 1.4045,0.21853 0.8113,0 1.3107,-0.26547 0.4994,-0.26527 0.8116,-0.76464 0.2185,-0.37453 0.7491,-1.8413 0.062,-0.18736 0.2185,-0.59306 l -5.5245,-14.54439 h 2.6531 l 3.0274,8.39589 q 0.5931,1.62297 1.0611,3.37078 0.4059,-1.68549 0.9987,-3.30846 l 3.09,-8.45821 h 2.4657 l -5.5243,14.76292 q -0.8739,2.37203 -1.3733,3.2771 -0.6556,1.21728 -1.4981,1.79455 -0.8428,0.57748 -2.0289,0.57748 -0.6865,0 -1.5604,-0.31221 z m 14.1385,-20.09984 h 3.839 l 3.8076,11.61047 4.2135,-11.61047 h 3.5582 v 14.51323 h -2.4657 v -11.67299 l -4.2759,11.67299 h -2.216 l -4.0575,-12.23468 v 12.23468 h -2.4032 z m 29.0886,9.83149 2.5594,0.31221 q -0.6243,2.24719 -2.2472,3.47985 -1.623,1.23285 -4.1512,1.23285 -3.1834,0 -5.0405,-1.96613 -1.8571,-1.96634 -1.8571,-5.49313 0,-3.68299 1.8882,-5.69607 1.8883,-2.01308 4.8845,-2.01308 2.9028,0 4.7441,1.98192 1.8415,1.98192 1.8415,5.57103 0,0.21852 0,0.65558 h -10.8303 q 0.1562,2.37203 1.3577,3.65162 1.2017,1.2796 3.0432,1.2796 1.342,0 2.294,-0.7179 0.952,-0.7177 1.5137,-2.27835 z m -8.0524,-3.96384 h 8.0835 q -0.156,-1.84129 -0.9362,-2.74656 -1.1548,-1.40444 -3.0274,-1.40444 -1.7167,0 -2.8558,1.12359 -1.1392,1.1236 -1.2641,3.02741 z m 13.7113,-5.86765 h 2.4345 v 6.05502 h 6.8351 v -6.05502 h 2.4345 v 14.51323 h -2.4345 v -6.42955 h -6.8351 v 6.42955 h -2.4345 z m 14.1015,0 h 11.7665 v 2.06002 h -4.6504 v 12.45321 h -2.4657 v -12.45321 h -4.6504 z m 23.5759,12.73406 q -1.3419,1.15496 -2.6061,1.63855 -1.264,0.48379 -2.7308,0.48379 -2.372,0 -3.6674,-1.17033 -1.2952,-1.17034 -1.2952,-3.01183 0,-1.06127 0.4838,-1.93518 0.4838,-0.87391 1.2796,-1.40444 0.7958,-0.53054 1.7634,-0.81139 0.7179,-0.18736 2.1849,-0.37453 2.9962,-0.34337 4.4007,-0.84274 0,-0.49938 0,-0.62422 0,-1.52929 -0.6868,-2.12235 -0.9362,-0.84274 -2.8089,-0.84274 -1.7166,0 -2.5438,0.60864 -0.8269,0.60864 -1.2326,2.13792 l -2.4034,-0.31201 q 0.3122,-1.56064 1.0768,-2.49687 0.7647,-0.93643 2.1847,-1.45139 1.4202,-0.51495 3.2929,-0.51495 1.8415,0 2.9962,0.43685 1.1548,0.43705 1.7009,1.09243 0.5463,0.65538 0.7648,1.6855 0.1249,0.62421 0.1249,2.24718 v 3.2771 q 0,3.4331 0.156,4.33837 0.156,0.90507 0.6242,1.74781 h -2.5594 q -0.3745,-0.78042 -0.4994,-1.77917 z m -0.1871,-5.49312 q -1.3422,0.53073 -4.0262,0.93642 -1.4981,0.21853 -2.1381,0.4838 -0.6398,0.26527 -0.983,0.7958 -0.3434,0.53054 -0.3434,1.15476 0,0.99875 0.7491,1.65433 0.7491,0.65538 2.1847,0.65538 1.4358,0 2.5282,-0.62422 1.0922,-0.62422 1.623,-1.71665 0.4057,-0.81139 0.4057,-2.43436 z m 4.6601,7.27229 5.2746,-7.55314 -4.9,-6.96009 h 3.0899 l 2.2158,3.40214 q 0.6242,0.96739 0.9988,1.62297 0.6242,-0.90527 1.1236,-1.59181 l 2.4345,-3.4333 h 2.9337 l -4.9937,6.83524 5.3683,7.67799 h -2.9963 l -2.9962,-4.49437 -0.7802,-1.21728 -3.8077,5.71165 z"
       style="font-size:14px;font-family:sans-serif;fill:#000000;stroke:none;stroke-width:0.99875"
       id="path306" />
    <path
       d="m 730.83756,254.10537 v -20.00616 h 7.49063 q 2.30951,0 3.69857,0.60864 1.38886,0.60864 2.16908,1.85707 0.78023,1.24844 0.78023,2.65288 0,1.2796 -0.70213,2.4032 -0.70232,1.12359 -2.10676,1.84149 1.81014,0.53054 2.79331,1.81014 0.98317,1.27979 0.98317,3.02761 0,1.40444 -0.59306,2.62172 -0.59306,1.21707 -1.46697,1.87265 -0.8739,0.65538 -2.20024,0.98297 -1.32654,0.32779 -3.23036,0.32779 z m 2.65288,-11.61047 h 4.30721 q 1.77897,0 2.52804,-0.21852 1.02991,-0.31201 1.52928,-1.01433 0.49938,-0.70213 0.49938,-1.73224 0,-0.99875 -0.46822,-1.76339 -0.46801,-0.76464 -1.3575,-1.04549 -0.88968,-0.28085 -3.04319,-0.28085 h -3.995 z m 0,9.23844 h 4.96259 q 1.2796,0 1.81013,-0.0937 0.90527,-0.15601 1.52949,-0.54612 0.62422,-0.39011 1.01433,-1.10801 0.39011,-0.7179 0.39011,-1.68529 0,-1.1236 -0.57747,-1.95076 -0.57728,-0.82717 -1.59161,-1.15476 -1.01453,-0.32779 -2.91835,-0.32779 h -4.61922 z m 25.70623,-2.30951 2.5592,0.31201 q -0.62422,2.24719 -2.24719,3.48004 -1.62297,1.23286 -4.15101,1.23286 -3.18361,0 -5.04069,-1.96634 -1.85687,-1.96634 -1.85687,-5.49312 0,-3.68279 1.88823,-5.69607 1.88824,-2.01308 4.88449,-2.01308 2.90257,0 4.74406,1.98192 1.8415,1.98191 1.8415,5.57122 0,0.21853 0,0.65538 h -10.83025 q 0.15601,2.37203 1.3577,3.65163 1.2015,1.2798 3.04299,1.2798 1.34212,0 2.29393,-0.7179 0.95201,-0.7179 1.51391,-2.27835 z m -8.05252,-3.96384 h 8.08368 q -0.15601,-1.84149 -0.93643,-2.74656 -1.15475,-1.40444 -3.02741,-1.40444 -1.71665,0 -2.85583,1.12359 -1.13917,1.12359 -1.26401,3.02741 z m 13.68007,14.20103 v -20.06869 h 2.24719 v 1.90382 q 0.78043,-1.12359 1.77918,-1.66971 0.99875,-0.54631 2.43435,-0.54631 1.84149,0 3.26152,0.952 1.42022,0.95201 2.13792,2.69983 0.7179,1.74781 0.7179,3.80763 0,2.21603 -0.7958,4.01058 -0.79601,1.79475 -2.30971,2.74656 -1.51371,0.95201 -3.199,0.95201 -1.21727,0 -2.20044,-0.53053 -0.98317,-0.53074 -1.60739,-1.31096 v 7.05377 z m 2.21603,-12.73406 q 0,2.80888 1.13918,4.151 1.13917,1.34212 2.76214,1.34212 1.62297,0 2.7935,-1.38906 1.17034,-1.38886 1.17034,-4.29143 0,-2.77772 -1.13918,-4.15101 -1.13917,-1.37328 -2.73098,-1.37328 -1.56045,0 -2.77772,1.46697 -1.21728,1.46676 -1.21728,4.24469 z m 22.79367,1.87265 2.43456,0.31201 q -0.4057,2.49688 -2.04424,3.9169 -1.63875,1.42022 -4.01079,1.42022 -2.96488,0 -4.77522,-1.95076 -1.81013,-1.95056 -1.81013,-5.60239 0,-2.34067 0.78022,-4.10426 0.78022,-1.76339 2.37203,-2.6373 1.59181,-0.8739 3.46447,-0.8739 2.34067,0 3.85457,1.18611 1.51371,1.18592 1.9194,3.40194 l -2.37203,0.37453 q -0.34337,-1.46696 -1.21728,-2.20044 -0.8739,-0.73328 -2.09118,-0.73328 -1.87266,0 -3.02741,1.32634 -1.15476,1.32654 -1.15476,4.19794 0,2.93373 1.1236,4.26027 1.12359,1.32654 2.90256,1.32654 1.46697,0 2.43456,-0.88969 0.96739,-0.88948 1.21707,-2.73078 z m 4.52574,-9.20728 h 2.46551 v 11.07994 l 6.80409,-11.07994 h 2.65288 v 14.51304 h -2.46572 v -10.98625 l -6.80388,10.98625 h -2.65288 z m 27.04415,0 v 14.51304 h -2.43435 v -5.64913 h -1.4358 q -1.31076,0 -1.93498,0.32759 -0.62422,0.32779 -1.8415,2.13813 l -2.1535,3.18341 h -3.02741 l 2.62172,-3.90132 q 1.21707,-1.77897 2.43435,-2.02866 -2.09118,-0.28105 -3.1211,-1.5139 -1.02991,-1.23266 -1.02991,-2.82447 0,-1.87265 1.34212,-3.05877 1.34192,-1.18592 3.87016,-1.18592 z m -2.43435,2.05983 h -3.49563 q -2.21602,0 -2.85582,0.67116 -0.6398,0.67096 -0.6398,1.60739 0,1.27959 0.93623,1.88823 0.93642,0.60864 3.30846,0.60864 h 2.74656 z"
       style="font-size:14px;font-family:sans-serif;fill:#000000;stroke:none;stroke-width:0.99875"
       id="path308" />
    <path
       d="m 758.01155,274.76711 v 14.51304 H 755.577 v -5.64913 h -1.43561 q -1.31095,0 -1.93517,0.32759 -0.62422,0.32779 -1.8413,2.13792 l -2.1537,3.18362 h -3.02741 l 2.62171,-3.90132 q 1.21728,-1.77917 2.43456,-2.02886 -2.09118,-0.28085 -3.1211,-1.51371 -1.03011,-1.23285 -1.03011,-2.82446 0,-1.87266 1.34212,-3.05877 1.34212,-1.18592 3.87016,-1.18592 z m -2.43455,2.05982 h -3.49563 q -2.21582,0 -2.85562,0.67096 -0.64,0.67116 -0.64,1.60739 0,1.2798 0.93643,1.88824 0.93622,0.60864 3.30826,0.60864 h 2.74656 z m 8.08947,-2.05982 h 10.11235 v 12.48438 h 1.56064 v 6.1485 h -1.9975 v -4.11984 h -11.4233 v 4.11984 H 759.89 v -6.1485 h 1.31096 q 2.59036,-3.52699 2.46551,-12.48438 z m 2.06003,2.05982 q -0.28085,7.05378 -2.18487,10.42456 h 7.80283 v -10.42456 z m 12.32237,18.00866 v -20.06848 h 2.24719 v 1.90382 q 0.78042,-1.1236 1.77917,-1.66991 0.99875,-0.54612 2.43436,-0.54612 1.84149,0 3.26152,0.95201 1.42022,0.95181 2.13792,2.69962 0.7179,1.74781 0.7179,3.80784 0,2.21602 -0.7958,4.01058 -0.79601,1.79455 -2.30971,2.74656 -1.51371,0.95201 -3.199,0.95201 -1.21728,0 -2.20044,-0.53074 -0.98317,-0.53053 -1.60739,-1.31076 v 7.05357 z m 2.21603,-12.73406 q 0,2.80909 1.13917,4.15121 1.13918,1.34192 2.76215,1.34192 1.62297,0 2.7935,-1.38886 1.17034,-1.38887 1.17034,-4.29143 0,-2.77773 -1.13918,-4.15101 -1.13917,-1.37328 -2.73098,-1.37328 -1.56045,0 -2.77772,1.46676 -1.21728,1.46697 -1.21728,4.24469 z m 22.79367,5.39964 q -1.34192,1.15476 -2.60594,1.63855 -1.26401,0.4838 -2.73098,0.4838 -2.37203,0 -3.66741,-1.17054 -1.29518,-1.17033 -1.29518,-3.01183 0,-1.06107 0.4838,-1.93498 0.48379,-0.8739 1.2796,-1.40464 0.7958,-0.53053 1.76339,-0.81138 0.7179,-0.18737 2.18486,-0.37453 2.99625,-0.34337 4.4007,-0.84275 0,-0.49937 0,-0.62422 0,-1.52928 -0.68654,-2.12234 -0.93643,-0.84275 -2.80909,-0.84275 -1.71665,0 -2.54362,0.60864 -0.82716,0.60864 -1.23285,2.13793 l -2.40319,-0.31201 q 0.31201,-1.56065 1.07665,-2.49688 0.76464,-0.93643 2.18486,-1.45138 1.42003,-0.51496 3.29268,-0.51496 1.8415,0 2.99625,0.43706 1.15476,0.43685 1.70107,1.09223 0.54612,0.65558 0.76465,1.68549 0.12484,0.62422 0.12484,2.24719 v 3.27709 q 0,3.43331 0.15601,4.33837 0.156,0.90507 0.62421,1.74782 h -2.55939 q -0.37433,-0.78023 -0.49938,-1.77898 z m -0.18716,-5.49312 q -1.34212,0.53053 -4.02616,0.93623 -1.49813,0.21852 -2.13793,0.48379 -0.64,0.26527 -0.98317,0.79581 -0.34337,0.53073 -0.34337,1.15495 0,0.99875 0.74906,1.65413 0.74907,0.65538 2.18467,0.65538 1.4358,0 2.52824,-0.62422 1.09243,-0.62422 1.62296,-1.71665 0.4057,-0.81139 0.4057,-2.43435 z"
       style="font-size:14px;font-family:sans-serif;fill:#000000;stroke:none;stroke-width:0.99875"
       id="path310" />
    <path
       d="m 744.66306,324.45492 v -20.00636 h 2.65288 v 17.63433 h 9.83149 v 2.37203 z m 15.36557,-17.19727 v -2.80909 h 2.43435 v 2.80909 z m 0,17.19727 v -14.51323 h 2.43435 v 14.51323 z m 6.18166,0 v -14.51323 h 2.21603 v 2.06002 q 1.5916,-2.37203 4.61922,-2.37203 1.31075,0 2.40319,0.46821 1.09243,0.46802 1.63855,1.23266 0.54611,0.76484 0.76464,1.82591 0.156,0.68675 0.156,2.37204 v 8.92642 h -2.46551 v -8.83274 q 0,-1.49813 -0.28105,-2.23161 -0.28085,-0.73348 -1.01433,-1.18611 -0.73348,-0.45244 -1.73223,-0.45244 -1.56045,0 -2.69962,0.99875 -1.13918,0.99875 -1.13918,3.77648 v 7.92767 z m 25.07202,0 v -2.12234 q -1.71645,2.46551 -4.61922,2.46551 -1.2796,0 -2.38761,-0.49937 -1.10801,-0.49938 -1.65413,-1.24844 -0.54612,-0.74906 -0.76464,-1.81013 -0.15601,-0.7179 -0.15601,-2.30971 v -8.98875 h 2.46552 v 8.05252 q 0,1.93498 0.1562,2.59056 0.21833,0.96739 0.96739,1.52928 0.74906,0.5617 1.87266,0.5617 1.09243,0 2.06002,-0.57728 0.96759,-0.57747 1.37328,-1.54506 0.40569,-0.96739 0.40569,-2.84005 v -7.77167 h 2.46572 v 14.51323 z m 4.41068,0 5.2746,-7.55314 -4.90027,-6.96009 h 3.08993 l 2.21603,3.40214 q 0.62422,0.96739 0.99875,1.62297 0.62422,-0.90527 1.1236,-1.59181 l 2.43455,-3.4333 h 2.93373 l -4.99375,6.83524 5.36828,7.67799 h -2.99625 l -2.99625,-4.49437 -0.78023,-1.21728 -3.80783,5.71165 z"
       style="font-size:14px;font-family:sans-serif;fill:#000000;stroke:none;stroke-width:0.99875"
       id="path312" />
  </g>
</svg>
